<svg width="1920" height="1080" viewBox="0 0 1920 1080" fill="none" xmlns="http://www.w3.org/2000/svg">
<g clip-path="url(#clip0_252_390)">
<rect width="1920" height="1080" fill="white"/>
<rect width="1920" height="1080" fill="url(#paint0_linear_252_390)"/>
<rect width="1920" height="1080" fill="#282828"/>
<rect y="569" width="1920" height="511" fill="url(#paint1_linear_252_390)"/>
<path d="M1629.05 930V900.8H1635.17L1643.29 924.4C1643.21 923.547 1643.12 922.547 1643.01 921.4C1642.93 920.227 1642.87 919.04 1642.81 917.84C1642.76 916.613 1642.73 915.547 1642.73 914.64V900.8H1647.29V930H1641.17L1633.13 906.4C1633.19 907.173 1633.25 908.107 1633.33 909.2C1633.41 910.293 1633.48 911.413 1633.53 912.56C1633.59 913.707 1633.61 914.76 1633.61 915.72V930H1629.05ZM1659.72 930.4C1657.45 930.4 1655.66 929.8 1654.36 928.6C1653.05 927.4 1652.4 925.787 1652.4 923.76C1652.4 921.6 1653.12 919.933 1654.56 918.76C1656 917.587 1658.04 917 1660.68 917H1666.16V915.12C1666.16 914.053 1665.81 913.227 1665.12 912.64C1664.42 912.027 1663.48 911.72 1662.28 911.72C1661.18 911.72 1660.28 911.96 1659.56 912.44C1658.84 912.92 1658.41 913.573 1658.28 914.4H1653.4C1653.64 912.32 1654.57 910.667 1656.2 909.44C1657.82 908.213 1659.9 907.6 1662.44 907.6C1665.13 907.6 1667.25 908.28 1668.8 909.64C1670.37 910.973 1671.16 912.787 1671.16 915.08V930H1666.32V926.16H1665.52L1666.32 925.08C1666.32 926.707 1665.72 928 1664.52 928.96C1663.32 929.92 1661.72 930.4 1659.72 930.4ZM1661.36 926.64C1662.77 926.64 1663.92 926.28 1664.8 925.56C1665.7 924.84 1666.16 923.907 1666.16 922.76V920.08H1660.76C1659.74 920.08 1658.93 920.373 1658.32 920.96C1657.7 921.547 1657.4 922.32 1657.4 923.28C1657.4 924.32 1657.74 925.147 1658.44 925.76C1659.16 926.347 1660.13 926.64 1661.36 926.64ZM1676.22 930V908H1680.3V910.96H1681.14L1680.46 911.68C1680.46 910.453 1680.81 909.467 1681.5 908.72C1682.19 907.973 1683.09 907.6 1684.18 907.6C1685.35 907.6 1686.26 908.08 1686.9 909.04C1687.57 910 1687.9 911.293 1687.9 912.92L1687.02 910.96H1688.38L1687.86 911.68C1687.86 910.453 1688.21 909.467 1688.9 908.72C1689.59 907.973 1690.51 907.6 1691.66 907.6C1693.02 907.6 1694.1 908.107 1694.9 909.12C1695.7 910.133 1696.1 911.507 1696.1 913.24V930H1691.7V913.44C1691.7 912.72 1691.54 912.16 1691.22 911.76C1690.9 911.333 1690.43 911.12 1689.82 911.12C1689.23 911.12 1688.77 911.32 1688.42 911.72C1688.1 912.12 1687.94 912.693 1687.94 913.44V930H1684.34V913.44C1684.34 912.693 1684.18 912.12 1683.86 911.72C1683.54 911.32 1683.07 911.12 1682.46 911.12C1681.85 911.12 1681.38 911.32 1681.06 911.72C1680.77 912.12 1680.62 912.693 1680.62 913.44V930H1676.22ZM1710.17 930.4C1708.3 930.4 1706.67 930.04 1705.29 929.32C1703.9 928.6 1702.82 927.6 1702.05 926.32C1701.3 925.013 1700.93 923.493 1700.93 921.76V916.24C1700.93 914.507 1701.3 913 1702.05 911.72C1702.82 910.413 1703.9 909.4 1705.29 908.68C1706.67 907.96 1708.3 907.6 1710.17 907.6C1712.01 907.6 1713.61 907.96 1714.97 908.68C1716.35 909.4 1717.42 910.413 1718.17 911.72C1718.94 913 1719.33 914.507 1719.33 916.24V920.2H1705.77V921.76C1705.77 923.307 1706.14 924.48 1706.89 925.28C1707.63 926.053 1708.74 926.44 1710.21 926.44C1711.33 926.44 1712.23 926.253 1712.93 925.88C1713.62 925.48 1714.06 924.907 1714.25 924.16H1719.17C1718.79 926.053 1717.78 927.573 1716.13 928.72C1714.5 929.84 1712.51 930.4 1710.17 930.4ZM1714.49 917.4V916.2C1714.49 914.68 1714.13 913.52 1713.41 912.72C1712.69 911.893 1711.61 911.48 1710.17 911.48C1708.73 911.48 1707.63 911.893 1706.89 912.72C1706.14 913.547 1705.77 914.72 1705.77 916.24V917.08L1714.85 917L1714.49 917.4ZM1734.11 914.32C1732.99 914.32 1732.08 914.013 1731.39 913.4C1730.72 912.76 1730.39 911.947 1730.39 910.96C1730.39 909.947 1730.72 909.133 1731.39 908.52C1732.08 907.907 1732.99 907.6 1734.11 907.6C1735.23 907.6 1736.12 907.907 1736.79 908.52C1737.48 909.133 1737.83 909.947 1737.83 910.96C1737.83 911.947 1737.48 912.76 1736.79 913.4C1736.12 914.013 1735.23 914.32 1734.11 914.32ZM1734.11 930.4C1732.99 930.4 1732.08 930.093 1731.39 929.48C1730.72 928.867 1730.39 928.053 1730.39 927.04C1730.39 926.027 1730.72 925.213 1731.39 924.6C1732.08 923.987 1732.99 923.68 1734.11 923.68C1735.23 923.68 1736.12 923.987 1736.79 924.6C1737.48 925.213 1737.83 926.027 1737.83 927.04C1737.83 928.053 1737.48 928.867 1736.79 929.48C1736.12 930.093 1735.23 930.4 1734.11 930.4ZM1773.28 930V900.8H1791.44V905.44H1778.2V913.24H1790.4V917.88H1778.28V930H1773.28ZM1809.42 930C1807.98 930 1806.72 929.707 1805.62 929.12C1804.56 928.533 1803.72 927.707 1803.1 926.64C1802.49 925.547 1802.18 924.293 1802.18 922.88V905.32H1795.14V900.8H1807.18V922.88C1807.18 923.68 1807.41 924.32 1807.86 924.8C1808.34 925.253 1808.98 925.48 1809.78 925.48H1816.42V930H1809.42ZM1830.05 930.4C1827.25 930.4 1825.05 929.627 1823.45 928.08C1821.85 926.507 1821.05 924.373 1821.05 921.68V908H1826.05V921.64C1826.05 923.053 1826.39 924.147 1827.09 924.92C1827.78 925.667 1828.77 926.04 1830.05 926.04C1831.3 926.04 1832.27 925.667 1832.97 924.92C1833.69 924.147 1834.05 923.053 1834.05 921.64V908H1839.05V921.68C1839.05 924.373 1838.23 926.507 1836.61 928.08C1834.98 929.627 1832.79 930.4 1830.05 930.4ZM1845.07 930V925.44H1852.75V912.52H1846.07V908H1857.55V925.44H1864.35V930H1845.07ZM1854.75 904.32C1853.74 904.32 1852.94 904.067 1852.35 903.56C1851.76 903.027 1851.47 902.32 1851.47 901.44C1851.47 900.56 1851.76 899.867 1852.35 899.36C1852.94 898.827 1853.74 898.56 1854.75 898.56C1855.76 898.56 1856.56 898.827 1857.15 899.36C1857.74 899.867 1858.03 900.56 1858.03 901.44C1858.03 902.32 1857.74 903.027 1857.15 903.56C1856.56 904.067 1855.76 904.32 1854.75 904.32ZM1867.46 930L1875.14 918.64L1867.98 908H1873.62L1877.02 913.4C1877.23 913.72 1877.42 914.08 1877.58 914.48C1877.76 914.88 1877.91 915.2 1878.02 915.44C1878.12 915.2 1878.27 914.88 1878.46 914.48C1878.64 914.08 1878.83 913.72 1879.02 913.4L1882.46 908H1888.1L1880.94 918.64L1888.58 930H1882.9L1879.1 923.96C1878.88 923.613 1878.68 923.24 1878.5 922.84C1878.31 922.44 1878.15 922.12 1878.02 921.88C1877.91 922.12 1877.76 922.44 1877.58 922.84C1877.39 923.24 1877.19 923.613 1876.98 923.96L1873.1 930H1867.46Z" fill="#EBDBB2" fill-opacity="0.75"/>
<path d="M1508.49 981V951.8H1514.41L1517.25 961.08C1517.54 962.013 1517.78 962.867 1517.97 963.64C1518.16 964.413 1518.28 964.973 1518.33 965.32C1518.38 964.973 1518.5 964.413 1518.69 963.64C1518.88 962.867 1519.1 962.013 1519.37 961.08L1522.09 951.8H1528.01V981H1523.33V971.92C1523.33 970.587 1523.37 969.133 1523.45 967.56C1523.53 965.987 1523.62 964.413 1523.73 962.84C1523.84 961.267 1523.96 959.773 1524.09 958.36C1524.25 956.947 1524.38 955.707 1524.49 954.64L1520.57 968.44H1516.01L1511.97 954.64C1512.1 955.653 1512.24 956.853 1512.37 958.24C1512.5 959.6 1512.62 961.067 1512.73 962.64C1512.86 964.187 1512.97 965.76 1513.05 967.36C1513.13 968.96 1513.17 970.48 1513.17 971.92V981H1508.49ZM1539.79 981.4C1537.53 981.4 1535.74 980.8 1534.43 979.6C1533.13 978.4 1532.47 976.787 1532.47 974.76C1532.47 972.6 1533.19 970.933 1534.63 969.76C1536.07 968.587 1538.11 968 1540.75 968H1546.23V966.12C1546.23 965.053 1545.89 964.227 1545.19 963.64C1544.5 963.027 1543.55 962.72 1542.35 962.72C1541.26 962.72 1540.35 962.96 1539.63 963.44C1538.91 963.92 1538.49 964.573 1538.35 965.4H1533.47C1533.71 963.32 1534.65 961.667 1536.27 960.44C1537.9 959.213 1539.98 958.6 1542.51 958.6C1545.21 958.6 1547.33 959.28 1548.87 960.64C1550.45 961.973 1551.23 963.787 1551.23 966.08V981H1546.39V977.16H1545.59L1546.39 976.08C1546.39 977.707 1545.79 979 1544.59 979.96C1543.39 980.92 1541.79 981.4 1539.79 981.4ZM1541.43 977.64C1542.85 977.64 1543.99 977.28 1544.87 976.56C1545.78 975.84 1546.23 974.907 1546.23 973.76V971.08H1540.83C1539.82 971.08 1539.01 971.373 1538.39 971.96C1537.78 972.547 1537.47 973.32 1537.47 974.28C1537.47 975.32 1537.82 976.147 1538.51 976.76C1539.23 977.347 1540.21 977.64 1541.43 977.64ZM1565.38 981.36C1563.7 981.36 1562.23 981.093 1560.98 980.56C1559.73 980.027 1558.74 979.293 1558.02 978.36C1557.33 977.4 1556.95 976.28 1556.9 975H1561.9C1561.95 975.693 1562.29 976.253 1562.9 976.68C1563.54 977.107 1564.37 977.32 1565.38 977.32H1567.14C1568.37 977.32 1569.29 977.08 1569.9 976.6C1570.51 976.12 1570.82 975.467 1570.82 974.64C1570.82 973.867 1570.54 973.267 1569.98 972.84C1569.45 972.387 1568.61 972.093 1567.46 971.96L1564.74 971.56C1562.23 971.213 1560.39 970.547 1559.22 969.56C1558.05 968.573 1557.46 967.093 1557.46 965.12C1557.46 963.067 1558.15 961.48 1559.54 960.36C1560.93 959.213 1562.97 958.64 1565.66 958.64H1567.18C1569.63 958.64 1571.59 959.187 1573.06 960.28C1574.53 961.373 1575.31 962.84 1575.42 964.68H1570.42C1570.34 964.093 1570.01 963.613 1569.42 963.24C1568.86 962.867 1568.11 962.68 1567.18 962.68H1565.66C1564.51 962.68 1563.67 962.893 1563.14 963.32C1562.63 963.72 1562.38 964.32 1562.38 965.12C1562.38 965.867 1562.61 966.427 1563.06 966.8C1563.51 967.147 1564.25 967.4 1565.26 967.56L1568.1 967.96C1570.71 968.333 1572.63 969.04 1573.86 970.08C1575.11 971.093 1575.74 972.6 1575.74 974.6C1575.74 976.733 1575.01 978.4 1573.54 979.6C1572.1 980.773 1569.97 981.36 1567.14 981.36H1565.38ZM1589.36 981.36C1587.68 981.36 1586.22 981.093 1584.96 980.56C1583.71 980.027 1582.72 979.293 1582 978.36C1581.31 977.4 1580.94 976.28 1580.88 975H1585.88C1585.94 975.693 1586.27 976.253 1586.88 976.68C1587.52 977.107 1588.35 977.32 1589.36 977.32H1591.12C1592.35 977.32 1593.27 977.08 1593.88 976.6C1594.5 976.12 1594.8 975.467 1594.8 974.64C1594.8 973.867 1594.52 973.267 1593.96 972.84C1593.43 972.387 1592.59 972.093 1591.44 971.96L1588.72 971.56C1586.22 971.213 1584.38 970.547 1583.2 969.56C1582.03 968.573 1581.44 967.093 1581.44 965.12C1581.44 963.067 1582.14 961.48 1583.52 960.36C1584.91 959.213 1586.95 958.64 1589.64 958.64H1591.16C1593.62 958.64 1595.58 959.187 1597.04 960.28C1598.51 961.373 1599.3 962.84 1599.4 964.68H1594.4C1594.32 964.093 1593.99 963.613 1593.4 963.24C1592.84 962.867 1592.1 962.68 1591.16 962.68H1589.64C1588.5 962.68 1587.66 962.893 1587.12 963.32C1586.62 963.72 1586.36 964.32 1586.36 965.12C1586.36 965.867 1586.59 966.427 1587.04 966.8C1587.5 967.147 1588.23 967.4 1589.24 967.56L1592.08 967.96C1594.7 968.333 1596.62 969.04 1597.84 970.08C1599.1 971.093 1599.72 972.6 1599.72 974.6C1599.72 976.733 1598.99 978.4 1597.52 979.6C1596.08 980.773 1593.95 981.36 1591.12 981.36H1589.36ZM1614.19 965.32C1613.07 965.32 1612.16 965.013 1611.47 964.4C1610.8 963.76 1610.47 962.947 1610.47 961.96C1610.47 960.947 1610.8 960.133 1611.47 959.52C1612.16 958.907 1613.07 958.6 1614.19 958.6C1615.31 958.6 1616.2 958.907 1616.87 959.52C1617.56 960.133 1617.91 960.947 1617.91 961.96C1617.91 962.947 1617.56 963.76 1616.87 964.4C1616.2 965.013 1615.31 965.32 1614.19 965.32ZM1614.19 981.4C1613.07 981.4 1612.16 981.093 1611.47 980.48C1610.8 979.867 1610.47 979.053 1610.47 978.04C1610.47 977.027 1610.8 976.213 1611.47 975.6C1612.16 974.987 1613.07 974.68 1614.19 974.68C1615.31 974.68 1616.2 974.987 1616.87 975.6C1617.56 976.213 1617.91 977.027 1617.91 978.04C1617.91 979.053 1617.56 979.867 1616.87 980.48C1616.2 981.093 1615.31 981.4 1614.19 981.4ZM1661.88 981.4C1659.98 981.4 1658.33 981.053 1656.92 980.36C1655.53 979.667 1654.45 978.693 1653.68 977.44C1652.9 976.187 1652.52 974.707 1652.52 973H1657.56C1657.56 974.307 1657.93 975.333 1658.68 976.08C1659.45 976.8 1660.53 977.16 1661.92 977.16C1663.3 977.16 1664.37 976.787 1665.12 976.04C1665.86 975.293 1666.24 974.28 1666.24 973V970.72C1666.24 969.413 1665.86 968.4 1665.12 967.68C1664.37 966.933 1663.3 966.56 1661.92 966.56H1658.64V962.04L1665.08 956.08H1653.84V951.8H1670.16V956.32L1661.92 963.88V962.28C1664.8 962.28 1667.08 963.04 1668.76 964.56C1670.44 966.08 1671.28 968.133 1671.28 970.72V973C1671.28 974.707 1670.89 976.187 1670.12 977.44C1669.34 978.693 1668.25 979.667 1666.84 980.36C1665.42 981.053 1663.77 981.4 1661.88 981.4ZM1686.14 981.4C1684.99 981.4 1684.07 981.067 1683.38 980.4C1682.71 979.733 1682.38 978.827 1682.38 977.68C1682.38 976.533 1682.71 975.627 1683.38 974.96C1684.07 974.267 1684.99 973.92 1686.14 973.92C1687.29 973.92 1688.19 974.267 1688.86 974.96C1689.55 975.627 1689.9 976.533 1689.9 977.68C1689.9 978.827 1689.55 979.733 1688.86 980.4C1688.19 981.067 1687.29 981.4 1686.14 981.4ZM1709.85 981.4C1707.95 981.4 1706.3 981.053 1704.89 980.36C1703.5 979.667 1702.42 978.693 1701.65 977.44C1700.87 976.187 1700.49 974.707 1700.49 973H1705.53C1705.53 974.307 1705.9 975.333 1706.65 976.08C1707.42 976.8 1708.5 977.16 1709.88 977.16C1711.27 977.16 1712.34 976.787 1713.09 976.04C1713.83 975.293 1714.21 974.28 1714.21 973V970.72C1714.21 969.413 1713.83 968.4 1713.09 967.68C1712.34 966.933 1711.27 966.56 1709.88 966.56H1706.61V962.04L1713.05 956.08H1701.81V951.8H1718.12V956.32L1709.88 963.88V962.28C1712.77 962.28 1715.05 963.04 1716.73 964.56C1718.41 966.08 1719.24 968.133 1719.24 970.72V973C1719.24 974.707 1718.86 976.187 1718.09 977.44C1717.31 978.693 1716.22 979.667 1714.81 980.36C1713.39 981.053 1711.74 981.4 1709.85 981.4ZM1725.47 981V976.6H1733.07V956.24L1725.43 961.92V956.64L1732.15 951.8H1738.07V976.6H1744.19V981H1725.47ZM1772.32 981V951.8H1778.24L1781.08 961.08C1781.37 962.013 1781.61 962.867 1781.8 963.64C1781.98 964.413 1782.1 964.973 1782.16 965.32C1782.21 964.973 1782.33 964.413 1782.52 963.64C1782.7 962.867 1782.93 962.013 1783.2 961.08L1785.92 951.8H1791.84V981H1787.16V971.92C1787.16 970.587 1787.2 969.133 1787.28 967.56C1787.36 965.987 1787.45 964.413 1787.56 962.84C1787.66 961.267 1787.78 959.773 1787.92 958.36C1788.08 956.947 1788.21 955.707 1788.32 954.64L1784.4 968.44H1779.84L1775.8 954.64C1775.93 955.653 1776.06 956.853 1776.2 958.24C1776.33 959.6 1776.45 961.067 1776.56 962.64C1776.69 964.187 1776.8 965.76 1776.88 967.36C1776.96 968.96 1777 970.48 1777 971.92V981H1772.32ZM1806.06 981.36C1804.2 981.36 1802.57 981.013 1801.18 980.32C1799.82 979.6 1798.76 978.6 1797.98 977.32C1797.24 976.013 1796.86 974.48 1796.86 972.72V967.28C1796.86 965.52 1797.24 964 1797.98 962.72C1798.76 961.413 1799.82 960.413 1801.18 959.72C1802.57 959 1804.2 958.64 1806.06 958.64C1807.96 958.64 1809.58 959 1810.94 959.72C1812.3 960.413 1813.36 961.413 1814.1 962.72C1814.88 964 1815.26 965.507 1815.26 967.24V972.72C1815.26 974.48 1814.88 976.013 1814.1 977.32C1813.36 978.6 1812.3 979.6 1810.94 980.32C1809.58 981.013 1807.96 981.36 1806.06 981.36ZM1806.06 977C1807.4 977 1808.42 976.64 1809.14 975.92C1809.89 975.173 1810.26 974.107 1810.26 972.72V967.28C1810.26 965.867 1809.89 964.8 1809.14 964.08C1808.42 963.36 1807.4 963 1806.06 963C1804.76 963 1803.73 963.36 1802.98 964.08C1802.24 964.8 1801.86 965.867 1801.86 967.28V972.72C1801.86 974.107 1802.24 975.173 1802.98 975.92C1803.73 976.64 1804.76 977 1806.06 977ZM1830.05 981.36C1828.18 981.36 1826.55 981.013 1825.17 980.32C1823.81 979.6 1822.74 978.6 1821.97 977.32C1821.22 976.013 1820.85 974.48 1820.85 972.72V967.28C1820.85 965.52 1821.22 964 1821.97 962.72C1822.74 961.413 1823.81 960.413 1825.17 959.72C1826.55 959 1828.18 958.64 1830.05 958.64C1831.94 958.64 1833.57 959 1834.93 959.72C1836.29 960.413 1837.34 961.413 1838.09 962.72C1838.86 964 1839.25 965.507 1839.25 967.24V972.72C1839.25 974.48 1838.86 976.013 1838.09 977.32C1837.34 978.6 1836.29 979.6 1834.93 980.32C1833.57 981.013 1831.94 981.36 1830.05 981.36ZM1830.05 977C1831.38 977 1832.41 976.64 1833.13 975.92C1833.87 975.173 1834.25 974.107 1834.25 972.72V967.28C1834.25 965.867 1833.87 964.8 1833.13 964.08C1832.41 963.36 1831.38 963 1830.05 963C1828.74 963 1827.71 963.36 1826.97 964.08C1826.22 964.8 1825.85 965.867 1825.85 967.28V972.72C1825.85 974.107 1826.22 975.173 1826.97 975.92C1827.71 976.64 1828.74 977 1830.05 977ZM1845.11 981V959H1849.99V963.2H1851.35L1849.99 964.36C1849.99 962.547 1850.51 961.133 1851.55 960.12C1852.62 959.107 1854.07 958.6 1855.91 958.6C1858.07 958.6 1859.79 959.32 1861.07 960.76C1862.38 962.2 1863.03 964.133 1863.03 966.56V981H1858.03V967.08C1858.03 965.747 1857.68 964.72 1856.99 964C1856.3 963.28 1855.32 962.92 1854.07 962.92C1852.84 962.92 1851.87 963.293 1851.15 964.04C1850.46 964.787 1850.11 965.853 1850.11 967.24V981H1845.11ZM1877.18 981.36C1875.5 981.36 1874.03 981.093 1872.78 980.56C1871.52 980.027 1870.54 979.293 1869.82 978.36C1869.12 977.4 1868.75 976.28 1868.7 975H1873.7C1873.75 975.693 1874.08 976.253 1874.7 976.68C1875.34 977.107 1876.16 977.32 1877.18 977.32H1878.94C1880.16 977.32 1881.08 977.08 1881.7 976.6C1882.31 976.12 1882.62 975.467 1882.62 974.64C1882.62 973.867 1882.34 973.267 1881.78 972.84C1881.24 972.387 1880.4 972.093 1879.26 971.96L1876.54 971.56C1874.03 971.213 1872.19 970.547 1871.02 969.56C1869.84 968.573 1869.26 967.093 1869.26 965.12C1869.26 963.067 1869.95 961.48 1871.34 960.36C1872.72 959.213 1874.76 958.64 1877.46 958.64H1878.98C1881.43 958.64 1883.39 959.187 1884.86 960.28C1886.32 961.373 1887.11 962.84 1887.22 964.68H1882.22C1882.14 964.093 1881.8 963.613 1881.22 963.24C1880.66 962.867 1879.91 962.68 1878.98 962.68H1877.46C1876.31 962.68 1875.47 962.893 1874.94 963.32C1874.43 963.72 1874.18 964.32 1874.18 965.12C1874.18 965.867 1874.4 966.427 1874.86 966.8C1875.31 967.147 1876.04 967.4 1877.06 967.56L1879.9 967.96C1882.51 968.333 1884.43 969.04 1885.66 970.08C1886.91 971.093 1887.54 972.6 1887.54 974.6C1887.54 976.733 1886.8 978.4 1885.34 979.6C1883.9 980.773 1881.76 981.36 1878.94 981.36H1877.18Z" fill="#EBDBB2" fill-opacity="0.75"/>
<path d="M1734.27 1032.4C1732.4 1032.4 1730.76 1032.05 1729.35 1031.36C1727.96 1030.64 1726.88 1029.64 1726.11 1028.36C1725.36 1027.05 1724.99 1025.52 1724.99 1023.76V1011.04C1724.99 1009.25 1725.36 1007.72 1726.11 1006.44C1726.88 1005.16 1727.96 1004.17 1729.35 1003.48C1730.76 1002.76 1732.4 1002.4 1734.27 1002.4C1736.16 1002.4 1737.79 1002.76 1739.15 1003.48C1740.54 1004.17 1741.62 1005.16 1742.39 1006.44C1743.16 1007.72 1743.55 1009.25 1743.55 1011.04H1738.51C1738.51 1009.65 1738.14 1008.6 1737.39 1007.88C1736.67 1007.16 1735.63 1006.8 1734.27 1006.8C1732.91 1006.8 1731.86 1007.16 1731.11 1007.88C1730.36 1008.6 1729.99 1009.64 1729.99 1011V1023.76C1729.99 1025.12 1730.36 1026.17 1731.11 1026.92C1731.86 1027.64 1732.91 1028 1734.27 1028C1735.63 1028 1736.67 1027.64 1737.39 1026.92C1738.14 1026.17 1738.51 1025.12 1738.51 1023.76H1743.55C1743.55 1025.49 1743.16 1027.01 1742.39 1028.32C1741.62 1029.63 1740.54 1030.64 1739.15 1031.36C1737.79 1032.05 1736.16 1032.4 1734.27 1032.4ZM1758.09 1032.4C1756.23 1032.4 1754.6 1032.05 1753.21 1031.36C1751.85 1030.64 1750.8 1029.64 1750.05 1028.36C1749.33 1027.05 1748.97 1025.52 1748.97 1023.76V1011.04C1748.97 1009.28 1749.33 1007.76 1750.05 1006.48C1750.8 1005.17 1751.85 1004.17 1753.21 1003.48C1754.6 1002.76 1756.23 1002.4 1758.09 1002.4C1759.99 1002.4 1761.61 1002.76 1762.97 1003.48C1764.33 1004.17 1765.37 1005.17 1766.09 1006.48C1766.84 1007.76 1767.21 1009.27 1767.21 1011V1023.76C1767.21 1025.52 1766.84 1027.05 1766.09 1028.36C1765.37 1029.64 1764.33 1030.64 1762.97 1031.36C1761.61 1032.05 1759.99 1032.4 1758.09 1032.4ZM1758.09 1028C1759.45 1028 1760.48 1027.64 1761.17 1026.92C1761.87 1026.17 1762.21 1025.12 1762.21 1023.76V1011.04C1762.21 1009.65 1761.87 1008.6 1761.17 1007.88C1760.48 1007.16 1759.45 1006.8 1758.09 1006.8C1756.73 1006.8 1755.71 1007.16 1755.01 1007.88C1754.32 1008.6 1753.97 1009.65 1753.97 1011.04V1023.76C1753.97 1025.12 1754.32 1026.17 1755.01 1026.92C1755.73 1027.64 1756.76 1028 1758.09 1028ZM1776.4 1036.4V1032.68L1783.16 1027.92C1783.69 1027.57 1784.1 1027.12 1784.4 1026.56C1784.72 1025.97 1784.88 1025.39 1784.88 1024.8C1784.88 1023.92 1784.62 1023.23 1784.12 1022.72C1783.61 1022.21 1782.93 1021.96 1782.08 1021.96C1781.25 1021.96 1780.57 1022.21 1780.04 1022.72C1779.53 1023.23 1779.28 1023.92 1779.28 1024.8H1775.92C1775.94 1023.04 1776.52 1021.64 1777.64 1020.6C1778.76 1019.53 1780.24 1019 1782.08 1019C1783.97 1019 1785.48 1019.52 1786.6 1020.56C1787.72 1021.6 1788.28 1023 1788.28 1024.76C1788.28 1025.75 1787.97 1026.73 1787.36 1027.72C1786.74 1028.71 1785.92 1029.55 1784.88 1030.24L1780.2 1033.4H1788.6V1036.4H1776.4ZM1830.13 1032.4C1828.13 1032.4 1826.39 1032.07 1824.93 1031.4C1823.46 1030.73 1822.33 1029.79 1821.53 1028.56C1820.75 1027.31 1820.35 1025.84 1820.33 1024.16H1825.33C1825.33 1025.36 1825.75 1026.31 1826.61 1027C1827.49 1027.67 1828.67 1028 1830.17 1028C1831.61 1028 1832.73 1027.67 1833.53 1027C1834.35 1026.33 1834.77 1025.41 1834.77 1024.24C1834.77 1023.25 1834.47 1022.4 1833.89 1021.68C1833.33 1020.93 1832.51 1020.43 1831.45 1020.16L1828.09 1019.24C1825.79 1018.65 1824.02 1017.6 1822.77 1016.08C1821.54 1014.56 1820.93 1012.72 1820.93 1010.56C1820.93 1008.91 1821.3 1007.47 1822.05 1006.24C1822.79 1005.01 1823.85 1004.07 1825.21 1003.4C1826.59 1002.73 1828.22 1002.4 1830.09 1002.4C1832.91 1002.4 1835.15 1003.13 1836.81 1004.6C1838.46 1006.04 1839.3 1007.99 1839.33 1010.44H1834.33C1834.33 1009.29 1833.95 1008.4 1833.21 1007.76C1832.46 1007.09 1831.41 1006.76 1830.05 1006.76C1828.74 1006.76 1827.73 1007.07 1827.01 1007.68C1826.29 1008.29 1825.93 1009.16 1825.93 1010.28C1825.93 1011.29 1826.19 1012.16 1826.73 1012.88C1827.29 1013.57 1828.09 1014.07 1829.13 1014.36L1832.61 1015.32C1834.93 1015.91 1836.7 1016.96 1837.93 1018.48C1839.15 1019.97 1839.77 1021.83 1839.77 1024.04C1839.77 1025.69 1839.37 1027.16 1838.57 1028.44C1837.77 1029.69 1836.65 1030.67 1835.21 1031.36C1833.77 1032.05 1832.07 1032.4 1830.13 1032.4ZM1854.03 1032.4C1852.16 1032.4 1850.54 1032.05 1849.15 1031.36C1847.79 1030.64 1846.74 1029.64 1845.99 1028.36C1845.27 1027.05 1844.91 1025.52 1844.91 1023.76V1011.04C1844.91 1009.28 1845.27 1007.76 1845.99 1006.48C1846.74 1005.17 1847.79 1004.17 1849.15 1003.48C1850.54 1002.76 1852.16 1002.4 1854.03 1002.4C1855.92 1002.4 1857.55 1002.76 1858.91 1003.48C1860.27 1004.17 1861.31 1005.17 1862.03 1006.48C1862.78 1007.76 1863.15 1009.27 1863.15 1011V1023.76C1863.15 1025.52 1862.78 1027.05 1862.03 1028.36C1861.31 1029.64 1860.27 1030.64 1858.91 1031.36C1857.55 1032.05 1855.92 1032.4 1854.03 1032.4ZM1854.03 1028C1855.39 1028 1856.42 1027.64 1857.11 1026.92C1857.8 1026.17 1858.15 1025.12 1858.15 1023.76V1011.04C1858.15 1009.65 1857.8 1008.6 1857.11 1007.88C1856.42 1007.16 1855.39 1006.8 1854.03 1006.8C1852.67 1006.8 1851.64 1007.16 1850.95 1007.88C1850.26 1008.6 1849.91 1009.65 1849.91 1011.04V1023.76C1849.91 1025.12 1850.26 1026.17 1850.95 1026.92C1851.67 1027.64 1852.7 1028 1854.03 1028ZM1872.34 1036.4V1032.68L1879.1 1027.92C1879.63 1027.57 1880.04 1027.12 1880.34 1026.56C1880.66 1025.97 1880.82 1025.39 1880.82 1024.8C1880.82 1023.92 1880.56 1023.23 1880.06 1022.72C1879.55 1022.21 1878.87 1021.96 1878.02 1021.96C1877.19 1021.96 1876.51 1022.21 1875.98 1022.72C1875.47 1023.23 1875.22 1023.92 1875.22 1024.8H1871.86C1871.88 1023.04 1872.46 1021.64 1873.58 1020.6C1874.7 1019.53 1876.18 1019 1878.02 1019C1879.91 1019 1881.42 1019.52 1882.54 1020.56C1883.66 1021.6 1884.22 1023 1884.22 1024.76C1884.22 1025.75 1883.91 1026.73 1883.3 1027.72C1882.68 1028.71 1881.86 1029.55 1880.82 1030.24L1876.14 1033.4H1884.54V1036.4H1872.34Z" fill="#EBDBB2" fill-opacity="0.75"/>
<path d="M33.08 1038V1008.8H38.08V1020.52H45.92V1008.8H50.92V1038H45.92V1025.16H38.08V1038H33.08ZM72.3844 1038.36C70.5177 1038.36 68.891 1038.01 67.5044 1037.32C66.1444 1036.6 65.0777 1035.6 64.3044 1034.32C63.5577 1033.01 63.1844 1031.48 63.1844 1029.72V1024.28C63.1844 1022.52 63.5577 1021 64.3044 1019.72C65.0777 1018.41 66.1444 1017.41 67.5044 1016.72C68.891 1016 70.5177 1015.64 72.3844 1015.64C74.2777 1015.64 75.9044 1016 77.2644 1016.72C78.6244 1017.41 79.6777 1018.41 80.4244 1019.72C81.1977 1021 81.5844 1022.51 81.5844 1024.24V1029.72C81.5844 1031.48 81.1977 1033.01 80.4244 1034.32C79.6777 1035.6 78.6244 1036.6 77.2644 1037.32C75.9044 1038.01 74.2777 1038.36 72.3844 1038.36ZM72.3844 1034C73.7177 1034 74.7444 1033.64 75.4644 1032.92C76.211 1032.17 76.5844 1031.11 76.5844 1029.72V1024.28C76.5844 1022.87 76.211 1021.8 75.4644 1021.08C74.7444 1020.36 73.7177 1020 72.3844 1020C71.0777 1020 70.051 1020.36 69.3044 1021.08C68.5577 1021.8 68.1844 1022.87 68.1844 1024.28V1029.72C68.1844 1031.11 68.5577 1032.17 69.3044 1032.92C70.051 1033.64 71.0777 1034 72.3844 1034ZM101.929 1038.36C100.249 1038.36 98.7821 1038.09 97.5287 1037.56C96.2754 1037.03 95.2887 1036.29 94.5687 1035.36C93.8754 1034.4 93.5021 1033.28 93.4487 1032H98.4487C98.5021 1032.69 98.8354 1033.25 99.4487 1033.68C100.089 1034.11 100.915 1034.32 101.929 1034.32H103.689C104.915 1034.32 105.835 1034.08 106.449 1033.6C107.062 1033.12 107.369 1032.47 107.369 1031.64C107.369 1030.87 107.089 1030.27 106.529 1029.84C105.995 1029.39 105.155 1029.09 104.009 1028.96L101.289 1028.56C98.7821 1028.21 96.9421 1027.55 95.7687 1026.56C94.5954 1025.57 94.0087 1024.09 94.0087 1022.12C94.0087 1020.07 94.7021 1018.48 96.0887 1017.36C97.4754 1016.21 99.5154 1015.64 102.209 1015.64H103.729C106.182 1015.64 108.142 1016.19 109.609 1017.28C111.075 1018.37 111.862 1019.84 111.969 1021.68H106.969C106.889 1021.09 106.555 1020.61 105.969 1020.24C105.409 1019.87 104.662 1019.68 103.729 1019.68H102.209C101.062 1019.68 100.222 1019.89 99.6887 1020.32C99.1821 1020.72 98.9287 1021.32 98.9287 1022.12C98.9287 1022.87 99.1554 1023.43 99.6087 1023.8C100.062 1024.15 100.795 1024.4 101.809 1024.56L104.649 1024.96C107.262 1025.33 109.182 1026.04 110.409 1027.08C111.662 1028.09 112.289 1029.6 112.289 1031.6C112.289 1033.73 111.555 1035.4 110.089 1036.6C108.649 1037.77 106.515 1038.36 103.689 1038.36H101.929ZM135.553 1038C133.446 1038 131.793 1037.41 130.593 1036.24C129.42 1035.07 128.833 1033.45 128.833 1031.4V1020.52H122.873V1016H128.833V1009.8H133.873V1016H142.313V1020.52H133.873V1031.4C133.873 1032.79 134.553 1033.48 135.913 1033.48H141.913V1038H135.553ZM193.882 1019.4L199.082 1006.96H203.442L200.242 1019.4H193.882ZM184.002 1019.4L189.202 1006.96H193.562L190.362 1019.4H184.002ZM213.706 1038L221.066 1008.8H227.506L234.906 1038H229.786L228.186 1030.92H220.426L218.826 1038H213.706ZM221.346 1026.84H227.266L225.506 1019C225.213 1017.69 224.96 1016.52 224.746 1015.48C224.533 1014.41 224.386 1013.64 224.306 1013.16C224.226 1013.64 224.08 1014.41 223.866 1015.48C223.68 1016.52 223.426 1017.68 223.106 1018.96L221.346 1026.84ZM254.731 1038.4C252.864 1038.4 251.237 1038.04 249.851 1037.32C248.464 1036.6 247.384 1035.6 246.611 1034.32C245.864 1033.01 245.491 1031.49 245.491 1029.76V1024.24C245.491 1022.51 245.864 1021 246.611 1019.72C247.384 1018.41 248.464 1017.4 249.851 1016.68C251.237 1015.96 252.864 1015.6 254.731 1015.6C256.571 1015.6 258.171 1015.96 259.531 1016.68C260.917 1017.4 261.984 1018.41 262.731 1019.72C263.504 1021 263.891 1022.51 263.891 1024.24V1028.2H250.331V1029.76C250.331 1031.31 250.704 1032.48 251.451 1033.28C252.197 1034.05 253.304 1034.44 254.771 1034.44C255.891 1034.44 256.797 1034.25 257.491 1033.88C258.184 1033.48 258.624 1032.91 258.811 1032.16H263.731C263.357 1034.05 262.344 1035.57 260.691 1036.72C259.064 1037.84 257.077 1038.4 254.731 1038.4ZM259.051 1025.4V1024.2C259.051 1022.68 258.691 1021.52 257.971 1020.72C257.251 1019.89 256.171 1019.48 254.731 1019.48C253.291 1019.48 252.197 1019.89 251.451 1020.72C250.704 1021.55 250.331 1022.72 250.331 1024.24V1025.08L259.411 1025L259.051 1025.4ZM287.475 1038C285.368 1038 283.715 1037.41 282.515 1036.24C281.342 1035.07 280.755 1033.45 280.755 1031.4V1020.52H274.795V1016H280.755V1009.8H285.795V1016H294.235V1020.52H285.795V1031.4C285.795 1032.79 286.475 1033.48 287.835 1033.48H293.835V1038H287.475ZM306.539 1038V1008.8H311.539V1016L311.419 1020.2H312.779L311.419 1021.36C311.419 1019.55 311.939 1018.13 312.979 1017.12C314.046 1016.11 315.499 1015.6 317.339 1015.6C319.499 1015.6 321.219 1016.32 322.499 1017.76C323.806 1019.2 324.459 1021.13 324.459 1023.56V1038H319.459V1024.08C319.459 1022.75 319.113 1021.72 318.419 1021C317.726 1020.28 316.753 1019.92 315.499 1019.92C314.273 1019.92 313.299 1020.29 312.579 1021.04C311.886 1021.79 311.539 1022.85 311.539 1024.24V1038H306.539ZM345.884 1038.4C344.017 1038.4 342.39 1038.04 341.004 1037.32C339.617 1036.6 338.537 1035.6 337.764 1034.32C337.017 1033.01 336.644 1031.49 336.644 1029.76V1024.24C336.644 1022.51 337.017 1021 337.764 1019.72C338.537 1018.41 339.617 1017.4 341.004 1016.68C342.39 1015.96 344.017 1015.6 345.884 1015.6C347.724 1015.6 349.324 1015.96 350.684 1016.68C352.07 1017.4 353.137 1018.41 353.884 1019.72C354.657 1021 355.044 1022.51 355.044 1024.24V1028.2H341.484V1029.76C341.484 1031.31 341.857 1032.48 342.604 1033.28C343.35 1034.05 344.457 1034.44 345.924 1034.44C347.044 1034.44 347.95 1034.25 348.644 1033.88C349.337 1033.48 349.777 1032.91 349.964 1032.16H354.884C354.51 1034.05 353.497 1035.57 351.844 1036.72C350.217 1037.84 348.23 1038.4 345.884 1038.4ZM350.204 1025.4V1024.2C350.204 1022.68 349.844 1021.52 349.124 1020.72C348.404 1019.89 347.324 1019.48 345.884 1019.48C344.444 1019.48 343.35 1019.89 342.604 1020.72C341.857 1021.55 341.484 1022.72 341.484 1024.24V1025.08L350.564 1025L350.204 1025.4ZM367.988 1038V1016H372.708V1020.2H373.948L372.468 1022.76C372.468 1020.39 373.001 1018.6 374.068 1017.4C375.135 1016.2 376.708 1015.6 378.788 1015.6C381.161 1015.6 383.028 1016.33 384.388 1017.8C385.748 1019.27 386.428 1021.29 386.428 1023.88V1025.48H381.188V1024.24C381.188 1022.83 380.815 1021.73 380.068 1020.96C379.348 1020.19 378.348 1019.8 377.068 1019.8C375.761 1019.8 374.748 1020.19 374.028 1020.96C373.335 1021.73 372.988 1022.83 372.988 1024.24V1038H367.988ZM406.972 1019.4L410.172 1006.96H416.532L411.332 1019.4H406.972ZM397.092 1019.4L400.292 1006.96H406.652L401.452 1019.4H397.092Z" fill="#EBDBB2"/>
<path d="M32.88 988V958.8H39L47.12 982.4C47.04 981.547 46.9467 980.547 46.84 979.4C46.76 978.227 46.6933 977.04 46.64 975.84C46.5867 974.613 46.56 973.547 46.56 972.64V958.8H51.12V988H45L36.96 964.4C37.0133 965.173 37.08 966.107 37.16 967.2C37.24 968.293 37.3067 969.413 37.36 970.56C37.4133 971.707 37.44 972.76 37.44 973.72V988H32.88ZM63.4244 988V983.44H71.1044V970.52H64.4244V966H75.9044V983.44H82.7044V988H63.4244ZM73.1044 962.32C72.091 962.32 71.291 962.067 70.7044 961.56C70.1177 961.027 69.8244 960.32 69.8244 959.44C69.8244 958.56 70.1177 957.867 70.7044 957.36C71.291 956.827 72.091 956.56 73.1044 956.56C74.1177 956.56 74.9177 956.827 75.5044 957.36C76.091 957.867 76.3844 958.56 76.3844 959.44C76.3844 960.32 76.091 961.027 75.5044 961.56C74.9177 962.067 74.1177 962.32 73.1044 962.32ZM92.2087 988L99.8887 976.64L92.7287 966H98.3687L101.769 971.4C101.982 971.72 102.169 972.08 102.329 972.48C102.515 972.88 102.662 973.2 102.769 973.44C102.875 973.2 103.022 972.88 103.209 972.48C103.395 972.08 103.582 971.72 103.769 971.4L107.209 966H112.849L105.689 976.64L113.329 988H107.649L103.849 981.96C103.635 981.613 103.435 981.24 103.249 980.84C103.062 980.44 102.902 980.12 102.769 979.88C102.662 980.12 102.515 980.44 102.329 980.84C102.142 981.24 101.942 981.613 101.729 981.96L97.8487 988H92.2087ZM133.153 988.4C131.286 988.4 129.66 988.053 128.273 987.36C126.913 986.64 125.86 985.64 125.113 984.36C124.393 983.053 124.033 981.52 124.033 979.76V967.04C124.033 965.28 124.393 963.76 125.113 962.48C125.86 961.173 126.913 960.173 128.273 959.48C129.66 958.76 131.286 958.4 133.153 958.4C135.046 958.4 136.673 958.76 138.033 959.48C139.393 960.173 140.433 961.173 141.153 962.48C141.9 963.76 142.273 965.267 142.273 967V979.76C142.273 981.52 141.9 983.053 141.153 984.36C140.433 985.64 139.393 986.64 138.033 987.36C136.673 988.053 135.046 988.4 133.153 988.4ZM133.153 984C134.513 984 135.54 983.64 136.233 982.92C136.926 982.173 137.273 981.12 137.273 979.76V967.04C137.273 965.653 136.926 964.6 136.233 963.88C135.54 963.16 134.513 962.8 133.153 962.8C131.793 962.8 130.766 963.16 130.073 963.88C129.38 964.6 129.033 965.653 129.033 967.04V979.76C129.033 981.12 129.38 982.173 130.073 982.92C130.793 983.64 131.82 984 133.153 984ZM163.617 988.4C161.617 988.4 159.884 988.067 158.417 987.4C156.951 986.733 155.817 985.787 155.017 984.56C154.244 983.307 153.844 981.84 153.817 980.16H158.817C158.817 981.36 159.244 982.307 160.097 983C160.977 983.667 162.164 984 163.657 984C165.097 984 166.217 983.667 167.017 983C167.844 982.333 168.257 981.413 168.257 980.24C168.257 979.253 167.964 978.4 167.377 977.68C166.817 976.933 166.004 976.427 164.937 976.16L161.577 975.24C159.284 974.653 157.511 973.6 156.257 972.08C155.031 970.56 154.417 968.72 154.417 966.56C154.417 964.907 154.791 963.467 155.537 962.24C156.284 961.013 157.337 960.067 158.697 959.4C160.084 958.733 161.711 958.4 163.577 958.4C166.404 958.4 168.644 959.133 170.297 960.6C171.951 962.04 172.791 963.987 172.817 966.44H167.817C167.817 965.293 167.444 964.4 166.697 963.76C165.951 963.093 164.897 962.76 163.537 962.76C162.231 962.76 161.217 963.067 160.497 963.68C159.777 964.293 159.417 965.16 159.417 966.28C159.417 967.293 159.684 968.16 160.217 968.88C160.777 969.573 161.577 970.067 162.617 970.36L166.097 971.32C168.417 971.907 170.191 972.96 171.417 974.48C172.644 975.973 173.258 977.827 173.258 980.04C173.258 981.693 172.857 983.16 172.057 984.44C171.257 985.693 170.137 986.667 168.697 987.36C167.257 988.053 165.564 988.4 163.617 988.4ZM215.466 988V983.16L224.586 974C225.866 972.693 226.813 971.52 227.426 970.48C228.04 969.413 228.346 968.32 228.346 967.2C228.346 965.84 227.973 964.787 227.226 964.04C226.48 963.267 225.466 962.88 224.186 962.88C222.773 962.88 221.666 963.293 220.866 964.12C220.066 964.92 219.666 966.04 219.666 967.48H214.666C214.693 965.613 215.093 964.013 215.866 962.68C216.666 961.32 217.786 960.267 219.226 959.52C220.666 958.773 222.346 958.4 224.266 958.4C226.106 958.4 227.706 958.747 229.066 959.44C230.426 960.133 231.48 961.107 232.226 962.36C232.973 963.613 233.346 965.107 233.346 966.84C233.346 968.627 232.88 970.373 231.946 972.08C231.04 973.76 229.573 975.573 227.546 977.52L221.466 983.48H233.706V988H215.466ZM258.291 988V982.2H245.291V974.96L256.531 958.8H262.131L250.091 976.28V977.8H258.291V971.2H263.291V988H258.291ZM285.075 988.4C283.928 988.4 283.008 988.067 282.315 987.4C281.648 986.733 281.315 985.827 281.315 984.68C281.315 983.533 281.648 982.627 282.315 981.96C283.008 981.267 283.928 980.92 285.075 980.92C286.222 980.92 287.128 981.267 287.795 981.96C288.488 982.627 288.835 983.533 288.835 984.68C288.835 985.827 288.488 986.733 287.795 987.4C287.128 988.067 286.222 988.4 285.075 988.4ZM306.819 988V983.6H314.419V963.24L306.779 968.92V963.64L313.499 958.8H319.419V983.6H325.539V988H306.819ZM337.204 988V983.6H344.804V963.24L337.164 968.92V963.64L343.884 958.8H349.804V983.6H355.924V988H337.204Z" fill="#EBDBB2"/>
<circle cx="958.482" cy="284.809" r="90.4947" transform="rotate(60 958.482 284.809)" fill="url(#paint2_linear_252_390)"/>
<path fill-rule="evenodd" clip-rule="evenodd" d="M916.563 204.606C926.755 199.27 937.539 196.067 948.385 194.855C919.57 162.003 892.422 144.867 877.691 153.371C854.729 166.628 870.638 237.173 913.226 310.937C955.814 384.701 1008.95 433.751 1031.91 420.494C1046.64 411.989 1045.38 379.91 1031.33 338.529C1024.86 347.316 1016.7 355.054 1006.98 361.212C1007.93 364.6 1008.76 367.868 1009.46 371.001C1010.78 376.84 1011.59 381.848 1012.02 386.039C1008.61 383.569 1004.68 380.364 1000.28 376.304C981.576 359.041 959.42 330.946 939.207 295.937C918.994 260.928 905.742 227.692 900.142 202.864C898.826 197.025 898.017 192.017 897.584 187.826C900.997 190.296 904.929 193.501 909.328 197.561C911.688 199.74 914.103 202.091 916.563 204.606ZM1024.25 392.757C1024.25 392.765 1024.15 392.751 1023.93 392.693C1024.13 392.719 1024.24 392.749 1024.25 392.757ZM897.878 173.881C897.883 173.888 897.854 173.997 897.776 174.185C897.834 173.967 897.873 173.873 897.878 173.881ZM885.359 181.108C885.356 181.1 885.457 181.114 885.674 181.172C885.472 181.146 885.363 181.116 885.359 181.108ZM1011.83 399.68C1011.77 399.898 1011.73 399.992 1011.73 399.985C1011.72 399.977 1011.75 399.868 1011.83 399.68Z" fill="url(#paint3_linear_252_390)"/>
<rect width="1920" height="569" fill="url(#paint4_linear_252_390)" fill-opacity="0.39"/>
</g>
<defs>
<linearGradient id="paint0_linear_252_390" x1="992.758" y1="-201.274" x2="977.785" y2="913.327" gradientUnits="userSpaceOnUse">
<stop stop-color="#83A598"/>
<stop offset="1" stop-color="#282828"/>
</linearGradient>
<linearGradient id="paint1_linear_252_390" x1="1951.5" y1="-2412" x2="302.44" y2="1217.42" gradientUnits="userSpaceOnUse">
<stop stop-color="#A78C67"/>
<stop offset="1" stop-color="#282828"/>
</linearGradient>
<linearGradient id="paint2_linear_252_390" x1="961.57" y1="160.585" x2="957.111" y2="347.3" gradientUnits="userSpaceOnUse">
<stop stop-color="#83A598"/>
<stop offset="1" stop-color="#282828"/>
</linearGradient>
<linearGradient id="paint3_linear_252_390" x1="1036.64" y1="239.193" x2="911.412" y2="311.192" gradientUnits="userSpaceOnUse">
<stop stop-color="#73AA95"/>
<stop offset="1" stop-color="#282828"/>
</linearGradient>
<linearGradient id="paint4_linear_252_390" x1="960" y1="1081.5" x2="960" y2="6.7811e-06" gradientUnits="userSpaceOnUse">
<stop stop-color="#458588"/>
<stop offset="1" stop-color="#282828"/>
</linearGradient>
<clipPath id="clip0_252_390">
<rect width="1920" height="1080" fill="white"/>
</clipPath>
</defs>
</svg>
