<svg width="1920" height="1080" viewBox="0 0 1920 1080" fill="none" xmlns="http://www.w3.org/2000/svg">
<g clip-path="url(#clip0_252_169)">
<rect width="1920" height="1080" fill="white"/>
<rect width="1920" height="1080" fill="url(#paint0_linear_252_169)"/>
<rect width="1920" height="1080" fill="#282828"/>
<path d="M-263 -171.001C336.562 -244.199 908.149 502.147 1228.5 1054.5" stroke="#73AA95" stroke-width="300"/>
<rect y="540" width="1920" height="540" fill="url(#paint1_linear_252_169)"/>
<rect width="1920" height="540" fill="url(#paint2_linear_252_169)" fill-opacity="0.62"/>
<path d="M33.08 1038V1008.8H38.08V1020.52H45.92V1008.8H50.92V1038H45.92V1025.16H38.08V1038H33.08ZM72.3844 1038.36C70.5177 1038.36 68.891 1038.01 67.5044 1037.32C66.1444 1036.6 65.0777 1035.6 64.3044 1034.32C63.5577 1033.01 63.1844 1031.48 63.1844 1029.72V1024.28C63.1844 1022.52 63.5577 1021 64.3044 1019.72C65.0777 1018.41 66.1444 1017.41 67.5044 1016.72C68.891 1016 70.5177 1015.64 72.3844 1015.64C74.2777 1015.64 75.9044 1016 77.2644 1016.72C78.6244 1017.41 79.6777 1018.41 80.4244 1019.72C81.1977 1021 81.5844 1022.51 81.5844 1024.24V1029.72C81.5844 1031.48 81.1977 1033.01 80.4244 1034.32C79.6777 1035.6 78.6244 1036.6 77.2644 1037.32C75.9044 1038.01 74.2777 1038.36 72.3844 1038.36ZM72.3844 1034C73.7177 1034 74.7444 1033.64 75.4644 1032.92C76.211 1032.17 76.5844 1031.11 76.5844 1029.72V1024.28C76.5844 1022.87 76.211 1021.8 75.4644 1021.08C74.7444 1020.36 73.7177 1020 72.3844 1020C71.0777 1020 70.051 1020.36 69.3044 1021.08C68.5577 1021.8 68.1844 1022.87 68.1844 1024.28V1029.72C68.1844 1031.11 68.5577 1032.17 69.3044 1032.92C70.051 1033.64 71.0777 1034 72.3844 1034ZM101.929 1038.36C100.249 1038.36 98.7821 1038.09 97.5287 1037.56C96.2754 1037.03 95.2887 1036.29 94.5687 1035.36C93.8754 1034.4 93.5021 1033.28 93.4487 1032H98.4487C98.5021 1032.69 98.8354 1033.25 99.4487 1033.68C100.089 1034.11 100.915 1034.32 101.929 1034.32H103.689C104.915 1034.32 105.835 1034.08 106.449 1033.6C107.062 1033.12 107.369 1032.47 107.369 1031.64C107.369 1030.87 107.089 1030.27 106.529 1029.84C105.995 1029.39 105.155 1029.09 104.009 1028.96L101.289 1028.56C98.7821 1028.21 96.9421 1027.55 95.7687 1026.56C94.5954 1025.57 94.0087 1024.09 94.0087 1022.12C94.0087 1020.07 94.7021 1018.48 96.0887 1017.36C97.4754 1016.21 99.5154 1015.64 102.209 1015.64H103.729C106.182 1015.64 108.142 1016.19 109.609 1017.28C111.075 1018.37 111.862 1019.84 111.969 1021.68H106.969C106.889 1021.09 106.555 1020.61 105.969 1020.24C105.409 1019.87 104.662 1019.68 103.729 1019.68H102.209C101.062 1019.68 100.222 1019.89 99.6887 1020.32C99.1821 1020.72 98.9287 1021.32 98.9287 1022.12C98.9287 1022.87 99.1554 1023.43 99.6087 1023.8C100.062 1024.15 100.795 1024.4 101.809 1024.56L104.649 1024.96C107.262 1025.33 109.182 1026.04 110.409 1027.08C111.662 1028.09 112.289 1029.6 112.289 1031.6C112.289 1033.73 111.555 1035.4 110.089 1036.6C108.649 1037.77 106.515 1038.36 103.689 1038.36H101.929ZM135.553 1038C133.446 1038 131.793 1037.41 130.593 1036.24C129.42 1035.07 128.833 1033.45 128.833 1031.4V1020.52H122.873V1016H128.833V1009.8H133.873V1016H142.313V1020.52H133.873V1031.4C133.873 1032.79 134.553 1033.48 135.913 1033.48H141.913V1038H135.553ZM193.882 1019.4L199.082 1006.96H203.442L200.242 1019.4H193.882ZM184.002 1019.4L189.202 1006.96H193.562L190.362 1019.4H184.002ZM213.706 1038L221.066 1008.8H227.506L234.906 1038H229.786L228.186 1030.92H220.426L218.826 1038H213.706ZM221.346 1026.84H227.266L225.506 1019C225.213 1017.69 224.96 1016.52 224.746 1015.48C224.533 1014.41 224.386 1013.64 224.306 1013.16C224.226 1013.64 224.08 1014.41 223.866 1015.48C223.68 1016.52 223.426 1017.68 223.106 1018.96L221.346 1026.84ZM254.731 1038.4C252.864 1038.4 251.237 1038.04 249.851 1037.32C248.464 1036.6 247.384 1035.6 246.611 1034.32C245.864 1033.01 245.491 1031.49 245.491 1029.76V1024.24C245.491 1022.51 245.864 1021 246.611 1019.72C247.384 1018.41 248.464 1017.4 249.851 1016.68C251.237 1015.96 252.864 1015.6 254.731 1015.6C256.571 1015.6 258.171 1015.96 259.531 1016.68C260.917 1017.4 261.984 1018.41 262.731 1019.72C263.504 1021 263.891 1022.51 263.891 1024.24V1028.2H250.331V1029.76C250.331 1031.31 250.704 1032.48 251.451 1033.28C252.197 1034.05 253.304 1034.44 254.771 1034.44C255.891 1034.44 256.797 1034.25 257.491 1033.88C258.184 1033.48 258.624 1032.91 258.811 1032.16H263.731C263.357 1034.05 262.344 1035.57 260.691 1036.72C259.064 1037.84 257.077 1038.4 254.731 1038.4ZM259.051 1025.4V1024.2C259.051 1022.68 258.691 1021.52 257.971 1020.72C257.251 1019.89 256.171 1019.48 254.731 1019.48C253.291 1019.48 252.197 1019.89 251.451 1020.72C250.704 1021.55 250.331 1022.72 250.331 1024.24V1025.08L259.411 1025L259.051 1025.4ZM287.475 1038C285.368 1038 283.715 1037.41 282.515 1036.24C281.342 1035.07 280.755 1033.45 280.755 1031.4V1020.52H274.795V1016H280.755V1009.8H285.795V1016H294.235V1020.52H285.795V1031.4C285.795 1032.79 286.475 1033.48 287.835 1033.48H293.835V1038H287.475ZM306.539 1038V1008.8H311.539V1016L311.419 1020.2H312.779L311.419 1021.36C311.419 1019.55 311.939 1018.13 312.979 1017.12C314.046 1016.11 315.499 1015.6 317.339 1015.6C319.499 1015.6 321.219 1016.32 322.499 1017.76C323.806 1019.2 324.459 1021.13 324.459 1023.56V1038H319.459V1024.08C319.459 1022.75 319.113 1021.72 318.419 1021C317.726 1020.28 316.753 1019.92 315.499 1019.92C314.273 1019.92 313.299 1020.29 312.579 1021.04C311.886 1021.79 311.539 1022.85 311.539 1024.24V1038H306.539ZM345.884 1038.4C344.017 1038.4 342.39 1038.04 341.004 1037.32C339.617 1036.6 338.537 1035.6 337.764 1034.32C337.017 1033.01 336.644 1031.49 336.644 1029.76V1024.24C336.644 1022.51 337.017 1021 337.764 1019.72C338.537 1018.41 339.617 1017.4 341.004 1016.68C342.39 1015.96 344.017 1015.6 345.884 1015.6C347.724 1015.6 349.324 1015.96 350.684 1016.68C352.07 1017.4 353.137 1018.41 353.884 1019.72C354.657 1021 355.044 1022.51 355.044 1024.24V1028.2H341.484V1029.76C341.484 1031.31 341.857 1032.48 342.604 1033.28C343.35 1034.05 344.457 1034.44 345.924 1034.44C347.044 1034.44 347.95 1034.25 348.644 1033.88C349.337 1033.48 349.777 1032.91 349.964 1032.16H354.884C354.51 1034.05 353.497 1035.57 351.844 1036.72C350.217 1037.84 348.23 1038.4 345.884 1038.4ZM350.204 1025.4V1024.2C350.204 1022.68 349.844 1021.52 349.124 1020.72C348.404 1019.89 347.324 1019.48 345.884 1019.48C344.444 1019.48 343.35 1019.89 342.604 1020.72C341.857 1021.55 341.484 1022.72 341.484 1024.24V1025.08L350.564 1025L350.204 1025.4ZM367.988 1038V1016H372.708V1020.2H373.948L372.468 1022.76C372.468 1020.39 373.001 1018.6 374.068 1017.4C375.135 1016.2 376.708 1015.6 378.788 1015.6C381.161 1015.6 383.028 1016.33 384.388 1017.8C385.748 1019.27 386.428 1021.29 386.428 1023.88V1025.48H381.188V1024.24C381.188 1022.83 380.815 1021.73 380.068 1020.96C379.348 1020.19 378.348 1019.8 377.068 1019.8C375.761 1019.8 374.748 1020.19 374.028 1020.96C373.335 1021.73 372.988 1022.83 372.988 1024.24V1038H367.988ZM406.972 1019.4L410.172 1006.96H416.532L411.332 1019.4H406.972ZM397.092 1019.4L400.292 1006.96H406.652L401.452 1019.4H397.092Z" fill="#EBDBB2"/>
<path d="M32.88 988V958.8H39L47.12 982.4C47.04 981.547 46.9467 980.547 46.84 979.4C46.76 978.227 46.6933 977.04 46.64 975.84C46.5867 974.613 46.56 973.547 46.56 972.64V958.8H51.12V988H45L36.96 964.4C37.0133 965.173 37.08 966.107 37.16 967.2C37.24 968.293 37.3067 969.413 37.36 970.56C37.4133 971.707 37.44 972.76 37.44 973.72V988H32.88ZM63.4244 988V983.44H71.1044V970.52H64.4244V966H75.9044V983.44H82.7044V988H63.4244ZM73.1044 962.32C72.091 962.32 71.291 962.067 70.7044 961.56C70.1177 961.027 69.8244 960.32 69.8244 959.44C69.8244 958.56 70.1177 957.867 70.7044 957.36C71.291 956.827 72.091 956.56 73.1044 956.56C74.1177 956.56 74.9177 956.827 75.5044 957.36C76.091 957.867 76.3844 958.56 76.3844 959.44C76.3844 960.32 76.091 961.027 75.5044 961.56C74.9177 962.067 74.1177 962.32 73.1044 962.32ZM92.2087 988L99.8887 976.64L92.7287 966H98.3687L101.769 971.4C101.982 971.72 102.169 972.08 102.329 972.48C102.515 972.88 102.662 973.2 102.769 973.44C102.875 973.2 103.022 972.88 103.209 972.48C103.395 972.08 103.582 971.72 103.769 971.4L107.209 966H112.849L105.689 976.64L113.329 988H107.649L103.849 981.96C103.635 981.613 103.435 981.24 103.249 980.84C103.062 980.44 102.902 980.12 102.769 979.88C102.662 980.12 102.515 980.44 102.329 980.84C102.142 981.24 101.942 981.613 101.729 981.96L97.8487 988H92.2087ZM133.153 988.4C131.286 988.4 129.66 988.053 128.273 987.36C126.913 986.64 125.86 985.64 125.113 984.36C124.393 983.053 124.033 981.52 124.033 979.76V967.04C124.033 965.28 124.393 963.76 125.113 962.48C125.86 961.173 126.913 960.173 128.273 959.48C129.66 958.76 131.286 958.4 133.153 958.4C135.046 958.4 136.673 958.76 138.033 959.48C139.393 960.173 140.433 961.173 141.153 962.48C141.9 963.76 142.273 965.267 142.273 967V979.76C142.273 981.52 141.9 983.053 141.153 984.36C140.433 985.64 139.393 986.64 138.033 987.36C136.673 988.053 135.046 988.4 133.153 988.4ZM133.153 984C134.513 984 135.54 983.64 136.233 982.92C136.926 982.173 137.273 981.12 137.273 979.76V967.04C137.273 965.653 136.926 964.6 136.233 963.88C135.54 963.16 134.513 962.8 133.153 962.8C131.793 962.8 130.766 963.16 130.073 963.88C129.38 964.6 129.033 965.653 129.033 967.04V979.76C129.033 981.12 129.38 982.173 130.073 982.92C130.793 983.64 131.82 984 133.153 984ZM163.617 988.4C161.617 988.4 159.884 988.067 158.417 987.4C156.951 986.733 155.817 985.787 155.017 984.56C154.244 983.307 153.844 981.84 153.817 980.16H158.817C158.817 981.36 159.244 982.307 160.097 983C160.977 983.667 162.164 984 163.657 984C165.097 984 166.217 983.667 167.017 983C167.844 982.333 168.257 981.413 168.257 980.24C168.257 979.253 167.964 978.4 167.377 977.68C166.817 976.933 166.004 976.427 164.937 976.16L161.577 975.24C159.284 974.653 157.511 973.6 156.257 972.08C155.031 970.56 154.417 968.72 154.417 966.56C154.417 964.907 154.791 963.467 155.537 962.24C156.284 961.013 157.337 960.067 158.697 959.4C160.084 958.733 161.711 958.4 163.577 958.4C166.404 958.4 168.644 959.133 170.297 960.6C171.951 962.04 172.791 963.987 172.817 966.44H167.817C167.817 965.293 167.444 964.4 166.697 963.76C165.951 963.093 164.897 962.76 163.537 962.76C162.231 962.76 161.217 963.067 160.497 963.68C159.777 964.293 159.417 965.16 159.417 966.28C159.417 967.293 159.684 968.16 160.217 968.88C160.777 969.573 161.577 970.067 162.617 970.36L166.097 971.32C168.417 971.907 170.191 972.96 171.417 974.48C172.644 975.973 173.258 977.827 173.258 980.04C173.258 981.693 172.857 983.16 172.057 984.44C171.257 985.693 170.137 986.667 168.697 987.36C167.257 988.053 165.564 988.4 163.617 988.4ZM215.466 988V983.16L224.586 974C225.866 972.693 226.813 971.52 227.426 970.48C228.04 969.413 228.346 968.32 228.346 967.2C228.346 965.84 227.973 964.787 227.226 964.04C226.48 963.267 225.466 962.88 224.186 962.88C222.773 962.88 221.666 963.293 220.866 964.12C220.066 964.92 219.666 966.04 219.666 967.48H214.666C214.693 965.613 215.093 964.013 215.866 962.68C216.666 961.32 217.786 960.267 219.226 959.52C220.666 958.773 222.346 958.4 224.266 958.4C226.106 958.4 227.706 958.747 229.066 959.44C230.426 960.133 231.48 961.107 232.226 962.36C232.973 963.613 233.346 965.107 233.346 966.84C233.346 968.627 232.88 970.373 231.946 972.08C231.04 973.76 229.573 975.573 227.546 977.52L221.466 983.48H233.706V988H215.466ZM258.291 988V982.2H245.291V974.96L256.531 958.8H262.131L250.091 976.28V977.8H258.291V971.2H263.291V988H258.291ZM285.075 988.4C283.928 988.4 283.008 988.067 282.315 987.4C281.648 986.733 281.315 985.827 281.315 984.68C281.315 983.533 281.648 982.627 282.315 981.96C283.008 981.267 283.928 980.92 285.075 980.92C286.222 980.92 287.128 981.267 287.795 981.96C288.488 982.627 288.835 983.533 288.835 984.68C288.835 985.827 288.488 986.733 287.795 987.4C287.128 988.067 286.222 988.4 285.075 988.4ZM306.819 988V983.6H314.419V963.24L306.779 968.92V963.64L313.499 958.8H319.419V983.6H325.539V988H306.819ZM337.204 988V983.6H344.804V963.24L337.164 968.92V963.64L343.884 958.8H349.804V983.6H355.924V988H337.204Z" fill="#EBDBB2"/>
<path d="M1612 147L1651.1 204.904L1709 244L1651.1 283.096L1612 341L1572.9 283.096L1515 244L1572.9 204.904L1612 147Z" fill="#FABD2F" fill-opacity="0.3"/>
<path d="M1612.07 177.408L1621.62 235.362L1679.57 244.908L1621.62 254.454L1612.07 312.408L1602.53 254.454L1544.57 244.908L1602.53 235.362L1612.07 177.408Z" fill="#FABD2F"/>
</g>
<defs>
<linearGradient id="paint0_linear_252_169" x1="992.758" y1="-201.274" x2="977.785" y2="913.327" gradientUnits="userSpaceOnUse">
<stop stop-color="#83A598"/>
<stop offset="1" stop-color="#282828"/>
</linearGradient>
<linearGradient id="paint1_linear_252_169" x1="992.758" y1="439.363" x2="1072.86" y2="1365.24" gradientUnits="userSpaceOnUse">
<stop stop-color="#83A598"/>
<stop offset="1" stop-color="#282828"/>
</linearGradient>
<linearGradient id="paint2_linear_252_169" x1="991" y1="540" x2="991" y2="204.5" gradientUnits="userSpaceOnUse">
<stop stop-color="#83A598"/>
<stop offset="1" stop-color="#282828"/>
</linearGradient>
<clipPath id="clip0_252_169">
<rect width="1920" height="1080" fill="white"/>
</clipPath>
</defs>
</svg>
