<svg width="1920" height="1080" viewBox="0 0 1920 1080" fill="none" xmlns="http://www.w3.org/2000/svg">
<g clip-path="url(#clip0_252_235)">
<rect width="1920" height="1080" fill="white"/>
<rect width="1920" height="1080" fill="url(#paint0_linear_252_235)"/>
<rect width="1920" height="1080" fill="#282828"/>
<path d="M33.08 1038V1008.8H38.08V1020.52H45.92V1008.8H50.92V1038H45.92V1025.16H38.08V1038H33.08ZM72.3844 1038.36C70.5177 1038.36 68.891 1038.01 67.5044 1037.32C66.1444 1036.6 65.0777 1035.6 64.3044 1034.32C63.5577 1033.01 63.1844 1031.48 63.1844 1029.72V1024.28C63.1844 1022.52 63.5577 1021 64.3044 1019.72C65.0777 1018.41 66.1444 1017.41 67.5044 1016.72C68.891 1016 70.5177 1015.64 72.3844 1015.64C74.2777 1015.64 75.9044 1016 77.2644 1016.72C78.6244 1017.41 79.6777 1018.41 80.4244 1019.72C81.1977 1021 81.5844 1022.51 81.5844 1024.24V1029.72C81.5844 1031.48 81.1977 1033.01 80.4244 1034.32C79.6777 1035.6 78.6244 1036.6 77.2644 1037.32C75.9044 1038.01 74.2777 1038.36 72.3844 1038.36ZM72.3844 1034C73.7177 1034 74.7444 1033.64 75.4644 1032.92C76.211 1032.17 76.5844 1031.11 76.5844 1029.72V1024.28C76.5844 1022.87 76.211 1021.8 75.4644 1021.08C74.7444 1020.36 73.7177 1020 72.3844 1020C71.0777 1020 70.051 1020.36 69.3044 1021.08C68.5577 1021.8 68.1844 1022.87 68.1844 1024.28V1029.72C68.1844 1031.11 68.5577 1032.17 69.3044 1032.92C70.051 1033.64 71.0777 1034 72.3844 1034ZM101.929 1038.36C100.249 1038.36 98.7821 1038.09 97.5287 1037.56C96.2754 1037.03 95.2887 1036.29 94.5687 1035.36C93.8754 1034.4 93.5021 1033.28 93.4487 1032H98.4487C98.5021 1032.69 98.8354 1033.25 99.4487 1033.68C100.089 1034.11 100.915 1034.32 101.929 1034.32H103.689C104.915 1034.32 105.835 1034.08 106.449 1033.6C107.062 1033.12 107.369 1032.47 107.369 1031.64C107.369 1030.87 107.089 1030.27 106.529 1029.84C105.995 1029.39 105.155 1029.09 104.009 1028.96L101.289 1028.56C98.7821 1028.21 96.9421 1027.55 95.7687 1026.56C94.5954 1025.57 94.0087 1024.09 94.0087 1022.12C94.0087 1020.07 94.7021 1018.48 96.0887 1017.36C97.4754 1016.21 99.5154 1015.64 102.209 1015.64H103.729C106.182 1015.64 108.142 1016.19 109.609 1017.28C111.075 1018.37 111.862 1019.84 111.969 1021.68H106.969C106.889 1021.09 106.555 1020.61 105.969 1020.24C105.409 1019.87 104.662 1019.68 103.729 1019.68H102.209C101.062 1019.68 100.222 1019.89 99.6887 1020.32C99.1821 1020.72 98.9287 1021.32 98.9287 1022.12C98.9287 1022.87 99.1554 1023.43 99.6087 1023.8C100.062 1024.15 100.795 1024.4 101.809 1024.56L104.649 1024.96C107.262 1025.33 109.182 1026.04 110.409 1027.08C111.662 1028.09 112.289 1029.6 112.289 1031.6C112.289 1033.73 111.555 1035.4 110.089 1036.6C108.649 1037.77 106.515 1038.36 103.689 1038.36H101.929ZM135.553 1038C133.446 1038 131.793 1037.41 130.593 1036.24C129.42 1035.07 128.833 1033.45 128.833 1031.4V1020.52H122.873V1016H128.833V1009.8H133.873V1016H142.313V1020.52H133.873V1031.4C133.873 1032.79 134.553 1033.48 135.913 1033.48H141.913V1038H135.553ZM193.882 1019.4L199.082 1006.96H203.442L200.242 1019.4H193.882ZM184.002 1019.4L189.202 1006.96H193.562L190.362 1019.4H184.002ZM213.706 1038L221.066 1008.8H227.506L234.906 1038H229.786L228.186 1030.92H220.426L218.826 1038H213.706ZM221.346 1026.84H227.266L225.506 1019C225.213 1017.69 224.96 1016.52 224.746 1015.48C224.533 1014.41 224.386 1013.64 224.306 1013.16C224.226 1013.64 224.08 1014.41 223.866 1015.48C223.68 1016.52 223.426 1017.68 223.106 1018.96L221.346 1026.84ZM254.731 1038.4C252.864 1038.4 251.237 1038.04 249.851 1037.32C248.464 1036.6 247.384 1035.6 246.611 1034.32C245.864 1033.01 245.491 1031.49 245.491 1029.76V1024.24C245.491 1022.51 245.864 1021 246.611 1019.72C247.384 1018.41 248.464 1017.4 249.851 1016.68C251.237 1015.96 252.864 1015.6 254.731 1015.6C256.571 1015.6 258.171 1015.96 259.531 1016.68C260.917 1017.4 261.984 1018.41 262.731 1019.72C263.504 1021 263.891 1022.51 263.891 1024.24V1028.2H250.331V1029.76C250.331 1031.31 250.704 1032.48 251.451 1033.28C252.197 1034.05 253.304 1034.44 254.771 1034.44C255.891 1034.44 256.797 1034.25 257.491 1033.88C258.184 1033.48 258.624 1032.91 258.811 1032.16H263.731C263.357 1034.05 262.344 1035.57 260.691 1036.72C259.064 1037.84 257.077 1038.4 254.731 1038.4ZM259.051 1025.4V1024.2C259.051 1022.68 258.691 1021.52 257.971 1020.72C257.251 1019.89 256.171 1019.48 254.731 1019.48C253.291 1019.48 252.197 1019.89 251.451 1020.72C250.704 1021.55 250.331 1022.72 250.331 1024.24V1025.08L259.411 1025L259.051 1025.4ZM287.475 1038C285.368 1038 283.715 1037.41 282.515 1036.24C281.342 1035.07 280.755 1033.45 280.755 1031.4V1020.52H274.795V1016H280.755V1009.8H285.795V1016H294.235V1020.52H285.795V1031.4C285.795 1032.79 286.475 1033.48 287.835 1033.48H293.835V1038H287.475ZM306.539 1038V1008.8H311.539V1016L311.419 1020.2H312.779L311.419 1021.36C311.419 1019.55 311.939 1018.13 312.979 1017.12C314.046 1016.11 315.499 1015.6 317.339 1015.6C319.499 1015.6 321.219 1016.32 322.499 1017.76C323.806 1019.2 324.459 1021.13 324.459 1023.56V1038H319.459V1024.08C319.459 1022.75 319.113 1021.72 318.419 1021C317.726 1020.28 316.753 1019.92 315.499 1019.92C314.273 1019.92 313.299 1020.29 312.579 1021.04C311.886 1021.79 311.539 1022.85 311.539 1024.24V1038H306.539ZM345.884 1038.4C344.017 1038.4 342.39 1038.04 341.004 1037.32C339.617 1036.6 338.537 1035.6 337.764 1034.32C337.017 1033.01 336.644 1031.49 336.644 1029.76V1024.24C336.644 1022.51 337.017 1021 337.764 1019.72C338.537 1018.41 339.617 1017.4 341.004 1016.68C342.39 1015.96 344.017 1015.6 345.884 1015.6C347.724 1015.6 349.324 1015.96 350.684 1016.68C352.07 1017.4 353.137 1018.41 353.884 1019.72C354.657 1021 355.044 1022.51 355.044 1024.24V1028.2H341.484V1029.76C341.484 1031.31 341.857 1032.48 342.604 1033.28C343.35 1034.05 344.457 1034.44 345.924 1034.44C347.044 1034.44 347.95 1034.25 348.644 1033.88C349.337 1033.48 349.777 1032.91 349.964 1032.16H354.884C354.51 1034.05 353.497 1035.57 351.844 1036.72C350.217 1037.84 348.23 1038.4 345.884 1038.4ZM350.204 1025.4V1024.2C350.204 1022.68 349.844 1021.52 349.124 1020.72C348.404 1019.89 347.324 1019.48 345.884 1019.48C344.444 1019.48 343.35 1019.89 342.604 1020.72C341.857 1021.55 341.484 1022.72 341.484 1024.24V1025.08L350.564 1025L350.204 1025.4ZM367.988 1038V1016H372.708V1020.2H373.948L372.468 1022.76C372.468 1020.39 373.001 1018.6 374.068 1017.4C375.135 1016.2 376.708 1015.6 378.788 1015.6C381.161 1015.6 383.028 1016.33 384.388 1017.8C385.748 1019.27 386.428 1021.29 386.428 1023.88V1025.48H381.188V1024.24C381.188 1022.83 380.815 1021.73 380.068 1020.96C379.348 1020.19 378.348 1019.8 377.068 1019.8C375.761 1019.8 374.748 1020.19 374.028 1020.96C373.335 1021.73 372.988 1022.83 372.988 1024.24V1038H367.988ZM406.972 1019.4L410.172 1006.96H416.532L411.332 1019.4H406.972ZM397.092 1019.4L400.292 1006.96H406.652L401.452 1019.4H397.092Z" fill="#EBDBB2"/>
<path d="M32.88 988V958.8H39L47.12 982.4C47.04 981.547 46.9467 980.547 46.84 979.4C46.76 978.227 46.6933 977.04 46.64 975.84C46.5867 974.613 46.56 973.547 46.56 972.64V958.8H51.12V988H45L36.96 964.4C37.0133 965.173 37.08 966.107 37.16 967.2C37.24 968.293 37.3067 969.413 37.36 970.56C37.4133 971.707 37.44 972.76 37.44 973.72V988H32.88ZM63.4244 988V983.44H71.1044V970.52H64.4244V966H75.9044V983.44H82.7044V988H63.4244ZM73.1044 962.32C72.091 962.32 71.291 962.067 70.7044 961.56C70.1177 961.027 69.8244 960.32 69.8244 959.44C69.8244 958.56 70.1177 957.867 70.7044 957.36C71.291 956.827 72.091 956.56 73.1044 956.56C74.1177 956.56 74.9177 956.827 75.5044 957.36C76.091 957.867 76.3844 958.56 76.3844 959.44C76.3844 960.32 76.091 961.027 75.5044 961.56C74.9177 962.067 74.1177 962.32 73.1044 962.32ZM92.2087 988L99.8887 976.64L92.7287 966H98.3687L101.769 971.4C101.982 971.72 102.169 972.08 102.329 972.48C102.515 972.88 102.662 973.2 102.769 973.44C102.875 973.2 103.022 972.88 103.209 972.48C103.395 972.08 103.582 971.72 103.769 971.4L107.209 966H112.849L105.689 976.64L113.329 988H107.649L103.849 981.96C103.635 981.613 103.435 981.24 103.249 980.84C103.062 980.44 102.902 980.12 102.769 979.88C102.662 980.12 102.515 980.44 102.329 980.84C102.142 981.24 101.942 981.613 101.729 981.96L97.8487 988H92.2087ZM133.153 988.4C131.286 988.4 129.66 988.053 128.273 987.36C126.913 986.64 125.86 985.64 125.113 984.36C124.393 983.053 124.033 981.52 124.033 979.76V967.04C124.033 965.28 124.393 963.76 125.113 962.48C125.86 961.173 126.913 960.173 128.273 959.48C129.66 958.76 131.286 958.4 133.153 958.4C135.046 958.4 136.673 958.76 138.033 959.48C139.393 960.173 140.433 961.173 141.153 962.48C141.9 963.76 142.273 965.267 142.273 967V979.76C142.273 981.52 141.9 983.053 141.153 984.36C140.433 985.64 139.393 986.64 138.033 987.36C136.673 988.053 135.046 988.4 133.153 988.4ZM133.153 984C134.513 984 135.54 983.64 136.233 982.92C136.926 982.173 137.273 981.12 137.273 979.76V967.04C137.273 965.653 136.926 964.6 136.233 963.88C135.54 963.16 134.513 962.8 133.153 962.8C131.793 962.8 130.766 963.16 130.073 963.88C129.38 964.6 129.033 965.653 129.033 967.04V979.76C129.033 981.12 129.38 982.173 130.073 982.92C130.793 983.64 131.82 984 133.153 984ZM163.617 988.4C161.617 988.4 159.884 988.067 158.417 987.4C156.951 986.733 155.817 985.787 155.017 984.56C154.244 983.307 153.844 981.84 153.817 980.16H158.817C158.817 981.36 159.244 982.307 160.097 983C160.977 983.667 162.164 984 163.657 984C165.097 984 166.217 983.667 167.017 983C167.844 982.333 168.257 981.413 168.257 980.24C168.257 979.253 167.964 978.4 167.377 977.68C166.817 976.933 166.004 976.427 164.937 976.16L161.577 975.24C159.284 974.653 157.511 973.6 156.257 972.08C155.031 970.56 154.417 968.72 154.417 966.56C154.417 964.907 154.791 963.467 155.537 962.24C156.284 961.013 157.337 960.067 158.697 959.4C160.084 958.733 161.711 958.4 163.577 958.4C166.404 958.4 168.644 959.133 170.297 960.6C171.951 962.04 172.791 963.987 172.817 966.44H167.817C167.817 965.293 167.444 964.4 166.697 963.76C165.951 963.093 164.897 962.76 163.537 962.76C162.231 962.76 161.217 963.067 160.497 963.68C159.777 964.293 159.417 965.16 159.417 966.28C159.417 967.293 159.684 968.16 160.217 968.88C160.777 969.573 161.577 970.067 162.617 970.36L166.097 971.32C168.417 971.907 170.191 972.96 171.417 974.48C172.644 975.973 173.258 977.827 173.258 980.04C173.258 981.693 172.857 983.16 172.057 984.44C171.257 985.693 170.137 986.667 168.697 987.36C167.257 988.053 165.564 988.4 163.617 988.4ZM215.466 988V983.16L224.586 974C225.866 972.693 226.813 971.52 227.426 970.48C228.04 969.413 228.346 968.32 228.346 967.2C228.346 965.84 227.973 964.787 227.226 964.04C226.48 963.267 225.466 962.88 224.186 962.88C222.773 962.88 221.666 963.293 220.866 964.12C220.066 964.92 219.666 966.04 219.666 967.48H214.666C214.693 965.613 215.093 964.013 215.866 962.68C216.666 961.32 217.786 960.267 219.226 959.52C220.666 958.773 222.346 958.4 224.266 958.4C226.106 958.4 227.706 958.747 229.066 959.44C230.426 960.133 231.48 961.107 232.226 962.36C232.973 963.613 233.346 965.107 233.346 966.84C233.346 968.627 232.88 970.373 231.946 972.08C231.04 973.76 229.573 975.573 227.546 977.52L221.466 983.48H233.706V988H215.466ZM258.291 988V982.2H245.291V974.96L256.531 958.8H262.131L250.091 976.28V977.8H258.291V971.2H263.291V988H258.291ZM285.075 988.4C283.928 988.4 283.008 988.067 282.315 987.4C281.648 986.733 281.315 985.827 281.315 984.68C281.315 983.533 281.648 982.627 282.315 981.96C283.008 981.267 283.928 980.92 285.075 980.92C286.222 980.92 287.128 981.267 287.795 981.96C288.488 982.627 288.835 983.533 288.835 984.68C288.835 985.827 288.488 986.733 287.795 987.4C287.128 988.067 286.222 988.4 285.075 988.4ZM306.819 988V983.6H314.419V963.24L306.779 968.92V963.64L313.499 958.8H319.419V983.6H325.539V988H306.819ZM337.204 988V983.6H344.804V963.24L337.164 968.92V963.64L343.884 958.8H349.804V983.6H355.924V988H337.204Z" fill="#EBDBB2"/>
<circle cx="836.028" cy="540" r="125" fill="url(#paint1_linear_252_235)"/>
<path fill-rule="evenodd" clip-rule="evenodd" d="M711.597 527.998C712.875 514.585 716.272 501.791 721.45 489.953C662.249 501.733 623 522.374 623 545.869C623 582.493 718.376 612.183 836.028 612.183C953.68 612.183 1049.06 582.493 1049.06 545.869C1049.06 522.374 1009.81 501.733 950.607 489.953C955.784 501.791 959.182 514.585 960.459 527.998C966.026 529.383 971.302 530.852 976.259 532.395C990.813 536.926 1001.26 541.673 1008.03 545.869C1001.26 550.064 990.813 554.811 976.259 559.342C941.918 570.032 892.332 577.183 836.028 577.183C779.725 577.183 730.139 570.032 695.797 559.342C681.243 554.811 670.8 550.064 664.023 545.869C670.8 541.673 681.243 536.926 695.797 532.395C700.755 530.852 706.03 529.383 711.597 527.998ZM1015.54 539.95C1015.55 539.951 1015.49 540.045 1015.33 540.231C1015.45 540.042 1015.52 539.949 1015.54 539.95ZM656.521 539.95C656.531 539.949 656.61 540.042 656.726 540.231C656.569 540.045 656.511 539.951 656.521 539.95ZM656.521 551.787C656.511 551.786 656.569 551.692 656.726 551.506C656.61 551.695 656.531 551.788 656.521 551.787ZM1015.33 551.506C1015.49 551.692 1015.55 551.786 1015.54 551.787C1015.52 551.788 1015.45 551.695 1015.33 551.506Z" fill="url(#paint2_linear_252_235)"/>
<ellipse cx="1088" cy="540.5" rx="26" ry="25.5" fill="url(#paint3_linear_252_235)"/>
<circle cx="1159" cy="540" r="32" fill="url(#paint4_linear_252_235)"/>
<path d="M1250.5 589C1277.81 589 1300 567.092 1300 540C1300 512.908 1277.81 491 1250.5 491C1223.19 491 1201 512.908 1201 540C1201 567.092 1223.19 589 1250.5 589Z" fill="url(#paint5_linear_252_235)" stroke="url(#paint6_linear_252_235)" stroke-width="6"/>
<path d="M770.88 706V676.8H777L785.12 700.4C785.04 699.547 784.947 698.547 784.84 697.4C784.76 696.227 784.693 695.04 784.64 693.84C784.587 692.613 784.56 691.547 784.56 690.64V676.8H789.12V706H783L774.96 682.4C775.013 683.173 775.08 684.107 775.16 685.2C775.24 686.293 775.307 687.413 775.36 688.56C775.413 689.707 775.44 690.76 775.44 691.72V706H770.88ZM801.544 706.4C799.278 706.4 797.491 705.8 796.184 704.6C794.878 703.4 794.224 701.787 794.224 699.76C794.224 697.6 794.944 695.933 796.384 694.76C797.824 693.587 799.864 693 802.504 693H807.984V691.12C807.984 690.053 807.638 689.227 806.944 688.64C806.251 688.027 805.304 687.72 804.104 687.72C803.011 687.72 802.104 687.96 801.384 688.44C800.664 688.92 800.238 689.573 800.104 690.4H795.224C795.464 688.32 796.398 686.667 798.024 685.44C799.651 684.213 801.731 683.6 804.264 683.6C806.958 683.6 809.078 684.28 810.624 685.64C812.198 686.973 812.984 688.787 812.984 691.08V706H808.144V702.16H807.344L808.144 701.08C808.144 702.707 807.544 704 806.344 704.96C805.144 705.92 803.544 706.4 801.544 706.4ZM803.184 702.64C804.598 702.64 805.744 702.28 806.624 701.56C807.531 700.84 807.984 699.907 807.984 698.76V696.08H802.584C801.571 696.08 800.758 696.373 800.144 696.96C799.531 697.547 799.224 698.32 799.224 699.28C799.224 700.32 799.571 701.147 800.264 701.76C800.984 702.347 801.958 702.64 803.184 702.64ZM818.049 706V684H822.129V686.96H822.969L822.289 687.68C822.289 686.453 822.635 685.467 823.329 684.72C824.022 683.973 824.915 683.6 826.009 683.6C827.182 683.6 828.089 684.08 828.729 685.04C829.395 686 829.729 687.293 829.729 688.92L828.849 686.96H830.209L829.689 687.68C829.689 686.453 830.035 685.467 830.729 684.72C831.422 683.973 832.342 683.6 833.489 683.6C834.849 683.6 835.929 684.107 836.729 685.12C837.529 686.133 837.929 687.507 837.929 689.24V706H833.529V689.44C833.529 688.72 833.369 688.16 833.049 687.76C832.729 687.333 832.262 687.12 831.649 687.12C831.062 687.12 830.595 687.32 830.249 687.72C829.929 688.12 829.769 688.693 829.769 689.44V706H826.169V689.44C826.169 688.693 826.009 688.12 825.689 687.72C825.369 687.32 824.902 687.12 824.289 687.12C823.675 687.12 823.209 687.32 822.889 687.72C822.595 688.12 822.449 688.693 822.449 689.44V706H818.049ZM851.993 706.4C850.126 706.4 848.5 706.04 847.113 705.32C845.726 704.6 844.646 703.6 843.873 702.32C843.126 701.013 842.753 699.493 842.753 697.76V692.24C842.753 690.507 843.126 689 843.873 687.72C844.646 686.413 845.726 685.4 847.113 684.68C848.5 683.96 850.126 683.6 851.993 683.6C853.833 683.6 855.433 683.96 856.793 684.68C858.18 685.4 859.246 686.413 859.993 687.72C860.766 689 861.153 690.507 861.153 692.24V696.2H847.593V697.76C847.593 699.307 847.966 700.48 848.713 701.28C849.46 702.053 850.566 702.44 852.033 702.44C853.153 702.44 854.06 702.253 854.753 701.88C855.446 701.48 855.886 700.907 856.073 700.16H860.993C860.62 702.053 859.606 703.573 857.953 704.72C856.326 705.84 854.34 706.4 851.993 706.4ZM856.313 693.4V692.2C856.313 690.68 855.953 689.52 855.233 688.72C854.513 687.893 853.433 687.48 851.993 687.48C850.553 687.48 849.46 687.893 848.713 688.72C847.966 689.547 847.593 690.72 847.593 692.24V693.08L856.673 693L856.313 693.4ZM875.938 690.32C874.818 690.32 873.911 690.013 873.218 689.4C872.551 688.76 872.218 687.947 872.218 686.96C872.218 685.947 872.551 685.133 873.218 684.52C873.911 683.907 874.818 683.6 875.938 683.6C877.058 683.6 877.951 683.907 878.618 684.52C879.311 685.133 879.658 685.947 879.658 686.96C879.658 687.947 879.311 688.76 878.618 689.4C877.951 690.013 877.058 690.32 875.938 690.32ZM875.938 706.4C874.818 706.4 873.911 706.093 873.218 705.48C872.551 704.867 872.218 704.053 872.218 703.04C872.218 702.027 872.551 701.213 873.218 700.6C873.911 699.987 874.818 699.68 875.938 699.68C877.058 699.68 877.951 699.987 878.618 700.6C879.311 701.213 879.658 702.027 879.658 703.04C879.658 704.053 879.311 704.867 878.618 705.48C877.951 706.093 877.058 706.4 875.938 706.4ZM913.306 706L920.666 676.8H927.106L934.506 706H929.386L927.786 698.92H920.026L918.426 706H913.306ZM920.946 694.84H926.866L925.106 687C924.813 685.693 924.56 684.52 924.346 683.48C924.133 682.413 923.986 681.64 923.906 681.16C923.826 681.64 923.68 682.413 923.466 683.48C923.28 684.52 923.026 685.68 922.706 686.96L920.946 694.84ZM947.931 706.4C946.064 706.4 944.437 706.04 943.051 705.32C941.664 704.6 940.584 703.6 939.811 702.32C939.064 701.013 938.691 699.493 938.691 697.76V692.24C938.691 690.507 939.064 689 939.811 687.72C940.584 686.413 941.664 685.4 943.051 684.68C944.437 683.96 946.064 683.6 947.931 683.6C949.771 683.6 951.371 683.96 952.731 684.68C954.117 685.4 955.184 686.413 955.931 687.72C956.704 689 957.091 690.507 957.091 692.24V696.2H943.531V697.76C943.531 699.307 943.904 700.48 944.651 701.28C945.397 702.053 946.504 702.44 947.971 702.44C949.091 702.44 949.997 702.253 950.691 701.88C951.384 701.48 951.824 700.907 952.011 700.16H956.931C956.557 702.053 955.544 703.573 953.891 704.72C952.264 705.84 950.277 706.4 947.931 706.4ZM952.251 693.4V692.2C952.251 690.68 951.891 689.52 951.171 688.72C950.451 687.893 949.371 687.48 947.931 687.48C946.491 687.48 945.397 687.893 944.651 688.72C943.904 689.547 943.531 690.72 943.531 692.24V693.08L952.611 693L952.251 693.4ZM974.275 706C972.168 706 970.515 705.413 969.315 704.24C968.142 703.067 967.555 701.453 967.555 699.4V688.52H961.595V684H967.555V677.8H972.595V684H981.035V688.52H972.595V699.4C972.595 700.787 973.275 701.48 974.635 701.48H980.635V706H974.275ZM986.939 706V676.8H991.939V684L991.819 688.2H993.179L991.819 689.36C991.819 687.547 992.339 686.133 993.379 685.12C994.446 684.107 995.899 683.6 997.739 683.6C999.899 683.6 1001.62 684.32 1002.9 685.76C1004.21 687.2 1004.86 689.133 1004.86 691.56V706H999.859V692.08C999.859 690.747 999.513 689.72 998.819 689C998.126 688.28 997.153 687.92 995.899 687.92C994.673 687.92 993.699 688.293 992.979 689.04C992.286 689.787 991.939 690.853 991.939 692.24V706H986.939ZM1019.88 706.4C1018.02 706.4 1016.39 706.04 1015 705.32C1013.62 704.6 1012.54 703.6 1011.76 702.32C1011.02 701.013 1010.64 699.493 1010.64 697.76V692.24C1010.64 690.507 1011.02 689 1011.76 687.72C1012.54 686.413 1013.62 685.4 1015 684.68C1016.39 683.96 1018.02 683.6 1019.88 683.6C1021.72 683.6 1023.32 683.96 1024.68 684.68C1026.07 685.4 1027.14 686.413 1027.88 687.72C1028.66 689 1029.04 690.507 1029.04 692.24V696.2H1015.48V697.76C1015.48 699.307 1015.86 700.48 1016.6 701.28C1017.35 702.053 1018.46 702.44 1019.92 702.44C1021.04 702.44 1021.95 702.253 1022.64 701.88C1023.34 701.48 1023.78 700.907 1023.96 700.16H1028.88C1028.51 702.053 1027.5 703.573 1025.84 704.72C1024.22 705.84 1022.23 706.4 1019.88 706.4ZM1024.2 693.4V692.2C1024.2 690.68 1023.84 689.52 1023.12 688.72C1022.4 687.893 1021.32 687.48 1019.88 687.48C1018.44 687.48 1017.35 687.893 1016.6 688.72C1015.86 689.547 1015.48 690.72 1015.48 692.24V693.08L1024.56 693L1024.2 693.4ZM1035.59 706V684H1040.31V688.2H1041.55L1040.07 690.76C1040.07 688.387 1040.6 686.6 1041.67 685.4C1042.73 684.2 1044.31 683.6 1046.39 683.6C1048.76 683.6 1050.63 684.333 1051.99 685.8C1053.35 687.267 1054.03 689.293 1054.03 691.88V693.48H1048.79V692.24C1048.79 690.827 1048.41 689.733 1047.67 688.96C1046.95 688.187 1045.95 687.8 1044.67 687.8C1043.36 687.8 1042.35 688.187 1041.63 688.96C1040.93 689.733 1040.59 690.827 1040.59 692.24V706H1035.59Z" fill="#EBDBB2" fill-opacity="0.75"/>
<path d="M770.24 757V727.8H776.16L779 737.08C779.293 738.013 779.533 738.867 779.72 739.64C779.907 740.413 780.027 740.973 780.08 741.32C780.133 740.973 780.253 740.413 780.44 739.64C780.627 738.867 780.853 738.013 781.12 737.08L783.84 727.8H789.76V757H785.08V747.92C785.08 746.587 785.12 745.133 785.2 743.56C785.28 741.987 785.373 740.413 785.48 738.84C785.587 737.267 785.707 735.773 785.84 734.36C786 732.947 786.133 731.707 786.24 730.64L782.32 744.44H777.76L773.72 730.64C773.853 731.653 773.987 732.853 774.12 734.24C774.253 735.6 774.373 737.067 774.48 738.64C774.613 740.187 774.72 741.76 774.8 743.36C774.88 744.96 774.92 746.48 774.92 747.92V757H770.24ZM801.544 757.4C799.278 757.4 797.491 756.8 796.184 755.6C794.878 754.4 794.224 752.787 794.224 750.76C794.224 748.6 794.944 746.933 796.384 745.76C797.824 744.587 799.864 744 802.504 744H807.984V742.12C807.984 741.053 807.638 740.227 806.944 739.64C806.251 739.027 805.304 738.72 804.104 738.72C803.011 738.72 802.104 738.96 801.384 739.44C800.664 739.92 800.238 740.573 800.104 741.4H795.224C795.464 739.32 796.398 737.667 798.024 736.44C799.651 735.213 801.731 734.6 804.264 734.6C806.958 734.6 809.078 735.28 810.624 736.64C812.198 737.973 812.984 739.787 812.984 742.08V757H808.144V753.16H807.344L808.144 752.08C808.144 753.707 807.544 755 806.344 755.96C805.144 756.92 803.544 757.4 801.544 757.4ZM803.184 753.64C804.598 753.64 805.744 753.28 806.624 752.56C807.531 751.84 807.984 750.907 807.984 749.76V747.08H802.584C801.571 747.08 800.758 747.373 800.144 747.96C799.531 748.547 799.224 749.32 799.224 750.28C799.224 751.32 799.571 752.147 800.264 752.76C800.984 753.347 801.958 753.64 803.184 753.64ZM827.129 757.36C825.449 757.36 823.982 757.093 822.729 756.56C821.475 756.027 820.489 755.293 819.769 754.36C819.075 753.4 818.702 752.28 818.649 751H823.649C823.702 751.693 824.035 752.253 824.649 752.68C825.289 753.107 826.115 753.32 827.129 753.32H828.889C830.115 753.32 831.035 753.08 831.649 752.6C832.262 752.12 832.569 751.467 832.569 750.64C832.569 749.867 832.289 749.267 831.729 748.84C831.195 748.387 830.355 748.093 829.209 747.96L826.489 747.56C823.982 747.213 822.142 746.547 820.969 745.56C819.795 744.573 819.209 743.093 819.209 741.12C819.209 739.067 819.902 737.48 821.289 736.36C822.675 735.213 824.715 734.64 827.409 734.64H828.929C831.382 734.64 833.342 735.187 834.809 736.28C836.275 737.373 837.062 738.84 837.169 740.68H832.169C832.089 740.093 831.755 739.613 831.169 739.24C830.609 738.867 829.862 738.68 828.929 738.68H827.409C826.262 738.68 825.422 738.893 824.889 739.32C824.382 739.72 824.129 740.32 824.129 741.12C824.129 741.867 824.355 742.427 824.809 742.8C825.262 743.147 825.995 743.4 827.009 743.56L829.849 743.96C832.462 744.333 834.382 745.04 835.609 746.08C836.862 747.093 837.489 748.6 837.489 750.6C837.489 752.733 836.755 754.4 835.289 755.6C833.849 756.773 831.715 757.36 828.889 757.36H827.129ZM851.113 757.36C849.433 757.36 847.966 757.093 846.713 756.56C845.46 756.027 844.473 755.293 843.753 754.36C843.06 753.4 842.686 752.28 842.633 751H847.633C847.686 751.693 848.02 752.253 848.633 752.68C849.273 753.107 850.1 753.32 851.113 753.32H852.873C854.1 753.32 855.02 753.08 855.633 752.6C856.246 752.12 856.553 751.467 856.553 750.64C856.553 749.867 856.273 749.267 855.713 748.84C855.18 748.387 854.34 748.093 853.193 747.96L850.473 747.56C847.966 747.213 846.126 746.547 844.953 745.56C843.78 744.573 843.193 743.093 843.193 741.12C843.193 739.067 843.886 737.48 845.273 736.36C846.66 735.213 848.7 734.64 851.393 734.64H852.913C855.366 734.64 857.326 735.187 858.793 736.28C860.26 737.373 861.046 738.84 861.153 740.68H856.153C856.073 740.093 855.74 739.613 855.153 739.24C854.593 738.867 853.846 738.68 852.913 738.68H851.393C850.246 738.68 849.406 738.893 848.873 739.32C848.366 739.72 848.113 740.32 848.113 741.12C848.113 741.867 848.34 742.427 848.793 742.8C849.246 743.147 849.98 743.4 850.993 743.56L853.833 743.96C856.446 744.333 858.366 745.04 859.593 746.08C860.846 747.093 861.473 748.6 861.473 750.6C861.473 752.733 860.74 754.4 859.273 755.6C857.833 756.773 855.7 757.36 852.873 757.36H851.113ZM875.938 741.32C874.818 741.32 873.911 741.013 873.218 740.4C872.551 739.76 872.218 738.947 872.218 737.96C872.218 736.947 872.551 736.133 873.218 735.52C873.911 734.907 874.818 734.6 875.938 734.6C877.058 734.6 877.951 734.907 878.618 735.52C879.311 736.133 879.658 736.947 879.658 737.96C879.658 738.947 879.311 739.76 878.618 740.4C877.951 741.013 877.058 741.32 875.938 741.32ZM875.938 757.4C874.818 757.4 873.911 757.093 873.218 756.48C872.551 755.867 872.218 755.053 872.218 754.04C872.218 753.027 872.551 752.213 873.218 751.6C873.911 750.987 874.818 750.68 875.938 750.68C877.058 750.68 877.951 750.987 878.618 751.6C879.311 752.213 879.658 753.027 879.658 754.04C879.658 755.053 879.311 755.867 878.618 756.48C877.951 757.093 877.058 757.4 875.938 757.4ZM923.906 757.4C921.96 757.4 920.24 757 918.746 756.2C917.28 755.373 916.133 754.227 915.306 752.76C914.506 751.267 914.106 749.547 914.106 747.6C914.106 746.213 914.333 744.76 914.786 743.24C915.266 741.72 915.92 740.293 916.746 738.96L923.626 727.8H929.186L920.546 741.4L920.786 741.56C921.32 740.733 922.04 740.107 922.946 739.68C923.853 739.253 924.866 739.04 925.986 739.04C927.56 739.04 928.92 739.413 930.066 740.16C931.213 740.907 932.106 741.947 932.746 743.28C933.386 744.613 933.706 746.173 933.706 747.96C933.706 749.853 933.293 751.507 932.466 752.92C931.666 754.333 930.533 755.44 929.066 756.24C927.626 757.013 925.906 757.4 923.906 757.4ZM923.906 753.16C925.373 753.16 926.56 752.693 927.466 751.76C928.373 750.8 928.826 749.56 928.826 748.04C928.826 746.467 928.373 745.213 927.466 744.28C926.56 743.32 925.373 742.84 923.906 742.84C922.44 742.84 921.253 743.32 920.346 744.28C919.44 745.213 918.986 746.467 918.986 748.04C918.986 749.56 919.44 750.8 920.346 751.76C921.253 752.693 922.44 753.16 923.906 753.16ZM947.891 757.4C946.744 757.4 945.824 757.067 945.131 756.4C944.464 755.733 944.131 754.827 944.131 753.68C944.131 752.533 944.464 751.627 945.131 750.96C945.824 750.267 946.744 749.92 947.891 749.92C949.037 749.92 949.944 750.267 950.611 750.96C951.304 751.627 951.651 752.533 951.651 753.68C951.651 754.827 951.304 755.733 950.611 756.4C949.944 757.067 949.037 757.4 947.891 757.4ZM971.875 757.4C969.955 757.4 968.288 757.08 966.875 756.44C965.462 755.773 964.368 754.84 963.595 753.64C962.822 752.44 962.435 751.04 962.435 749.44C962.435 747.68 962.928 746.173 963.915 744.92C964.902 743.667 966.368 742.6 968.315 741.72L972.795 739.68C973.755 739.227 974.502 738.613 975.035 737.84C975.595 737.067 975.875 736.2 975.875 735.24C975.875 734.147 975.515 733.28 974.795 732.64C974.075 731.973 973.102 731.64 971.875 731.64C970.648 731.64 969.662 731.973 968.915 732.64C968.195 733.307 967.835 734.187 967.835 735.28C967.835 736.213 968.115 737.067 968.675 737.84C969.235 738.613 969.982 739.213 970.915 739.64L975.355 741.68C977.462 742.613 978.982 743.72 979.915 745C980.848 746.253 981.315 747.733 981.315 749.44C981.315 751.893 980.462 753.84 978.755 755.28C977.075 756.693 974.782 757.4 971.875 757.4ZM971.875 753.12C973.262 753.12 974.355 752.76 975.155 752.04C975.982 751.293 976.395 750.32 976.395 749.12C976.395 748.187 976.115 747.307 975.555 746.48C974.995 745.627 974.222 744.973 973.235 744.52L968.475 742.32C966.662 741.467 965.275 740.453 964.315 739.28C963.382 738.08 962.915 736.653 962.915 735C962.915 733.507 963.275 732.187 963.995 731.04C964.715 729.893 965.742 729 967.075 728.36C968.435 727.72 970.035 727.4 971.875 727.4C973.715 727.4 975.288 727.72 976.595 728.36C977.928 729 978.955 729.893 979.675 731.04C980.422 732.187 980.795 733.507 980.795 735C980.795 736.68 980.328 738.107 979.395 739.28C978.462 740.453 977.088 741.467 975.275 742.32L970.475 744.56C969.515 744.987 968.755 745.613 968.195 746.44C967.635 747.267 967.355 748.147 967.355 749.08C967.355 750.28 967.755 751.253 968.555 752C969.382 752.747 970.488 753.12 971.875 753.12ZM987.219 757V752.6H994.819V732.24L987.179 737.92V732.64L993.899 727.8H999.819V752.6H1005.94V757H987.219ZM1035.35 757V727.8H1052.87V732.16H1040.27V739.76H1051.47V744.08H1040.27V752.64H1052.87V757H1035.35ZM1065.37 757.4C1063.11 757.4 1061.32 756.8 1060.01 755.6C1058.71 754.4 1058.05 752.787 1058.05 750.76C1058.05 748.6 1058.77 746.933 1060.21 745.76C1061.65 744.587 1063.69 744 1066.33 744H1071.81V742.12C1071.81 741.053 1071.47 740.227 1070.77 739.64C1070.08 739.027 1069.13 738.72 1067.93 738.72C1066.84 738.72 1065.93 738.96 1065.21 739.44C1064.49 739.92 1064.07 740.573 1063.93 741.4H1059.05C1059.29 739.32 1060.23 737.667 1061.85 736.44C1063.48 735.213 1065.56 734.6 1068.09 734.6C1070.79 734.6 1072.91 735.28 1074.45 736.64C1076.03 737.973 1076.81 739.787 1076.81 742.08V757H1071.97V753.16H1071.17L1071.97 752.08C1071.97 753.707 1071.37 755 1070.17 755.96C1068.97 756.92 1067.37 757.4 1065.37 757.4ZM1067.01 753.64C1068.43 753.64 1069.57 753.28 1070.45 752.56C1071.36 751.84 1071.81 750.907 1071.81 749.76V747.08H1066.41C1065.4 747.08 1064.59 747.373 1063.97 747.96C1063.36 748.547 1063.05 749.32 1063.05 750.28C1063.05 751.32 1063.4 752.147 1064.09 752.76C1064.81 753.347 1065.79 753.64 1067.01 753.64ZM1083.56 757V735H1088.28V739.2H1089.52L1088.04 741.76C1088.04 739.387 1088.57 737.6 1089.64 736.4C1090.7 735.2 1092.28 734.6 1094.36 734.6C1096.73 734.6 1098.6 735.333 1099.96 736.8C1101.32 738.267 1102 740.293 1102 742.88V744.48H1096.76V743.24C1096.76 741.827 1096.38 740.733 1095.64 739.96C1094.92 739.187 1093.92 738.8 1092.64 738.8C1091.33 738.8 1090.32 739.187 1089.6 739.96C1088.9 740.733 1088.56 741.827 1088.56 743.24V757H1083.56ZM1118.18 757C1116.07 757 1114.42 756.413 1113.22 755.24C1112.05 754.067 1111.46 752.453 1111.46 750.4V739.52H1105.5V735H1111.46V728.8H1116.5V735H1124.94V739.52H1116.5V750.4C1116.5 751.787 1117.18 752.48 1118.54 752.48H1124.54V757H1118.18ZM1130.85 757V727.8H1135.85V735L1135.73 739.2H1137.09L1135.73 740.36C1135.73 738.547 1136.25 737.133 1137.29 736.12C1138.35 735.107 1139.81 734.6 1141.65 734.6C1143.81 734.6 1145.53 735.32 1146.81 736.76C1148.11 738.2 1148.77 740.133 1148.77 742.56V757H1143.77V743.08C1143.77 741.747 1143.42 740.72 1142.73 740C1142.03 739.28 1141.06 738.92 1139.81 738.92C1138.58 738.92 1137.61 739.293 1136.89 740.04C1136.19 740.787 1135.85 741.853 1135.85 743.24V757H1130.85Z" fill="#EBDBB2" fill-opacity="0.75"/>
<path d="M771.08 808V778.8H776.08V790.52H783.92V778.8H788.92V808H783.92V795.16H776.08V808H771.08ZM819.049 808V778.8H824.049V790.52H831.889V778.8H836.889V808H831.889V795.16H824.049V808H819.049ZM851.993 808.4C850.126 808.4 848.5 808.04 847.113 807.32C845.726 806.6 844.646 805.6 843.873 804.32C843.126 803.013 842.753 801.493 842.753 799.76V794.24C842.753 792.507 843.126 791 843.873 789.72C844.646 788.413 845.726 787.4 847.113 786.68C848.5 785.96 850.126 785.6 851.993 785.6C853.833 785.6 855.433 785.96 856.793 786.68C858.18 787.4 859.246 788.413 859.993 789.72C860.766 791 861.153 792.507 861.153 794.24V798.2H847.593V799.76C847.593 801.307 847.966 802.48 848.713 803.28C849.46 804.053 850.566 804.44 852.033 804.44C853.153 804.44 854.06 804.253 854.753 803.88C855.446 803.48 855.886 802.907 856.073 802.16H860.993C860.62 804.053 859.606 805.573 857.953 806.72C856.326 807.84 854.34 808.4 851.993 808.4ZM856.313 795.4V794.2C856.313 792.68 855.953 791.52 855.233 790.72C854.513 789.893 853.433 789.48 851.993 789.48C850.553 789.48 849.46 789.893 848.713 790.72C847.966 791.547 847.593 792.72 847.593 794.24V795.08L856.673 795L856.313 795.4ZM891.002 808V778.8H896.002V790.52H903.842V778.8H908.842V808H903.842V795.16H896.002V808H891.002ZM918.226 812.4V808.68L924.986 803.92C925.52 803.573 925.933 803.12 926.226 802.56C926.546 801.973 926.706 801.387 926.706 800.8C926.706 799.92 926.453 799.227 925.946 798.72C925.44 798.213 924.76 797.96 923.906 797.96C923.08 797.96 922.4 798.213 921.866 798.72C921.36 799.227 921.106 799.92 921.106 800.8H917.746C917.773 799.04 918.346 797.64 919.466 796.6C920.586 795.533 922.066 795 923.906 795C925.8 795 927.306 795.52 928.426 796.56C929.546 797.6 930.106 799 930.106 800.76C930.106 801.747 929.8 802.733 929.186 803.72C928.573 804.707 927.746 805.547 926.706 806.24L922.026 809.4H930.426V812.4H918.226ZM947.891 808.4C946.024 808.4 944.397 808.053 943.011 807.36C941.651 806.64 940.597 805.64 939.851 804.36C939.131 803.053 938.771 801.52 938.771 799.76V787.04C938.771 785.28 939.131 783.76 939.851 782.48C940.597 781.173 941.651 780.173 943.011 779.48C944.397 778.76 946.024 778.4 947.891 778.4C949.784 778.4 951.411 778.76 952.771 779.48C954.131 780.173 955.171 781.173 955.891 782.48C956.637 783.76 957.011 785.267 957.011 787V799.76C957.011 801.52 956.637 803.053 955.891 804.36C955.171 805.64 954.131 806.64 952.771 807.36C951.411 808.053 949.784 808.4 947.891 808.4ZM947.891 804C949.251 804 950.277 803.64 950.971 802.92C951.664 802.173 952.011 801.12 952.011 799.76V787.04C952.011 785.653 951.664 784.6 950.971 783.88C950.277 783.16 949.251 782.8 947.891 782.8C946.531 782.8 945.504 783.16 944.811 783.88C944.117 784.6 943.771 785.653 943.771 787.04V799.76C943.771 801.12 944.117 802.173 944.811 802.92C945.531 803.64 946.557 804 947.891 804ZM986.739 808V778.8H992.859L1000.98 802.4C1000.9 801.547 1000.81 800.547 1000.7 799.4C1000.62 798.227 1000.55 797.04 1000.5 795.84C1000.45 794.613 1000.42 793.547 1000.42 792.64V778.8H1004.98V808H998.859L990.819 784.4C990.873 785.173 990.939 786.107 991.019 787.2C991.099 788.293 991.166 789.413 991.219 790.56C991.273 791.707 991.299 792.76 991.299 793.72V808H986.739ZM1010.92 808V778.8H1015.92V790.52H1023.76V778.8H1028.76V808H1023.76V795.16H1015.92V808H1010.92ZM1043.19 812.8C1041.29 812.8 1039.77 812.28 1038.63 811.24C1037.48 810.227 1036.91 808.84 1036.91 807.08H1040.27C1040.27 807.96 1040.53 808.64 1041.07 809.12C1041.6 809.6 1042.31 809.84 1043.19 809.84C1044.07 809.84 1044.75 809.6 1045.23 809.12C1045.73 808.64 1045.99 807.947 1045.99 807.04C1045.99 806.16 1045.73 805.467 1045.23 804.96C1044.75 804.453 1044.08 804.2 1043.23 804.2H1042.03V801.56L1045.43 798.4H1038.15V795.4H1048.31V798.76L1043.75 803V801.72C1045.45 801.72 1046.83 802.2 1047.87 803.16C1048.91 804.12 1049.43 805.413 1049.43 807.04C1049.43 808.8 1048.85 810.2 1047.71 811.24C1046.56 812.28 1045.05 812.8 1043.19 812.8ZM1091.96 808.4C1090.09 808.4 1088.45 808.053 1087.04 807.36C1085.65 806.64 1084.57 805.64 1083.8 804.36C1083.05 803.053 1082.68 801.52 1082.68 799.76V787.04C1082.68 785.253 1083.05 783.72 1083.8 782.44C1084.57 781.16 1085.65 780.173 1087.04 779.48C1088.45 778.76 1090.09 778.4 1091.96 778.4C1093.85 778.4 1095.48 778.76 1096.84 779.48C1098.22 780.173 1099.3 781.16 1100.08 782.44C1100.85 783.72 1101.24 785.253 1101.24 787.04H1096.2C1096.2 785.653 1095.82 784.6 1095.08 783.88C1094.36 783.16 1093.32 782.8 1091.96 782.8C1090.6 782.8 1089.54 783.16 1088.8 783.88C1088.05 784.6 1087.68 785.64 1087.68 787V799.76C1087.68 801.12 1088.05 802.173 1088.8 802.92C1089.54 803.64 1090.6 804 1091.96 804C1093.32 804 1094.36 803.64 1095.08 802.92C1095.82 802.173 1096.2 801.12 1096.2 799.76H1101.24C1101.24 801.493 1100.85 803.013 1100.08 804.32C1099.3 805.627 1098.22 806.64 1096.84 807.36C1095.48 808.053 1093.85 808.4 1091.96 808.4ZM1106.86 808V778.8H1111.86V790.52H1119.7V778.8H1124.7V808H1119.7V795.16H1111.86V808H1106.86ZM1141.77 812.4V808.88H1133.37V804.76L1140.01 795.4H1143.73L1136.73 805.32V805.96H1141.77V802.12H1145.17V812.4H1141.77Z" fill="#EBDBB2" fill-opacity="0.75"/>
</g>
<defs>
<linearGradient id="paint0_linear_252_235" x1="992.758" y1="-201.274" x2="977.785" y2="913.327" gradientUnits="userSpaceOnUse">
<stop stop-color="#83A598"/>
<stop offset="1" stop-color="#282828"/>
</linearGradient>
<linearGradient id="paint1_linear_252_235" x1="840.293" y1="368.409" x2="834.134" y2="626.318" gradientUnits="userSpaceOnUse">
<stop stop-color="#83A598"/>
<stop offset="1" stop-color="#282828"/>
</linearGradient>
<linearGradient id="paint2_linear_252_235" x1="835.441" y1="415" x2="835.081" y2="614.53" gradientUnits="userSpaceOnUse">
<stop stop-color="#73AA95"/>
<stop offset="1" stop-color="#282828"/>
</linearGradient>
<linearGradient id="paint3_linear_252_235" x1="1088.89" y1="505.495" x2="1087.65" y2="558.11" gradientUnits="userSpaceOnUse">
<stop stop-color="#928374"/>
<stop offset="1" stop-color="#282828"/>
</linearGradient>
<linearGradient id="paint4_linear_252_235" x1="1160.09" y1="496.073" x2="1158.52" y2="562.097" gradientUnits="userSpaceOnUse">
<stop stop-color="#EBDBB2"/>
<stop offset="1" stop-color="#282828"/>
</linearGradient>
<linearGradient id="paint5_linear_252_235" x1="1252.09" y1="476.854" x2="1249.84" y2="571.766" gradientUnits="userSpaceOnUse">
<stop stop-color="#A78C67"/>
<stop offset="1" stop-color="#282828"/>
</linearGradient>
<linearGradient id="paint6_linear_252_235" x1="1249.91" y1="393.848" x2="1249.91" y2="570.861" gradientUnits="userSpaceOnUse">
<stop stop-color="#458588"/>
<stop offset="1" stop-color="#282828"/>
</linearGradient>
<clipPath id="clip0_252_235">
<rect width="1920" height="1080" fill="white"/>
</clipPath>
</defs>
</svg>
