<svg width="1920" height="1080" viewBox="0 0 1920 1080" fill="none" xmlns="http://www.w3.org/2000/svg">
<rect width="1920" height="1080" fill="#282828"/>
<path d="M33.08 1038V1008.8H38.08V1020.52H45.92V1008.8H50.92V1038H45.92V1025.16H38.08V1038H33.08ZM72.3844 1038.36C70.5177 1038.36 68.891 1038.01 67.5044 1037.32C66.1444 1036.6 65.0777 1035.6 64.3044 1034.32C63.5577 1033.01 63.1844 1031.48 63.1844 1029.72V1024.28C63.1844 1022.52 63.5577 1021 64.3044 1019.72C65.0777 1018.41 66.1444 1017.41 67.5044 1016.72C68.891 1016 70.5177 1015.64 72.3844 1015.64C74.2777 1015.64 75.9044 1016 77.2644 1016.72C78.6244 1017.41 79.6777 1018.41 80.4244 1019.72C81.1977 1021 81.5844 1022.51 81.5844 1024.24V1029.72C81.5844 1031.48 81.1977 1033.01 80.4244 1034.32C79.6777 1035.6 78.6244 1036.6 77.2644 1037.32C75.9044 1038.01 74.2777 1038.36 72.3844 1038.36ZM72.3844 1034C73.7177 1034 74.7444 1033.64 75.4644 1032.92C76.211 1032.17 76.5844 1031.11 76.5844 1029.72V1024.28C76.5844 1022.87 76.211 1021.8 75.4644 1021.08C74.7444 1020.36 73.7177 1020 72.3844 1020C71.0777 1020 70.051 1020.36 69.3044 1021.08C68.5577 1021.8 68.1844 1022.87 68.1844 1024.28V1029.72C68.1844 1031.11 68.5577 1032.17 69.3044 1032.92C70.051 1033.64 71.0777 1034 72.3844 1034ZM101.929 1038.36C100.249 1038.36 98.7821 1038.09 97.5287 1037.56C96.2754 1037.03 95.2887 1036.29 94.5687 1035.36C93.8754 1034.4 93.5021 1033.28 93.4487 1032H98.4487C98.5021 1032.69 98.8354 1033.25 99.4487 1033.68C100.089 1034.11 100.915 1034.32 101.929 1034.32H103.689C104.915 1034.32 105.835 1034.08 106.449 1033.6C107.062 1033.12 107.369 1032.47 107.369 1031.64C107.369 1030.87 107.089 1030.27 106.529 1029.84C105.995 1029.39 105.155 1029.09 104.009 1028.96L101.289 1028.56C98.7821 1028.21 96.9421 1027.55 95.7687 1026.56C94.5954 1025.57 94.0087 1024.09 94.0087 1022.12C94.0087 1020.07 94.7021 1018.48 96.0887 1017.36C97.4754 1016.21 99.5154 1015.64 102.209 1015.64H103.729C106.182 1015.64 108.142 1016.19 109.609 1017.28C111.075 1018.37 111.862 1019.84 111.969 1021.68H106.969C106.889 1021.09 106.555 1020.61 105.969 1020.24C105.409 1019.87 104.662 1019.68 103.729 1019.68H102.209C101.062 1019.68 100.222 1019.89 99.6887 1020.32C99.1821 1020.72 98.9287 1021.32 98.9287 1022.12C98.9287 1022.87 99.1554 1023.43 99.6087 1023.8C100.062 1024.15 100.795 1024.4 101.809 1024.56L104.649 1024.96C107.262 1025.33 109.182 1026.04 110.409 1027.08C111.662 1028.09 112.289 1029.6 112.289 1031.6C112.289 1033.73 111.555 1035.4 110.089 1036.6C108.649 1037.77 106.515 1038.36 103.689 1038.36H101.929ZM135.553 1038C133.446 1038 131.793 1037.41 130.593 1036.24C129.42 1035.07 128.833 1033.45 128.833 1031.4V1020.52H122.873V1016H128.833V1009.8H133.873V1016H142.313V1020.52H133.873V1031.4C133.873 1032.79 134.553 1033.48 135.913 1033.48H141.913V1038H135.553ZM193.882 1019.4L199.082 1006.96H203.442L200.242 1019.4H193.882ZM184.002 1019.4L189.202 1006.96H193.562L190.362 1019.4H184.002ZM215.826 1038V1008.8H233.346V1013.16H220.746V1020.76H231.946V1025.08H220.746V1033.64H233.346V1038H215.826ZM254.691 1038.36C252.824 1038.36 251.197 1038.01 249.811 1037.32C248.451 1036.6 247.384 1035.6 246.611 1034.32C245.864 1033.01 245.491 1031.48 245.491 1029.72V1024.28C245.491 1022.52 245.864 1021 246.611 1019.72C247.384 1018.41 248.451 1017.41 249.811 1016.72C251.197 1016 252.824 1015.64 254.691 1015.64C256.584 1015.64 258.211 1016 259.571 1016.72C260.931 1017.41 261.984 1018.41 262.731 1019.72C263.504 1021 263.891 1022.51 263.891 1024.24V1029.72C263.891 1031.48 263.504 1033.01 262.731 1034.32C261.984 1035.6 260.931 1036.6 259.571 1037.32C258.211 1038.01 256.584 1038.36 254.691 1038.36ZM254.691 1034C256.024 1034 257.051 1033.64 257.771 1032.92C258.517 1032.17 258.891 1031.11 258.891 1029.72V1024.28C258.891 1022.87 258.517 1021.8 257.771 1021.08C257.051 1020.36 256.024 1020 254.691 1020C253.384 1020 252.357 1020.36 251.611 1021.08C250.864 1021.8 250.491 1022.87 250.491 1024.28V1029.72C250.491 1031.11 250.864 1032.17 251.611 1032.92C252.357 1033.64 253.384 1034 254.691 1034ZM284.235 1038.36C282.555 1038.36 281.088 1038.09 279.835 1037.56C278.582 1037.03 277.595 1036.29 276.875 1035.36C276.182 1034.4 275.808 1033.28 275.755 1032H280.755C280.808 1032.69 281.142 1033.25 281.755 1033.68C282.395 1034.11 283.222 1034.32 284.235 1034.32H285.995C287.222 1034.32 288.142 1034.08 288.755 1033.6C289.368 1033.12 289.675 1032.47 289.675 1031.64C289.675 1030.87 289.395 1030.27 288.835 1029.84C288.302 1029.39 287.462 1029.09 286.315 1028.96L283.595 1028.56C281.088 1028.21 279.248 1027.55 278.075 1026.56C276.902 1025.57 276.315 1024.09 276.315 1022.12C276.315 1020.07 277.008 1018.48 278.395 1017.36C279.782 1016.21 281.822 1015.64 284.515 1015.64H286.035C288.488 1015.64 290.448 1016.19 291.915 1017.28C293.382 1018.37 294.168 1019.84 294.275 1021.68H289.275C289.195 1021.09 288.862 1020.61 288.275 1020.24C287.715 1019.87 286.968 1019.68 286.035 1019.68H284.515C283.368 1019.68 282.528 1019.89 281.995 1020.32C281.488 1020.72 281.235 1021.32 281.235 1022.12C281.235 1022.87 281.462 1023.43 281.915 1023.8C282.368 1024.15 283.102 1024.4 284.115 1024.56L286.955 1024.96C289.568 1025.33 291.488 1026.04 292.715 1027.08C293.968 1028.09 294.595 1029.6 294.595 1031.6C294.595 1033.73 293.862 1035.4 292.395 1036.6C290.955 1037.77 288.822 1038.36 285.995 1038.36H284.235ZM315.819 1019.4L319.019 1006.96H325.379L320.179 1019.4H315.819ZM305.939 1019.4L309.139 1006.96H315.499L310.299 1019.4H305.939Z" fill="#EBDBB2"/>
<path d="M32.88 988V958.8H39L47.12 982.4C47.04 981.547 46.9467 980.547 46.84 979.4C46.76 978.227 46.6933 977.04 46.64 975.84C46.5867 974.613 46.56 973.547 46.56 972.64V958.8H51.12V988H45L36.96 964.4C37.0133 965.173 37.08 966.107 37.16 967.2C37.24 968.293 37.3067 969.413 37.36 970.56C37.4133 971.707 37.44 972.76 37.44 973.72V988H32.88ZM63.4244 988V983.44H71.1044V970.52H64.4244V966H75.9044V983.44H82.7044V988H63.4244ZM73.1044 962.32C72.091 962.32 71.291 962.067 70.7044 961.56C70.1177 961.027 69.8244 960.32 69.8244 959.44C69.8244 958.56 70.1177 957.867 70.7044 957.36C71.291 956.827 72.091 956.56 73.1044 956.56C74.1177 956.56 74.9177 956.827 75.5044 957.36C76.091 957.867 76.3844 958.56 76.3844 959.44C76.3844 960.32 76.091 961.027 75.5044 961.56C74.9177 962.067 74.1177 962.32 73.1044 962.32ZM92.2087 988L99.8887 976.64L92.7287 966H98.3687L101.769 971.4C101.982 971.72 102.169 972.08 102.329 972.48C102.515 972.88 102.662 973.2 102.769 973.44C102.875 973.2 103.022 972.88 103.209 972.48C103.395 972.08 103.582 971.72 103.769 971.4L107.209 966H112.849L105.689 976.64L113.329 988H107.649L103.849 981.96C103.635 981.613 103.435 981.24 103.249 980.84C103.062 980.44 102.902 980.12 102.769 979.88C102.662 980.12 102.515 980.44 102.329 980.84C102.142 981.24 101.942 981.613 101.729 981.96L97.8487 988H92.2087ZM133.153 988.4C131.286 988.4 129.66 988.053 128.273 987.36C126.913 986.64 125.86 985.64 125.113 984.36C124.393 983.053 124.033 981.52 124.033 979.76V967.04C124.033 965.28 124.393 963.76 125.113 962.48C125.86 961.173 126.913 960.173 128.273 959.48C129.66 958.76 131.286 958.4 133.153 958.4C135.046 958.4 136.673 958.76 138.033 959.48C139.393 960.173 140.433 961.173 141.153 962.48C141.9 963.76 142.273 965.267 142.273 967V979.76C142.273 981.52 141.9 983.053 141.153 984.36C140.433 985.64 139.393 986.64 138.033 987.36C136.673 988.053 135.046 988.4 133.153 988.4ZM133.153 984C134.513 984 135.54 983.64 136.233 982.92C136.926 982.173 137.273 981.12 137.273 979.76V967.04C137.273 965.653 136.926 964.6 136.233 963.88C135.54 963.16 134.513 962.8 133.153 962.8C131.793 962.8 130.766 963.16 130.073 963.88C129.38 964.6 129.033 965.653 129.033 967.04V979.76C129.033 981.12 129.38 982.173 130.073 982.92C130.793 983.64 131.82 984 133.153 984ZM163.617 988.4C161.617 988.4 159.884 988.067 158.417 987.4C156.951 986.733 155.817 985.787 155.017 984.56C154.244 983.307 153.844 981.84 153.817 980.16H158.817C158.817 981.36 159.244 982.307 160.097 983C160.977 983.667 162.164 984 163.657 984C165.097 984 166.217 983.667 167.017 983C167.844 982.333 168.257 981.413 168.257 980.24C168.257 979.253 167.964 978.4 167.377 977.68C166.817 976.933 166.004 976.427 164.937 976.16L161.577 975.24C159.284 974.653 157.511 973.6 156.257 972.08C155.031 970.56 154.417 968.72 154.417 966.56C154.417 964.907 154.791 963.467 155.537 962.24C156.284 961.013 157.337 960.067 158.697 959.4C160.084 958.733 161.711 958.4 163.577 958.4C166.404 958.4 168.644 959.133 170.297 960.6C171.951 962.04 172.791 963.987 172.817 966.44H167.817C167.817 965.293 167.444 964.4 166.697 963.76C165.951 963.093 164.897 962.76 163.537 962.76C162.231 962.76 161.217 963.067 160.497 963.68C159.777 964.293 159.417 965.16 159.417 966.28C159.417 967.293 159.684 968.16 160.217 968.88C160.777 969.573 161.577 970.067 162.617 970.36L166.097 971.32C168.417 971.907 170.191 972.96 171.417 974.48C172.644 975.973 173.258 977.827 173.258 980.04C173.258 981.693 172.857 983.16 172.057 984.44C171.257 985.693 170.137 986.667 168.697 987.36C167.257 988.053 165.564 988.4 163.617 988.4ZM215.466 988V983.16L224.586 974C225.866 972.693 226.813 971.52 227.426 970.48C228.04 969.413 228.346 968.32 228.346 967.2C228.346 965.84 227.973 964.787 227.226 964.04C226.48 963.267 225.466 962.88 224.186 962.88C222.773 962.88 221.666 963.293 220.866 964.12C220.066 964.92 219.666 966.04 219.666 967.48H214.666C214.693 965.613 215.093 964.013 215.866 962.68C216.666 961.32 217.786 960.267 219.226 959.52C220.666 958.773 222.346 958.4 224.266 958.4C226.106 958.4 227.706 958.747 229.066 959.44C230.426 960.133 231.48 961.107 232.226 962.36C232.973 963.613 233.346 965.107 233.346 966.84C233.346 968.627 232.88 970.373 231.946 972.08C231.04 973.76 229.573 975.573 227.546 977.52L221.466 983.48H233.706V988H215.466ZM258.291 988V982.2H245.291V974.96L256.531 958.8H262.131L250.091 976.28V977.8H258.291V971.2H263.291V988H258.291ZM285.075 988.4C283.928 988.4 283.008 988.067 282.315 987.4C281.648 986.733 281.315 985.827 281.315 984.68C281.315 983.533 281.648 982.627 282.315 981.96C283.008 981.267 283.928 980.92 285.075 980.92C286.222 980.92 287.128 981.267 287.795 981.96C288.488 982.627 288.835 983.533 288.835 984.68C288.835 985.827 288.488 986.733 287.795 987.4C287.128 988.067 286.222 988.4 285.075 988.4ZM306.819 988V983.6H314.419V963.24L306.779 968.92V963.64L313.499 958.8H319.419V983.6H325.539V988H306.819ZM337.204 988V983.6H344.804V963.24L337.164 968.92V963.64L343.884 958.8H349.804V983.6H355.924V988H337.204Z" fill="#EBDBB2"/>
<circle cx="960.5" cy="539.5" r="539.5" fill="url(#paint0_linear_249_174)"/>
<path fill-rule="evenodd" clip-rule="evenodd" d="M1383.1 204.098C1438.93 274.355 1477.62 358.853 1492.82 451.261C1491.38 450.512 1489.89 449.747 1488.35 448.971C1466.72 438.001 1438.98 425.837 1410.89 418.087C1381.46 409.966 1360.37 409.147 1347.99 411.819C1340.93 413.342 1336.52 415.145 1330.84 426.367C1294.73 497.784 1236.6 534.908 1171.67 543.937C1121.34 550.935 1071.46 539.76 1042.05 532.879C1037.32 555.39 1028.47 577.597 1013.88 598.001C989.502 632.093 956.643 650.597 927.109 660.414C877.702 676.835 819.964 673.688 785.184 671.792C783.681 671.71 782.22 671.631 780.805 671.555C749.534 669.885 729.232 669.041 715.239 669.663C704.401 722.938 678.158 766.328 640.339 797.776C601.161 830.354 556.296 844.593 519.906 850.924C477.508 791.049 447.007 722.152 431.849 647.679C433.693 647.886 435.69 648.088 437.818 648.272C451.786 649.48 468.242 649.631 483.181 647.197C498.615 644.682 505.689 640.527 507.988 638.615C508.769 637.966 509.281 637.388 509.882 636.25C510.533 635.017 512.273 631.23 513.217 623.174C517.718 584.744 532.716 547.791 561.853 518.456C589.792 490.327 623.015 477.001 650.573 470.372C696.16 459.406 749.055 462.421 783.149 464.364L783.156 464.364C786.21 464.538 789.114 464.704 791.847 464.85C811.565 465.903 827.011 466.563 840.344 466.211C842.309 441.575 848.128 414.928 862.147 390.067C883.126 352.867 916.195 330.611 951.63 321.452C982.166 313.558 1010.98 316.223 1029.57 318.926C1047.27 321.501 1065.74 325.826 1079.66 329.087L1079.66 329.087C1080.89 329.375 1082.08 329.655 1083.23 329.924C1117.71 337.969 1133.17 340.115 1142.55 338.988C1143.4 337.824 1144.62 335.911 1146.12 332.96C1181.8 262.384 1240.3 223.287 1304.34 209.473C1331.11 203.698 1357.77 202.512 1383.1 204.098ZM1046.91 480.724C1046.92 480.697 1046.92 480.683 1046.92 480.682C1046.92 480.68 1046.9 480.77 1046.87 480.96C1046.89 480.848 1046.91 480.768 1046.91 480.724ZM994.393 523.212C994.392 523.21 994.46 523.21 994.603 523.215C994.466 523.216 994.395 523.213 994.393 523.212ZM697.747 671.971C697.746 671.971 697.786 671.956 697.871 671.93C697.79 671.959 697.748 671.972 697.747 671.971ZM1141.26 340.528C1141.26 340.524 1141.32 340.46 1141.45 340.349C1141.33 340.477 1141.26 340.532 1141.26 340.528Z" fill="url(#paint1_linear_249_174)"/>
<path fill-rule="evenodd" clip-rule="evenodd" d="M1198.84 55.3672C1295.95 103.268 1376.57 179.53 1429.88 273.339C1409.31 263.264 1384.22 252.656 1358.83 245.652C1329.4 237.532 1308.32 236.713 1295.93 239.384C1288.87 240.908 1284.46 242.71 1278.79 253.933C1242.67 325.349 1184.54 362.473 1119.61 371.502C1069.28 378.5 1019.4 367.325 989.993 360.445C985.264 382.956 976.415 405.163 961.824 425.567C937.445 459.659 904.586 478.163 875.052 487.979C825.645 504.401 767.907 501.254 733.127 499.358C731.624 499.276 730.163 499.197 728.749 499.121C697.477 497.45 677.175 496.606 663.182 497.229C652.344 550.503 626.101 593.893 588.282 625.342C547.864 658.952 501.392 673.042 464.418 679.068C456.139 680.417 447.99 681.418 440.057 682.138C427.633 636.703 421 588.876 421 539.5C421 517.894 422.27 496.584 424.74 475.641C426.891 475.397 429.022 475.105 431.124 474.763C446.558 472.247 453.632 468.092 455.931 466.181C456.712 465.532 457.224 464.953 457.825 463.816C458.476 462.583 460.216 458.796 461.16 450.74C465.661 412.31 480.659 375.357 509.796 346.021C537.735 317.892 570.958 304.566 598.516 297.938C644.103 286.972 696.998 289.987 731.092 291.93L731.099 291.93C734.153 292.104 737.057 292.27 739.79 292.416C759.508 293.469 774.954 294.128 788.287 293.777C790.252 269.141 796.071 242.494 810.09 217.633C831.069 180.432 864.138 158.177 899.573 149.017C930.11 141.124 958.925 143.789 977.516 146.492C995.217 149.067 1013.68 153.391 1027.6 156.653L1027.6 156.653C1028.83 156.941 1030.02 157.22 1031.18 157.489C1065.66 165.535 1081.11 167.68 1090.49 166.554C1091.34 165.39 1092.57 163.477 1094.06 160.525C1119.49 110.238 1156.5 75.9322 1198.84 55.3672ZM994.861 308.248C994.863 308.25 994.849 308.345 994.813 308.526C994.841 308.336 994.859 308.246 994.861 308.248ZM942.546 350.781C942.403 350.775 942.335 350.776 942.336 350.777C942.337 350.778 942.36 350.779 942.405 350.78C942.44 350.781 942.487 350.781 942.546 350.781ZM645.69 499.537C645.689 499.536 645.729 499.522 645.814 499.495C645.733 499.524 645.691 499.538 645.69 499.537ZM1089.39 167.915C1089.26 168.025 1089.2 168.089 1089.2 168.094C1089.2 168.096 1089.22 168.084 1089.25 168.056C1089.28 168.027 1089.33 167.98 1089.39 167.915Z" fill="url(#paint2_linear_249_174)"/>
<path fill-rule="evenodd" clip-rule="evenodd" d="M847.252 308.496C910.621 283.672 956.804 235.737 986.552 171.682C992.374 172.539 999.762 173.726 1009.06 175.379C1011.12 175.744 1013.35 176.15 1015.74 176.585C1045.75 182.054 1101.01 192.119 1156.45 184.053C1207.53 176.622 1255.69 155.134 1296.1 117.061C1203.99 43.7826 1087.36 0 960.501 0C663.069 0 421.853 240.691 421.003 537.923C508.068 516.443 638.741 463.344 693.919 326.344C697.51 326.412 701.708 326.519 706.595 326.684C707.926 326.729 709.363 326.783 710.901 326.84C737.157 327.819 792.648 329.887 847.252 308.496Z" fill="url(#paint3_linear_249_174)"/>
<path fill-rule="evenodd" clip-rule="evenodd" d="M1499.85 552.482C1499.95 548.167 1500 543.84 1500 539.501C1500 466.85 1485.64 397.554 1459.6 334.295C1457.05 334.303 1454.49 334.353 1451.92 334.449C1419.25 335.666 1384.11 344.259 1351.48 365.432C1318.77 386.647 1294.51 416.65 1277.7 451.443C1272.24 462.742 1269.71 462.939 1268.15 463.061C1267.93 463.078 1267.73 463.094 1267.54 463.139C1256.25 465.87 1239.94 465.241 1201.29 461.639C1199.75 461.495 1198.13 461.341 1196.44 461.179L1196.41 461.176C1166.73 458.337 1114.39 453.331 1065.69 468.864C1036.54 478.159 1007.77 494.679 983.589 521.416C959.994 547.507 944.858 578.795 935.452 612.015C934.884 614.021 934.354 615.718 933.875 617.142C928.217 617.076 918.449 616.575 902.222 614.736C899.761 614.457 896.999 614.121 893.972 613.752C868.45 610.64 824.096 605.233 782.38 612.813C724.056 623.411 670.974 657.563 638.375 723.388C620.606 759.268 580.98 787.348 530.808 806.979C519.522 811.394 508.542 815.045 498.372 818.039C537.074 882.113 588.725 937.486 649.699 980.534C711.619 949.768 782.148 898.993 823.526 815.952C832.544 815.25 846.335 816.728 878.912 820.42C879.506 820.487 880.112 820.556 880.731 820.626L880.879 820.643C908.878 823.831 961.662 829.84 1012.23 811.245C1075.77 787.879 1115.55 735.776 1134.62 668.412C1134.95 667.236 1135.28 666.187 1135.58 665.253C1137.32 665.157 1139.44 665.093 1141.96 665.095C1152.38 665.101 1164.44 666.102 1182.08 667.746C1183.94 667.919 1185.89 668.106 1187.94 668.302C1218.1 671.196 1268.05 675.987 1316.21 664.336C1377.41 649.532 1430.65 610.692 1464.08 541.507C1471.29 542.277 1483.22 545.244 1499.85 552.482ZM1138.23 658.871C1138.24 658.856 1138.24 658.848 1138.24 658.847C1138.24 658.847 1138.22 658.877 1138.18 658.942C1138.2 658.911 1138.22 658.887 1138.23 658.871ZM1466.71 536.991C1466.71 536.993 1466.68 537.027 1466.62 537.091C1466.68 537.021 1466.7 536.989 1466.71 536.991ZM825.739 812.005C825.739 812.005 825.731 812.016 825.714 812.037C825.731 812.015 825.739 812.005 825.739 812.005Z" fill="url(#paint4_linear_249_174)"/>
<path fill-rule="evenodd" clip-rule="evenodd" d="M1423.04 817.356C1471.9 736.199 1500 641.131 1500 539.499C1500 526.429 1499.53 513.468 1498.62 500.631C1474.49 504.798 1449.82 513.511 1426.43 528.684C1393.73 549.899 1369.46 579.902 1352.66 614.695C1347.2 625.994 1344.67 626.191 1343.11 626.313C1342.89 626.33 1342.69 626.346 1342.5 626.391C1331.21 629.122 1314.9 628.493 1276.25 624.891C1274.71 624.747 1273.09 624.593 1271.4 624.431L1271.37 624.428C1241.68 621.589 1189.35 616.583 1140.65 632.116C1111.5 641.411 1082.72 657.931 1058.55 684.668C1034.95 710.759 1019.82 742.047 1010.41 775.267C1009.84 777.273 1009.31 778.97 1008.83 780.394C1003.17 780.328 993.405 779.827 977.179 777.988C974.717 777.709 971.956 777.373 968.929 777.004C943.407 773.892 899.053 768.485 857.337 776.065C799.012 786.663 745.931 820.815 713.332 886.64C697.903 917.793 665.998 943.066 625.019 962.034C686.171 1010.65 758.118 1046.27 836.683 1064.72C860.373 1040.93 881.798 1012.69 898.483 979.204C907.501 978.502 921.292 979.98 953.869 983.672C954.463 983.739 955.068 983.808 955.686 983.878L955.836 983.895C983.835 987.083 1036.62 993.092 1087.19 974.497C1150.73 951.131 1190.5 899.028 1209.58 831.664C1209.91 830.488 1210.23 829.439 1210.54 828.505C1212.28 828.409 1214.39 828.345 1216.92 828.347C1227.34 828.353 1239.4 829.354 1257.04 830.998C1258.9 831.171 1260.85 831.358 1262.9 831.554C1293.06 834.448 1343.01 839.239 1391.17 827.588C1402.07 824.951 1412.71 821.553 1423.04 817.356ZM1213.2 822.099C1213.2 822.1 1213.18 822.133 1213.14 822.194C1213.18 822.129 1213.2 822.099 1213.2 822.099ZM900.696 975.257C900.696 975.257 900.688 975.268 900.671 975.289C900.687 975.267 900.696 975.257 900.696 975.257Z" fill="url(#paint5_linear_249_174)"/>
<path fill-rule="evenodd" clip-rule="evenodd" d="M1478.41 691.111C1412.9 915.262 1205.82 1079 960.5 1079C901.665 1079 845.029 1069.58 792.018 1052.17C808.117 1002.19 839.427 961.438 889.222 937.432C940.842 912.545 999.265 914.396 1030.74 915.393C1031.83 915.427 1032.9 915.461 1033.93 915.493C1072.62 916.676 1089.4 916.905 1100.12 914.6C1100.37 913.841 1100.65 912.957 1100.94 911.934C1110.02 879.854 1125.17 846.703 1152.07 820.196C1180.93 791.763 1215.25 778.869 1247.54 775.352C1276.79 772.165 1303.61 776.734 1321.94 780.663C1333.44 783.128 1348.31 787.012 1359.68 789.985L1359.68 789.985C1364.5 791.244 1368.69 792.339 1371.73 793.093C1402.42 800.7 1410.31 798.947 1412.14 798.319C1412.33 798.252 1412.71 798.112 1413.44 797.64C1414.2 797.146 1415.86 795.943 1418.3 793.376C1423.36 788.059 1431.87 776.763 1441.75 754.471C1451.77 731.833 1463.95 710.308 1478.41 691.111ZM1098.49 918.468C1098.49 918.466 1098.52 918.405 1098.59 918.295C1098.53 918.416 1098.49 918.471 1098.49 918.468Z" fill="url(#paint6_linear_249_174)"/>
<defs>
<linearGradient id="paint0_linear_249_174" x1="1500" y1="208.766" x2="421" y2="870.234" gradientUnits="userSpaceOnUse">
<stop stop-color="#FE8019"/>
<stop offset="1" stop-color="#282828"/>
</linearGradient>
<linearGradient id="paint1_linear_249_174" x1="1.59016e-05" y1="1080" x2="1920" y2="0.000173746" gradientUnits="userSpaceOnUse">
<stop offset="0.3" stop-color="#282828"/>
<stop offset="1" stop-color="#FABD2F"/>
</linearGradient>
<linearGradient id="paint2_linear_249_174" x1="-1.60569e-05" y1="1080" x2="1920" y2="-2.32364e-05" gradientUnits="userSpaceOnUse">
<stop offset="0.3" stop-color="#282828"/>
<stop offset="1" stop-color="#B16286"/>
</linearGradient>
<linearGradient id="paint3_linear_249_174" x1="1.37099e-05" y1="1080" x2="1920" y2="0.000167991" gradientUnits="userSpaceOnUse">
<stop offset="0.3" stop-color="#282828"/>
<stop offset="1" stop-color="#D3869B"/>
</linearGradient>
<linearGradient id="paint4_linear_249_174" x1="-1.42482e-06" y1="1080" x2="1920" y2="0.000786728" gradientUnits="userSpaceOnUse">
<stop offset="0.3" stop-color="#282828"/>
<stop offset="1" stop-color="#98971A"/>
</linearGradient>
<linearGradient id="paint5_linear_249_174" x1="2.96486e-06" y1="1080" x2="1920" y2="-0.000525568" gradientUnits="userSpaceOnUse">
<stop offset="0.3" stop-color="#282828"/>
<stop offset="1" stop-color="#689D6A"/>
</linearGradient>
<linearGradient id="paint6_linear_249_174" x1="9.98542e-06" y1="1080" x2="1920" y2="0.000632368" gradientUnits="userSpaceOnUse">
<stop offset="0.3" stop-color="#282828"/>
<stop offset="1" stop-color="#75B478"/>
</linearGradient>
</defs>
</svg>
