<svg width="1920" height="1080" viewBox="0 0 1920 1080" fill="none" xmlns="http://www.w3.org/2000/svg">
<rect width="1920" height="1080" fill="#282828"/>
<path d="M33.08 1038V1008.8H38.08V1020.52H45.92V1008.8H50.92V1038H45.92V1025.16H38.08V1038H33.08ZM72.3844 1038.36C70.5177 1038.36 68.891 1038.01 67.5044 1037.32C66.1444 1036.6 65.0777 1035.6 64.3044 1034.32C63.5577 1033.01 63.1844 1031.48 63.1844 1029.72V1024.28C63.1844 1022.52 63.5577 1021 64.3044 1019.72C65.0777 1018.41 66.1444 1017.41 67.5044 1016.72C68.891 1016 70.5177 1015.64 72.3844 1015.64C74.2777 1015.64 75.9044 1016 77.2644 1016.72C78.6244 1017.41 79.6777 1018.41 80.4244 1019.72C81.1977 1021 81.5844 1022.51 81.5844 1024.24V1029.72C81.5844 1031.48 81.1977 1033.01 80.4244 1034.32C79.6777 1035.6 78.6244 1036.6 77.2644 1037.32C75.9044 1038.01 74.2777 1038.36 72.3844 1038.36ZM72.3844 1034C73.7177 1034 74.7444 1033.64 75.4644 1032.92C76.211 1032.17 76.5844 1031.11 76.5844 1029.72V1024.28C76.5844 1022.87 76.211 1021.8 75.4644 1021.08C74.7444 1020.36 73.7177 1020 72.3844 1020C71.0777 1020 70.051 1020.36 69.3044 1021.08C68.5577 1021.8 68.1844 1022.87 68.1844 1024.28V1029.72C68.1844 1031.11 68.5577 1032.17 69.3044 1032.92C70.051 1033.64 71.0777 1034 72.3844 1034ZM101.929 1038.36C100.249 1038.36 98.7821 1038.09 97.5287 1037.56C96.2754 1037.03 95.2887 1036.29 94.5687 1035.36C93.8754 1034.4 93.5021 1033.28 93.4487 1032H98.4487C98.5021 1032.69 98.8354 1033.25 99.4487 1033.68C100.089 1034.11 100.915 1034.32 101.929 1034.32H103.689C104.915 1034.32 105.835 1034.08 106.449 1033.6C107.062 1033.12 107.369 1032.47 107.369 1031.64C107.369 1030.87 107.089 1030.27 106.529 1029.84C105.995 1029.39 105.155 1029.09 104.009 1028.96L101.289 1028.56C98.7821 1028.21 96.9421 1027.55 95.7687 1026.56C94.5954 1025.57 94.0087 1024.09 94.0087 1022.12C94.0087 1020.07 94.7021 1018.48 96.0887 1017.36C97.4754 1016.21 99.5154 1015.64 102.209 1015.64H103.729C106.182 1015.64 108.142 1016.19 109.609 1017.28C111.075 1018.37 111.862 1019.84 111.969 1021.68H106.969C106.889 1021.09 106.555 1020.61 105.969 1020.24C105.409 1019.87 104.662 1019.68 103.729 1019.68H102.209C101.062 1019.68 100.222 1019.89 99.6887 1020.32C99.1821 1020.72 98.9287 1021.32 98.9287 1022.12C98.9287 1022.87 99.1554 1023.43 99.6087 1023.8C100.062 1024.15 100.795 1024.4 101.809 1024.56L104.649 1024.96C107.262 1025.33 109.182 1026.04 110.409 1027.08C111.662 1028.09 112.289 1029.6 112.289 1031.6C112.289 1033.73 111.555 1035.4 110.089 1036.6C108.649 1037.77 106.515 1038.36 103.689 1038.36H101.929ZM135.553 1038C133.446 1038 131.793 1037.41 130.593 1036.24C129.42 1035.07 128.833 1033.45 128.833 1031.4V1020.52H122.873V1016H128.833V1009.8H133.873V1016H142.313V1020.52H133.873V1031.4C133.873 1032.79 134.553 1033.48 135.913 1033.48H141.913V1038H135.553ZM193.882 1019.4L199.082 1006.96H203.442L200.242 1019.4H193.882ZM184.002 1019.4L189.202 1006.96H193.562L190.362 1019.4H184.002ZM215.826 1038V1008.8H233.346V1013.16H220.746V1020.76H231.946V1025.08H220.746V1033.64H233.346V1038H215.826ZM254.691 1038.36C252.824 1038.36 251.197 1038.01 249.811 1037.32C248.451 1036.6 247.384 1035.6 246.611 1034.32C245.864 1033.01 245.491 1031.48 245.491 1029.72V1024.28C245.491 1022.52 245.864 1021 246.611 1019.72C247.384 1018.41 248.451 1017.41 249.811 1016.72C251.197 1016 252.824 1015.64 254.691 1015.64C256.584 1015.64 258.211 1016 259.571 1016.72C260.931 1017.41 261.984 1018.41 262.731 1019.72C263.504 1021 263.891 1022.51 263.891 1024.24V1029.72C263.891 1031.48 263.504 1033.01 262.731 1034.32C261.984 1035.6 260.931 1036.6 259.571 1037.32C258.211 1038.01 256.584 1038.36 254.691 1038.36ZM254.691 1034C256.024 1034 257.051 1033.64 257.771 1032.92C258.517 1032.17 258.891 1031.11 258.891 1029.72V1024.28C258.891 1022.87 258.517 1021.8 257.771 1021.08C257.051 1020.36 256.024 1020 254.691 1020C253.384 1020 252.357 1020.36 251.611 1021.08C250.864 1021.8 250.491 1022.87 250.491 1024.28V1029.72C250.491 1031.11 250.864 1032.17 251.611 1032.92C252.357 1033.64 253.384 1034 254.691 1034ZM284.235 1038.36C282.555 1038.36 281.088 1038.09 279.835 1037.56C278.582 1037.03 277.595 1036.29 276.875 1035.36C276.182 1034.4 275.808 1033.28 275.755 1032H280.755C280.808 1032.69 281.142 1033.25 281.755 1033.68C282.395 1034.11 283.222 1034.32 284.235 1034.32H285.995C287.222 1034.32 288.142 1034.08 288.755 1033.6C289.368 1033.12 289.675 1032.47 289.675 1031.64C289.675 1030.87 289.395 1030.27 288.835 1029.84C288.302 1029.39 287.462 1029.09 286.315 1028.96L283.595 1028.56C281.088 1028.21 279.248 1027.55 278.075 1026.56C276.902 1025.57 276.315 1024.09 276.315 1022.12C276.315 1020.07 277.008 1018.48 278.395 1017.36C279.782 1016.21 281.822 1015.64 284.515 1015.64H286.035C288.488 1015.64 290.448 1016.19 291.915 1017.28C293.382 1018.37 294.168 1019.84 294.275 1021.68H289.275C289.195 1021.09 288.862 1020.61 288.275 1020.24C287.715 1019.87 286.968 1019.68 286.035 1019.68H284.515C283.368 1019.68 282.528 1019.89 281.995 1020.32C281.488 1020.72 281.235 1021.32 281.235 1022.12C281.235 1022.87 281.462 1023.43 281.915 1023.8C282.368 1024.15 283.102 1024.4 284.115 1024.56L286.955 1024.96C289.568 1025.33 291.488 1026.04 292.715 1027.08C293.968 1028.09 294.595 1029.6 294.595 1031.6C294.595 1033.73 293.862 1035.4 292.395 1036.6C290.955 1037.77 288.822 1038.36 285.995 1038.36H284.235ZM315.819 1019.4L319.019 1006.96H325.379L320.179 1019.4H315.819ZM305.939 1019.4L309.139 1006.96H315.499L310.299 1019.4H305.939Z" fill="#EBDBB2"/>
<path d="M32.88 988V958.8H39L47.12 982.4C47.04 981.547 46.9467 980.547 46.84 979.4C46.76 978.227 46.6933 977.04 46.64 975.84C46.5867 974.613 46.56 973.547 46.56 972.64V958.8H51.12V988H45L36.96 964.4C37.0133 965.173 37.08 966.107 37.16 967.2C37.24 968.293 37.3067 969.413 37.36 970.56C37.4133 971.707 37.44 972.76 37.44 973.72V988H32.88ZM63.4244 988V983.44H71.1044V970.52H64.4244V966H75.9044V983.44H82.7044V988H63.4244ZM73.1044 962.32C72.091 962.32 71.291 962.067 70.7044 961.56C70.1177 961.027 69.8244 960.32 69.8244 959.44C69.8244 958.56 70.1177 957.867 70.7044 957.36C71.291 956.827 72.091 956.56 73.1044 956.56C74.1177 956.56 74.9177 956.827 75.5044 957.36C76.091 957.867 76.3844 958.56 76.3844 959.44C76.3844 960.32 76.091 961.027 75.5044 961.56C74.9177 962.067 74.1177 962.32 73.1044 962.32ZM92.2087 988L99.8887 976.64L92.7287 966H98.3687L101.769 971.4C101.982 971.72 102.169 972.08 102.329 972.48C102.515 972.88 102.662 973.2 102.769 973.44C102.875 973.2 103.022 972.88 103.209 972.48C103.395 972.08 103.582 971.72 103.769 971.4L107.209 966H112.849L105.689 976.64L113.329 988H107.649L103.849 981.96C103.635 981.613 103.435 981.24 103.249 980.84C103.062 980.44 102.902 980.12 102.769 979.88C102.662 980.12 102.515 980.44 102.329 980.84C102.142 981.24 101.942 981.613 101.729 981.96L97.8487 988H92.2087ZM133.153 988.4C131.286 988.4 129.66 988.053 128.273 987.36C126.913 986.64 125.86 985.64 125.113 984.36C124.393 983.053 124.033 981.52 124.033 979.76V967.04C124.033 965.28 124.393 963.76 125.113 962.48C125.86 961.173 126.913 960.173 128.273 959.48C129.66 958.76 131.286 958.4 133.153 958.4C135.046 958.4 136.673 958.76 138.033 959.48C139.393 960.173 140.433 961.173 141.153 962.48C141.9 963.76 142.273 965.267 142.273 967V979.76C142.273 981.52 141.9 983.053 141.153 984.36C140.433 985.64 139.393 986.64 138.033 987.36C136.673 988.053 135.046 988.4 133.153 988.4ZM133.153 984C134.513 984 135.54 983.64 136.233 982.92C136.926 982.173 137.273 981.12 137.273 979.76V967.04C137.273 965.653 136.926 964.6 136.233 963.88C135.54 963.16 134.513 962.8 133.153 962.8C131.793 962.8 130.766 963.16 130.073 963.88C129.38 964.6 129.033 965.653 129.033 967.04V979.76C129.033 981.12 129.38 982.173 130.073 982.92C130.793 983.64 131.82 984 133.153 984ZM163.617 988.4C161.617 988.4 159.884 988.067 158.417 987.4C156.951 986.733 155.817 985.787 155.017 984.56C154.244 983.307 153.844 981.84 153.817 980.16H158.817C158.817 981.36 159.244 982.307 160.097 983C160.977 983.667 162.164 984 163.657 984C165.097 984 166.217 983.667 167.017 983C167.844 982.333 168.257 981.413 168.257 980.24C168.257 979.253 167.964 978.4 167.377 977.68C166.817 976.933 166.004 976.427 164.937 976.16L161.577 975.24C159.284 974.653 157.511 973.6 156.257 972.08C155.031 970.56 154.417 968.72 154.417 966.56C154.417 964.907 154.791 963.467 155.537 962.24C156.284 961.013 157.337 960.067 158.697 959.4C160.084 958.733 161.711 958.4 163.577 958.4C166.404 958.4 168.644 959.133 170.297 960.6C171.951 962.04 172.791 963.987 172.817 966.44H167.817C167.817 965.293 167.444 964.4 166.697 963.76C165.951 963.093 164.897 962.76 163.537 962.76C162.231 962.76 161.217 963.067 160.497 963.68C159.777 964.293 159.417 965.16 159.417 966.28C159.417 967.293 159.684 968.16 160.217 968.88C160.777 969.573 161.577 970.067 162.617 970.36L166.097 971.32C168.417 971.907 170.191 972.96 171.417 974.48C172.644 975.973 173.258 977.827 173.258 980.04C173.258 981.693 172.857 983.16 172.057 984.44C171.257 985.693 170.137 986.667 168.697 987.36C167.257 988.053 165.564 988.4 163.617 988.4ZM215.466 988V983.16L224.586 974C225.866 972.693 226.813 971.52 227.426 970.48C228.04 969.413 228.346 968.32 228.346 967.2C228.346 965.84 227.973 964.787 227.226 964.04C226.48 963.267 225.466 962.88 224.186 962.88C222.773 962.88 221.666 963.293 220.866 964.12C220.066 964.92 219.666 966.04 219.666 967.48H214.666C214.693 965.613 215.093 964.013 215.866 962.68C216.666 961.32 217.786 960.267 219.226 959.52C220.666 958.773 222.346 958.4 224.266 958.4C226.106 958.4 227.706 958.747 229.066 959.44C230.426 960.133 231.48 961.107 232.226 962.36C232.973 963.613 233.346 965.107 233.346 966.84C233.346 968.627 232.88 970.373 231.946 972.08C231.04 973.76 229.573 975.573 227.546 977.52L221.466 983.48H233.706V988H215.466ZM258.291 988V982.2H245.291V974.96L256.531 958.8H262.131L250.091 976.28V977.8H258.291V971.2H263.291V988H258.291ZM285.075 988.4C283.928 988.4 283.008 988.067 282.315 987.4C281.648 986.733 281.315 985.827 281.315 984.68C281.315 983.533 281.648 982.627 282.315 981.96C283.008 981.267 283.928 980.92 285.075 980.92C286.222 980.92 287.128 981.267 287.795 981.96C288.488 982.627 288.835 983.533 288.835 984.68C288.835 985.827 288.488 986.733 287.795 987.4C287.128 988.067 286.222 988.4 285.075 988.4ZM306.819 988V983.6H314.419V963.24L306.779 968.92V963.64L313.499 958.8H319.419V983.6H325.539V988H306.819ZM337.204 988V983.6H344.804V963.24L337.164 968.92V963.64L343.884 958.8H349.804V983.6H355.924V988H337.204Z" fill="#EBDBB2"/>
<g clip-path="url(#clip0_320_297)">
<path d="M1058 638C1112.12 638 1156 594.124 1156 540C1156 485.876 1112.12 442 1058 442C1003.88 442 960 485.876 960 540C960 594.124 1003.88 638 1058 638Z" fill="url(#paint0_linear_320_297)"/>
<path fill-rule="evenodd" clip-rule="evenodd" d="M1134.76 479.074C1144.91 491.836 1151.93 507.185 1154.7 523.971C1154.43 523.835 1154.16 523.696 1153.88 523.555C1149.95 521.562 1144.92 519.353 1139.81 517.945C1134.47 516.47 1130.64 516.321 1128.39 516.806C1127.1 517.083 1126.3 517.41 1125.27 519.449C1118.71 532.422 1108.15 539.165 1096.36 540.805C1087.22 542.077 1078.16 540.047 1072.81 538.797C1071.95 542.886 1070.35 546.92 1067.7 550.626C1063.27 556.819 1057.3 560.18 1051.93 561.963C1042.96 564.946 1032.47 564.375 1026.15 564.03C1025.88 564.015 1025.62 564.001 1025.36 563.987C1019.68 563.684 1015.99 563.53 1013.45 563.644C1011.48 573.321 1006.71 581.203 999.843 586.915C992.726 592.833 984.577 595.42 977.966 596.57C970.265 585.693 964.724 573.178 961.971 559.65C962.306 559.688 962.668 559.725 963.055 559.758C965.592 559.977 968.582 560.005 971.295 559.563C974.099 559.106 975.384 558.351 975.801 558.004C975.943 557.886 976.036 557.781 976.145 557.574C976.264 557.35 976.58 556.662 976.751 555.199C977.569 548.218 980.293 541.506 985.586 536.177C990.661 531.067 996.696 528.646 1001.7 527.443C1009.98 525.451 1019.59 525.998 1025.78 526.351H1025.79C1026.34 526.383 1026.87 526.413 1027.36 526.439C1030.95 526.631 1033.75 526.75 1036.17 526.687C1036.53 522.212 1037.59 517.371 1040.13 512.855C1043.95 506.098 1049.95 502.055 1056.39 500.391C1061.94 498.957 1067.17 499.441 1070.55 499.932C1073.76 500.4 1077.12 501.186 1079.65 501.778C1079.87 501.83 1080.09 501.881 1080.29 501.93C1086.56 503.392 1089.37 503.781 1091.07 503.577C1091.22 503.365 1091.45 503.018 1091.72 502.481C1098.2 489.661 1108.83 482.56 1120.46 480.05C1125.32 479.001 1130.16 478.786 1134.76 479.074ZM1073.7 529.323C1073.7 529.318 1073.7 529.315 1073.7 529.315C1073.7 529.315 1073.69 529.331 1073.69 529.366C1073.69 529.345 1073.7 529.331 1073.7 529.323ZM1064.16 537.041C1064.16 537.041 1064.17 537.041 1064.19 537.041C1064.17 537.041 1064.16 537.041 1064.16 537.041ZM1010.27 564.063C1010.27 564.063 1010.28 564.06 1010.29 564.055C1010.28 564.061 1010.27 564.063 1010.27 564.063ZM1090.84 503.856C1090.83 503.855 1090.85 503.844 1090.87 503.824C1090.85 503.847 1090.84 503.857 1090.84 503.856Z" fill="url(#paint1_linear_320_297)"/>
<path fill-rule="evenodd" clip-rule="evenodd" d="M1101.29 452.057C1118.94 460.758 1133.58 474.611 1143.26 491.651C1139.53 489.821 1134.97 487.894 1130.36 486.622C1125.01 485.147 1121.18 484.998 1118.93 485.483C1117.65 485.76 1116.85 486.087 1115.82 488.126C1109.26 501.099 1098.7 507.842 1086.9 509.482C1077.76 510.754 1068.7 508.724 1063.36 507.474C1062.5 511.563 1060.89 515.597 1058.24 519.303C1053.81 525.496 1047.84 528.857 1042.48 530.64C1033.5 533.624 1023.02 533.052 1016.7 532.707C1016.42 532.693 1016.16 532.678 1015.9 532.664C1010.22 532.361 1006.53 532.208 1003.99 532.321C1002.02 541.998 997.257 549.88 990.387 555.592C983.045 561.698 974.603 564.257 967.887 565.352C966.383 565.597 964.903 565.779 963.462 565.909C961.205 557.656 960 548.968 960 539.999C960 536.074 960.231 532.203 960.679 528.399C961.07 528.355 961.457 528.302 961.839 528.24C964.643 527.783 965.928 527.028 966.345 526.681C966.487 526.563 966.58 526.458 966.689 526.251C966.808 526.027 967.124 525.339 967.295 523.876C968.113 516.895 970.837 510.183 976.13 504.854C981.205 499.744 987.24 497.324 992.246 496.119C1000.53 494.128 1010.13 494.675 1016.33 495.028H1016.33C1016.88 495.06 1017.41 495.09 1017.91 495.116C1021.49 495.308 1024.3 495.427 1026.72 495.364C1027.07 490.889 1028.13 486.048 1030.68 481.532C1034.49 474.775 1040.5 470.732 1046.93 469.068C1052.48 467.634 1057.71 468.118 1061.09 468.609C1064.31 469.077 1067.66 469.863 1070.19 470.455H1070.19C1070.41 470.508 1070.63 470.558 1070.84 470.607C1077.1 472.069 1079.91 472.458 1081.61 472.254C1081.77 472.042 1081.99 471.695 1082.26 471.159C1086.88 462.024 1093.6 455.792 1101.29 452.057ZM1064.24 497.992C1064.24 497.993 1064.24 498.01 1064.23 498.043C1064.24 498.008 1064.24 497.992 1064.24 497.992ZM1054.74 505.718C1054.71 505.717 1054.7 505.718 1054.7 505.718C1054.7 505.718 1054.7 505.718 1054.71 505.718C1054.72 505.718 1054.73 505.718 1054.74 505.718ZM1000.81 532.74C1000.81 532.74 1000.82 532.737 1000.84 532.732C1000.82 532.738 1000.81 532.74 1000.81 532.74ZM1081.41 472.501C1081.39 472.521 1081.38 472.533 1081.38 472.533C1081.38 472.534 1081.38 472.532 1081.39 472.527C1081.39 472.521 1081.4 472.513 1081.41 472.501Z" fill="url(#paint2_linear_320_297)"/>
<path fill-rule="evenodd" clip-rule="evenodd" d="M1037.43 498.038C1048.94 493.529 1057.33 484.822 1062.73 473.186C1063.79 473.342 1065.13 473.557 1066.82 473.858C1067.19 473.924 1067.6 473.998 1068.03 474.077C1073.49 475.07 1083.52 476.898 1093.59 475.433C1102.87 474.083 1111.62 470.18 1118.96 463.264C1102.23 449.953 1081.04 442 1058 442C1003.97 442 960.155 485.721 960 539.714C975.816 535.812 999.553 526.166 1009.58 501.28C1010.23 501.293 1010.99 501.312 1011.88 501.342C1012.12 501.35 1012.38 501.36 1012.66 501.37C1017.43 501.548 1027.51 501.924 1037.43 498.038Z" fill="url(#paint3_linear_320_297)"/>
<path fill-rule="evenodd" clip-rule="evenodd" d="M1155.97 542.358C1155.99 541.574 1156 540.788 1156 540C1156 526.803 1153.39 514.216 1148.66 502.725C1148.2 502.726 1147.73 502.735 1147.27 502.753C1141.33 502.974 1134.95 504.535 1129.02 508.381C1123.08 512.235 1118.67 517.685 1115.62 524.005C1114.63 526.057 1114.17 526.093 1113.89 526.115C1113.84 526.118 1113.81 526.121 1113.77 526.129C1111.72 526.625 1108.76 526.511 1101.74 525.857C1101.46 525.831 1101.17 525.802 1100.86 525.773L1100.85 525.772C1095.46 525.257 1085.95 524.348 1077.11 527.169C1071.81 528.857 1066.59 531.858 1062.19 536.715C1057.91 541.454 1055.16 547.138 1053.45 553.172C1053.35 553.537 1053.25 553.845 1053.16 554.104C1052.14 554.092 1050.36 554.001 1047.41 553.667C1046.97 553.616 1046.47 553.555 1045.92 553.488C1041.28 552.923 1033.22 551.94 1025.64 553.317C1015.05 555.242 1005.41 561.446 999.486 573.403C996.259 579.921 989.06 585.022 979.947 588.588C977.897 589.39 975.902 590.053 974.055 590.597C981.085 602.236 990.467 612.294 1001.54 620.114C1012.79 614.525 1025.6 605.302 1033.12 590.217C1034.76 590.09 1037.26 590.358 1043.18 591.029C1043.29 591.041 1043.4 591.054 1043.51 591.067L1043.54 591.07C1048.62 591.649 1058.21 592.74 1067.4 589.362C1078.94 585.118 1086.16 575.654 1089.63 563.417C1089.69 563.203 1089.75 563.013 1089.8 562.843C1090.12 562.826 1090.5 562.814 1090.96 562.814C1092.85 562.816 1095.05 562.997 1098.25 563.296C1098.59 563.327 1098.94 563.361 1099.31 563.397C1104.79 563.923 1113.87 564.793 1122.62 562.676C1133.73 559.987 1143.4 552.932 1149.48 540.365C1150.79 540.505 1152.95 541.043 1155.97 542.358ZM1090.28 561.684C1090.29 561.681 1090.29 561.68 1090.29 561.68C1090.29 561.68 1090.28 561.685 1090.28 561.697C1090.28 561.691 1090.28 561.687 1090.28 561.684ZM1149.95 539.544C1149.95 539.545 1149.95 539.551 1149.94 539.563C1149.95 539.55 1149.95 539.544 1149.95 539.544ZM1033.52 589.501C1033.52 589.501 1033.52 589.502 1033.52 589.506C1033.52 589.502 1033.52 589.501 1033.52 589.501Z" fill="url(#paint4_linear_320_297)"/>
<path fill-rule="evenodd" clip-rule="evenodd" d="M1142.02 590.473C1150.9 575.73 1156 558.461 1156 540C1156 537.626 1155.91 535.271 1155.75 532.939C1151.37 533.697 1146.88 535.279 1142.64 538.035C1136.7 541.889 1132.29 547.339 1129.23 553.659C1128.24 555.712 1127.78 555.748 1127.5 555.77C1127.46 555.773 1127.42 555.776 1127.39 555.784C1125.34 556.28 1122.38 556.166 1115.36 555.511C1115.08 555.485 1114.78 555.457 1114.47 555.428L1114.47 555.427C1109.08 554.911 1099.57 554.002 1090.72 556.824C1085.43 558.512 1080.2 561.513 1075.81 566.37C1071.52 571.109 1068.77 576.793 1067.07 582.827C1066.96 583.192 1066.87 583.5 1066.78 583.758C1065.75 583.747 1063.98 583.656 1061.03 583.321C1060.58 583.271 1060.08 583.21 1059.53 583.143C1054.9 582.577 1046.84 581.595 1039.26 582.972C1028.67 584.897 1019.02 591.101 1013.1 603.058C1010.3 608.717 1004.5 613.308 997.06 616.753C1008.17 625.584 1021.24 632.055 1035.51 635.406C1039.81 631.085 1043.7 625.955 1046.73 619.872C1048.37 619.745 1050.88 620.013 1056.8 620.684C1056.9 620.696 1057.01 620.708 1057.13 620.721L1057.15 620.724C1062.24 621.303 1071.83 622.395 1081.01 619.017C1092.55 614.773 1099.78 605.308 1103.25 593.071C1103.31 592.858 1103.36 592.667 1103.42 592.498C1103.74 592.48 1104.12 592.469 1104.58 592.469C1106.47 592.47 1108.66 592.652 1111.87 592.951C1112.2 592.982 1112.56 593.016 1112.93 593.052C1118.41 593.577 1127.48 594.447 1136.23 592.331C1138.21 591.852 1140.14 591.235 1142.02 590.473ZM1103.9 591.334C1103.9 591.334 1103.9 591.34 1103.89 591.351C1103.9 591.34 1103.9 591.334 1103.9 591.334ZM1047.14 619.155C1047.14 619.155 1047.14 619.157 1047.13 619.161C1047.14 619.157 1047.14 619.155 1047.14 619.155Z" fill="url(#paint5_linear_320_297)"/>
<path fill-rule="evenodd" clip-rule="evenodd" d="M1152.08 567.541C1140.18 608.258 1102.56 638.001 1058 638.001C1047.31 638.001 1037.02 636.29 1027.4 633.127C1030.32 624.048 1036.01 616.646 1045.05 612.285C1054.43 607.764 1065.04 608.1 1070.76 608.282C1070.96 608.288 1071.15 608.294 1071.34 608.3C1078.37 608.515 1081.42 608.556 1083.36 608.138C1083.41 608 1083.46 607.839 1083.51 607.653C1085.16 601.826 1087.91 595.804 1092.8 590.989C1098.04 585.824 1104.27 583.482 1110.14 582.843C1115.45 582.264 1120.33 583.094 1123.66 583.808C1125.75 584.256 1128.44 584.961 1130.51 585.501L1130.51 585.501C1131.39 585.73 1132.15 585.929 1132.7 586.066C1138.28 587.448 1139.71 587.129 1140.04 587.015C1140.08 587.003 1140.14 586.978 1140.28 586.892C1140.41 586.802 1140.72 586.584 1141.16 586.117C1142.08 585.151 1143.62 583.099 1145.42 579.05C1147.24 574.938 1149.45 571.028 1152.08 567.541ZM1083.07 608.84C1083.07 608.84 1083.07 608.829 1083.08 608.809C1083.07 608.831 1083.07 608.841 1083.07 608.84Z" fill="url(#paint6_linear_320_297)"/>
</g>
<path d="M1183.38 520.07L1182.22 513.167L1175.1 514.364C1173.39 507.026 1170.94 499.863 1167.8 492.915L1174.19 489.595L1170.96 483.385C1165.16 472.241 1157.71 461.731 1148.86 451.995L1144.15 446.817L1138.86 451.628C1133.64 446.363 1127.97 441.34 1121.88 436.588L1126.06 430.817L1120.39 426.711C1110.45 419.514 1099.58 413 1087.94 407.262L1081.66 404.169L1078.52 410.54C1071.75 407.45 1064.73 404.618 1057.47 402.064L1059.65 395.314L1052.99 393.164C1041.32 389.4 1029.13 386.328 1016.52 384.02L1009.63 382.759L1008.35 389.727C1000.98 388.559 993.47 387.655 985.837 387.03L986.253 379.963L979.266 379.551C973.077 379.186 966.819 379 960.5 379C954.181 379 947.923 379.186 941.734 379.551L934.747 379.963L935.163 387.03C927.53 387.655 920.017 388.559 912.646 389.727L911.371 382.759L904.485 384.02C891.87 386.328 879.677 389.4 868.011 393.164L861.349 395.314L863.527 402.064C856.272 404.618 849.248 407.45 842.482 410.54L839.344 404.169L833.064 407.262C821.417 413 810.548 419.514 800.61 426.711L794.941 430.817L799.12 436.588C793.031 441.34 787.358 446.363 782.141 451.628L776.85 446.817L772.141 451.995C763.288 461.731 755.838 472.241 750.043 483.385L746.814 489.595L753.197 492.915C750.065 499.863 747.615 507.026 745.902 514.364L738.781 513.167L737.621 520.07C736.551 526.441 736 532.926 736 539.5C736 546.074 736.551 552.559 737.621 558.93L738.781 565.833L745.902 564.636C747.615 571.974 750.065 579.137 753.197 586.085L746.814 589.405L750.043 595.615C755.838 606.759 763.288 617.269 772.141 627.005L776.85 632.183L782.141 627.372C787.358 632.637 793.031 637.66 799.12 642.412L794.941 648.183L800.61 652.289C810.548 659.486 821.417 666 833.064 671.738L839.344 674.831L842.482 668.46C849.248 671.55 856.272 674.382 863.527 676.936L861.349 683.686L868.011 685.836C879.677 689.6 891.87 692.672 904.485 694.98L911.371 696.241L912.646 689.273C920.017 690.441 927.53 691.345 935.163 691.97L934.747 699.037L941.734 699.449C947.923 699.814 954.181 700 960.5 700C966.819 700 973.077 699.814 979.266 699.449L986.253 699.037L985.837 691.97C993.47 691.345 1000.98 690.441 1008.35 689.273L1009.63 696.241L1016.52 694.98C1029.13 692.672 1041.32 689.6 1052.99 685.836L1059.65 683.686L1057.47 676.936C1064.73 674.382 1071.75 671.55 1078.52 668.46L1081.66 674.831L1087.94 671.738C1099.58 666 1110.45 659.486 1120.39 652.289L1126.06 648.183L1121.88 642.412C1127.97 637.66 1133.64 632.637 1138.86 627.372L1144.15 632.184L1148.86 627.005C1157.71 617.269 1165.16 606.759 1170.96 595.615L1174.19 589.405L1167.8 586.085C1170.94 579.137 1173.39 571.974 1175.1 564.636L1182.22 565.833L1183.38 558.93C1184.45 552.559 1185 546.074 1185 539.5C1185 532.926 1184.45 526.441 1183.38 520.07Z" stroke="#948276" stroke-opacity="0.35" stroke-width="14" stroke-linecap="square" stroke-linejoin="round" stroke-dasharray="35 35"/>
<path d="M770.88 770V740.8H777L785.12 764.4C785.04 763.547 784.947 762.547 784.84 761.4C784.76 760.227 784.693 759.04 784.64 757.84C784.587 756.613 784.56 755.547 784.56 754.64V740.8H789.12V770H783L774.96 746.4C775.013 747.173 775.08 748.107 775.16 749.2C775.24 750.293 775.307 751.413 775.36 752.56C775.413 753.707 775.44 754.76 775.44 755.72V770H770.88ZM801.544 770.4C799.278 770.4 797.491 769.8 796.184 768.6C794.878 767.4 794.224 765.787 794.224 763.76C794.224 761.6 794.944 759.933 796.384 758.76C797.824 757.587 799.864 757 802.504 757H807.984V755.12C807.984 754.053 807.638 753.227 806.944 752.64C806.251 752.027 805.304 751.72 804.104 751.72C803.011 751.72 802.104 751.96 801.384 752.44C800.664 752.92 800.238 753.573 800.104 754.4H795.224C795.464 752.32 796.398 750.667 798.024 749.44C799.651 748.213 801.731 747.6 804.264 747.6C806.958 747.6 809.078 748.28 810.624 749.64C812.198 750.973 812.984 752.787 812.984 755.08V770H808.144V766.16H807.344L808.144 765.08C808.144 766.707 807.544 768 806.344 768.96C805.144 769.92 803.544 770.4 801.544 770.4ZM803.184 766.64C804.598 766.64 805.744 766.28 806.624 765.56C807.531 764.84 807.984 763.907 807.984 762.76V760.08H802.584C801.571 760.08 800.758 760.373 800.144 760.96C799.531 761.547 799.224 762.32 799.224 763.28C799.224 764.32 799.571 765.147 800.264 765.76C800.984 766.347 801.958 766.64 803.184 766.64ZM818.049 770V748H822.129V750.96H822.969L822.289 751.68C822.289 750.453 822.635 749.467 823.329 748.72C824.022 747.973 824.915 747.6 826.009 747.6C827.182 747.6 828.089 748.08 828.729 749.04C829.395 750 829.729 751.293 829.729 752.92L828.849 750.96H830.209L829.689 751.68C829.689 750.453 830.035 749.467 830.729 748.72C831.422 747.973 832.342 747.6 833.489 747.6C834.849 747.6 835.929 748.107 836.729 749.12C837.529 750.133 837.929 751.507 837.929 753.24V770H833.529V753.44C833.529 752.72 833.369 752.16 833.049 751.76C832.729 751.333 832.262 751.12 831.649 751.12C831.062 751.12 830.595 751.32 830.249 751.72C829.929 752.12 829.769 752.693 829.769 753.44V770H826.169V753.44C826.169 752.693 826.009 752.12 825.689 751.72C825.369 751.32 824.902 751.12 824.289 751.12C823.675 751.12 823.209 751.32 822.889 751.72C822.595 752.12 822.449 752.693 822.449 753.44V770H818.049ZM851.993 770.4C850.126 770.4 848.5 770.04 847.113 769.32C845.726 768.6 844.646 767.6 843.873 766.32C843.126 765.013 842.753 763.493 842.753 761.76V756.24C842.753 754.507 843.126 753 843.873 751.72C844.646 750.413 845.726 749.4 847.113 748.68C848.5 747.96 850.126 747.6 851.993 747.6C853.833 747.6 855.433 747.96 856.793 748.68C858.18 749.4 859.246 750.413 859.993 751.72C860.766 753 861.153 754.507 861.153 756.24V760.2H847.593V761.76C847.593 763.307 847.966 764.48 848.713 765.28C849.46 766.053 850.566 766.44 852.033 766.44C853.153 766.44 854.06 766.253 854.753 765.88C855.446 765.48 855.886 764.907 856.073 764.16H860.993C860.62 766.053 859.606 767.573 857.953 768.72C856.326 769.84 854.34 770.4 851.993 770.4ZM856.313 757.4V756.2C856.313 754.68 855.953 753.52 855.233 752.72C854.513 751.893 853.433 751.48 851.993 751.48C850.553 751.48 849.46 751.893 848.713 752.72C847.966 753.547 847.593 754.72 847.593 756.24V757.08L856.673 757L856.313 757.4ZM875.938 754.32C874.818 754.32 873.911 754.013 873.218 753.4C872.551 752.76 872.218 751.947 872.218 750.96C872.218 749.947 872.551 749.133 873.218 748.52C873.911 747.907 874.818 747.6 875.938 747.6C877.058 747.6 877.951 747.907 878.618 748.52C879.311 749.133 879.658 749.947 879.658 750.96C879.658 751.947 879.311 752.76 878.618 753.4C877.951 754.013 877.058 754.32 875.938 754.32ZM875.938 770.4C874.818 770.4 873.911 770.093 873.218 769.48C872.551 768.867 872.218 768.053 872.218 767.04C872.218 766.027 872.551 765.213 873.218 764.6C873.911 763.987 874.818 763.68 875.938 763.68C877.058 763.68 877.951 763.987 878.618 764.6C879.311 765.213 879.658 766.027 879.658 767.04C879.658 768.053 879.311 768.867 878.618 769.48C877.951 770.093 877.058 770.4 875.938 770.4ZM915.426 770V740.8H932.946V745.16H920.346V752.76H931.546V757.08H920.346V765.64H932.946V770H915.426ZM947.891 770.36C946.024 770.36 944.397 770.013 943.011 769.32C941.651 768.6 940.584 767.6 939.811 766.32C939.064 765.013 938.691 763.48 938.691 761.72V756.28C938.691 754.52 939.064 753 939.811 751.72C940.584 750.413 941.651 749.413 943.011 748.72C944.397 748 946.024 747.64 947.891 747.64C949.784 747.64 951.411 748 952.771 748.72C954.131 749.413 955.184 750.413 955.931 751.72C956.704 753 957.091 754.507 957.091 756.24V761.72C957.091 763.48 956.704 765.013 955.931 766.32C955.184 767.6 954.131 768.6 952.771 769.32C951.411 770.013 949.784 770.36 947.891 770.36ZM947.891 766C949.224 766 950.251 765.64 950.971 764.92C951.717 764.173 952.091 763.107 952.091 761.72V756.28C952.091 754.867 951.717 753.8 950.971 753.08C950.251 752.36 949.224 752 947.891 752C946.584 752 945.557 752.36 944.811 753.08C944.064 753.8 943.691 754.867 943.691 756.28V761.72C943.691 763.107 944.064 764.173 944.811 764.92C945.557 765.64 946.584 766 947.891 766ZM971.035 770.36C969.355 770.36 967.888 770.093 966.635 769.56C965.382 769.027 964.395 768.293 963.675 767.36C962.982 766.4 962.608 765.28 962.555 764H967.555C967.608 764.693 967.942 765.253 968.555 765.68C969.195 766.107 970.022 766.32 971.035 766.32H972.795C974.022 766.32 974.942 766.08 975.555 765.6C976.168 765.12 976.475 764.467 976.475 763.64C976.475 762.867 976.195 762.267 975.635 761.84C975.102 761.387 974.262 761.093 973.115 760.96L970.395 760.56C967.888 760.213 966.048 759.547 964.875 758.56C963.702 757.573 963.115 756.093 963.115 754.12C963.115 752.067 963.808 750.48 965.195 749.36C966.582 748.213 968.622 747.64 971.315 747.64H972.835C975.288 747.64 977.248 748.187 978.715 749.28C980.182 750.373 980.968 751.84 981.075 753.68H976.075C975.995 753.093 975.662 752.613 975.075 752.24C974.515 751.867 973.768 751.68 972.835 751.68H971.315C970.168 751.68 969.328 751.893 968.795 752.32C968.288 752.72 968.035 753.32 968.035 754.12C968.035 754.867 968.262 755.427 968.715 755.8C969.168 756.147 969.902 756.4 970.915 756.56L973.755 756.96C976.368 757.333 978.288 758.04 979.515 759.08C980.768 760.093 981.395 761.6 981.395 763.6C981.395 765.733 980.662 767.4 979.195 768.6C977.755 769.773 975.622 770.36 972.795 770.36H971.035Z" fill="#EBDBB2" fill-opacity="0.75"/>
<path d="M770.24 821V791.8H776.16L779 801.08C779.293 802.013 779.533 802.867 779.72 803.64C779.907 804.413 780.027 804.973 780.08 805.32C780.133 804.973 780.253 804.413 780.44 803.64C780.627 802.867 780.853 802.013 781.12 801.08L783.84 791.8H789.76V821H785.08V811.92C785.08 810.587 785.12 809.133 785.2 807.56C785.28 805.987 785.373 804.413 785.48 802.84C785.587 801.267 785.707 799.773 785.84 798.36C786 796.947 786.133 795.707 786.24 794.64L782.32 808.44H777.76L773.72 794.64C773.853 795.653 773.987 796.853 774.12 798.24C774.253 799.6 774.373 801.067 774.48 802.64C774.613 804.187 774.72 805.76 774.8 807.36C774.88 808.96 774.92 810.48 774.92 811.92V821H770.24ZM801.544 821.4C799.278 821.4 797.491 820.8 796.184 819.6C794.878 818.4 794.224 816.787 794.224 814.76C794.224 812.6 794.944 810.933 796.384 809.76C797.824 808.587 799.864 808 802.504 808H807.984V806.12C807.984 805.053 807.638 804.227 806.944 803.64C806.251 803.027 805.304 802.72 804.104 802.72C803.011 802.72 802.104 802.96 801.384 803.44C800.664 803.92 800.238 804.573 800.104 805.4H795.224C795.464 803.32 796.398 801.667 798.024 800.44C799.651 799.213 801.731 798.6 804.264 798.6C806.958 798.6 809.078 799.28 810.624 800.64C812.198 801.973 812.984 803.787 812.984 806.08V821H808.144V817.16H807.344L808.144 816.08C808.144 817.707 807.544 819 806.344 819.96C805.144 820.92 803.544 821.4 801.544 821.4ZM803.184 817.64C804.598 817.64 805.744 817.28 806.624 816.56C807.531 815.84 807.984 814.907 807.984 813.76V811.08H802.584C801.571 811.08 800.758 811.373 800.144 811.96C799.531 812.547 799.224 813.32 799.224 814.28C799.224 815.32 799.571 816.147 800.264 816.76C800.984 817.347 801.958 817.64 803.184 817.64ZM827.129 821.36C825.449 821.36 823.982 821.093 822.729 820.56C821.475 820.027 820.489 819.293 819.769 818.36C819.075 817.4 818.702 816.28 818.649 815H823.649C823.702 815.693 824.035 816.253 824.649 816.68C825.289 817.107 826.115 817.32 827.129 817.32H828.889C830.115 817.32 831.035 817.08 831.649 816.6C832.262 816.12 832.569 815.467 832.569 814.64C832.569 813.867 832.289 813.267 831.729 812.84C831.195 812.387 830.355 812.093 829.209 811.96L826.489 811.56C823.982 811.213 822.142 810.547 820.969 809.56C819.795 808.573 819.209 807.093 819.209 805.12C819.209 803.067 819.902 801.48 821.289 800.36C822.675 799.213 824.715 798.64 827.409 798.64H828.929C831.382 798.64 833.342 799.187 834.809 800.28C836.275 801.373 837.062 802.84 837.169 804.68H832.169C832.089 804.093 831.755 803.613 831.169 803.24C830.609 802.867 829.862 802.68 828.929 802.68H827.409C826.262 802.68 825.422 802.893 824.889 803.32C824.382 803.72 824.129 804.32 824.129 805.12C824.129 805.867 824.355 806.427 824.809 806.8C825.262 807.147 825.995 807.4 827.009 807.56L829.849 807.96C832.462 808.333 834.382 809.04 835.609 810.08C836.862 811.093 837.489 812.6 837.489 814.6C837.489 816.733 836.755 818.4 835.289 819.6C833.849 820.773 831.715 821.36 828.889 821.36H827.129ZM851.113 821.36C849.433 821.36 847.966 821.093 846.713 820.56C845.46 820.027 844.473 819.293 843.753 818.36C843.06 817.4 842.686 816.28 842.633 815H847.633C847.686 815.693 848.02 816.253 848.633 816.68C849.273 817.107 850.1 817.32 851.113 817.32H852.873C854.1 817.32 855.02 817.08 855.633 816.6C856.246 816.12 856.553 815.467 856.553 814.64C856.553 813.867 856.273 813.267 855.713 812.84C855.18 812.387 854.34 812.093 853.193 811.96L850.473 811.56C847.966 811.213 846.126 810.547 844.953 809.56C843.78 808.573 843.193 807.093 843.193 805.12C843.193 803.067 843.886 801.48 845.273 800.36C846.66 799.213 848.7 798.64 851.393 798.64H852.913C855.366 798.64 857.326 799.187 858.793 800.28C860.26 801.373 861.046 802.84 861.153 804.68H856.153C856.073 804.093 855.74 803.613 855.153 803.24C854.593 802.867 853.846 802.68 852.913 802.68H851.393C850.246 802.68 849.406 802.893 848.873 803.32C848.366 803.72 848.113 804.32 848.113 805.12C848.113 805.867 848.34 806.427 848.793 806.8C849.246 807.147 849.98 807.4 850.993 807.56L853.833 807.96C856.446 808.333 858.366 809.04 859.593 810.08C860.846 811.093 861.473 812.6 861.473 814.6C861.473 816.733 860.74 818.4 859.273 819.6C857.833 820.773 855.7 821.36 852.873 821.36H851.113ZM875.938 805.32C874.818 805.32 873.911 805.013 873.218 804.4C872.551 803.76 872.218 802.947 872.218 801.96C872.218 800.947 872.551 800.133 873.218 799.52C873.911 798.907 874.818 798.6 875.938 798.6C877.058 798.6 877.951 798.907 878.618 799.52C879.311 800.133 879.658 800.947 879.658 801.96C879.658 802.947 879.311 803.76 878.618 804.4C877.951 805.013 877.058 805.32 875.938 805.32ZM875.938 821.4C874.818 821.4 873.911 821.093 873.218 820.48C872.551 819.867 872.218 819.053 872.218 818.04C872.218 817.027 872.551 816.213 873.218 815.6C873.911 814.987 874.818 814.68 875.938 814.68C877.058 814.68 877.951 814.987 878.618 815.6C879.311 816.213 879.658 817.027 879.658 818.04C879.658 819.053 879.311 819.867 878.618 820.48C877.951 821.093 877.058 821.4 875.938 821.4ZM923.906 821.4C922.013 821.4 920.373 821.04 918.986 820.32C917.6 819.6 916.52 818.587 915.746 817.28C915 815.973 914.626 814.44 914.626 812.68V800.12C914.626 798.36 915 796.827 915.746 795.52C916.52 794.213 917.6 793.2 918.986 792.48C920.373 791.76 922.013 791.4 923.906 791.4C925.826 791.4 927.466 791.76 928.826 792.48C930.213 793.2 931.28 794.213 932.026 795.52C932.8 796.827 933.186 798.36 933.186 800.12V812.68C933.186 814.44 932.8 815.973 932.026 817.28C931.28 818.587 930.213 819.6 928.826 820.32C927.44 821.04 925.8 821.4 923.906 821.4ZM923.906 817.08C925.293 817.08 926.4 816.68 927.226 815.88C928.053 815.08 928.466 814.013 928.466 812.68V800.12C928.466 798.787 928.053 797.72 927.226 796.92C926.4 796.12 925.293 795.72 923.906 795.72C922.52 795.72 921.413 796.12 920.586 796.92C919.76 797.72 919.346 798.787 919.346 800.12V812.68C919.346 814.013 919.76 815.08 920.586 815.88C921.413 816.68 922.52 817.08 923.906 817.08ZM923.906 809C923.133 809 922.493 808.747 921.986 808.24C921.506 807.733 921.266 807.08 921.266 806.28C921.266 805.48 921.506 804.84 921.986 804.36C922.466 803.88 923.106 803.64 923.906 803.64C924.706 803.64 925.346 803.88 925.826 804.36C926.306 804.84 926.546 805.48 926.546 806.28C926.546 807.08 926.306 807.733 925.826 808.24C925.346 808.747 924.706 809 923.906 809ZM947.891 821.4C946.744 821.4 945.824 821.067 945.131 820.4C944.464 819.733 944.131 818.827 944.131 817.68C944.131 816.533 944.464 815.627 945.131 814.96C945.824 814.267 946.744 813.92 947.891 813.92C949.037 813.92 949.944 814.267 950.611 814.96C951.304 815.627 951.651 816.533 951.651 817.68C951.651 818.827 951.304 819.733 950.611 820.4C949.944 821.067 949.037 821.4 947.891 821.4ZM971.875 821.4C969.955 821.4 968.288 821.08 966.875 820.44C965.462 819.773 964.368 818.84 963.595 817.64C962.822 816.44 962.435 815.04 962.435 813.44C962.435 811.68 962.928 810.173 963.915 808.92C964.902 807.667 966.368 806.6 968.315 805.72L972.795 803.68C973.755 803.227 974.502 802.613 975.035 801.84C975.595 801.067 975.875 800.2 975.875 799.24C975.875 798.147 975.515 797.28 974.795 796.64C974.075 795.973 973.102 795.64 971.875 795.64C970.648 795.64 969.662 795.973 968.915 796.64C968.195 797.307 967.835 798.187 967.835 799.28C967.835 800.213 968.115 801.067 968.675 801.84C969.235 802.613 969.982 803.213 970.915 803.64L975.355 805.68C977.462 806.613 978.982 807.72 979.915 809C980.848 810.253 981.315 811.733 981.315 813.44C981.315 815.893 980.462 817.84 978.755 819.28C977.075 820.693 974.782 821.4 971.875 821.4ZM971.875 817.12C973.262 817.12 974.355 816.76 975.155 816.04C975.982 815.293 976.395 814.32 976.395 813.12C976.395 812.187 976.115 811.307 975.555 810.48C974.995 809.627 974.222 808.973 973.235 808.52L968.475 806.32C966.662 805.467 965.275 804.453 964.315 803.28C963.382 802.08 962.915 800.653 962.915 799C962.915 797.507 963.275 796.187 963.995 795.04C964.715 793.893 965.742 793 967.075 792.36C968.435 791.72 970.035 791.4 971.875 791.4C973.715 791.4 975.288 791.72 976.595 792.36C977.928 793 978.955 793.893 979.675 795.04C980.422 796.187 980.795 797.507 980.795 799C980.795 800.68 980.328 802.107 979.395 803.28C978.462 804.453 977.088 805.467 975.275 806.32L970.475 808.56C969.515 808.987 968.755 809.613 968.195 810.44C967.635 811.267 967.355 812.147 967.355 813.08C967.355 814.28 967.755 815.253 968.555 816C969.382 816.747 970.488 817.12 971.875 817.12ZM987.219 821V816.6H994.819V796.24L987.179 801.92V796.64L993.899 791.8H999.819V816.6H1005.94V821H987.219ZM1035.35 821V791.8H1052.87V796.16H1040.27V803.76H1051.47V808.08H1040.27V816.64H1052.87V821H1035.35ZM1065.37 821.4C1063.11 821.4 1061.32 820.8 1060.01 819.6C1058.71 818.4 1058.05 816.787 1058.05 814.76C1058.05 812.6 1058.77 810.933 1060.21 809.76C1061.65 808.587 1063.69 808 1066.33 808H1071.81V806.12C1071.81 805.053 1071.47 804.227 1070.77 803.64C1070.08 803.027 1069.13 802.72 1067.93 802.72C1066.84 802.72 1065.93 802.96 1065.21 803.44C1064.49 803.92 1064.07 804.573 1063.93 805.4H1059.05C1059.29 803.32 1060.23 801.667 1061.85 800.44C1063.48 799.213 1065.56 798.6 1068.09 798.6C1070.79 798.6 1072.91 799.28 1074.45 800.64C1076.03 801.973 1076.81 803.787 1076.81 806.08V821H1071.97V817.16H1071.17L1071.97 816.08C1071.97 817.707 1071.37 819 1070.17 819.96C1068.97 820.92 1067.37 821.4 1065.37 821.4ZM1067.01 817.64C1068.43 817.64 1069.57 817.28 1070.45 816.56C1071.36 815.84 1071.81 814.907 1071.81 813.76V811.08H1066.41C1065.4 811.08 1064.59 811.373 1063.97 811.96C1063.36 812.547 1063.05 813.32 1063.05 814.28C1063.05 815.32 1063.4 816.147 1064.09 816.76C1064.81 817.347 1065.79 817.64 1067.01 817.64ZM1083.56 821V799H1088.28V803.2H1089.52L1088.04 805.76C1088.04 803.387 1088.57 801.6 1089.64 800.4C1090.7 799.2 1092.28 798.6 1094.36 798.6C1096.73 798.6 1098.6 799.333 1099.96 800.8C1101.32 802.267 1102 804.293 1102 806.88V808.48H1096.76V807.24C1096.76 805.827 1096.38 804.733 1095.64 803.96C1094.92 803.187 1093.92 802.8 1092.64 802.8C1091.33 802.8 1090.32 803.187 1089.6 803.96C1088.9 804.733 1088.56 805.827 1088.56 807.24V821H1083.56ZM1118.18 821C1116.07 821 1114.42 820.413 1113.22 819.24C1112.05 818.067 1111.46 816.453 1111.46 814.4V803.52H1105.5V799H1111.46V792.8H1116.5V799H1124.94V803.52H1116.5V814.4C1116.5 815.787 1117.18 816.48 1118.54 816.48H1124.54V821H1118.18ZM1130.85 821V791.8H1135.85V799L1135.73 803.2H1137.09L1135.73 804.36C1135.73 802.547 1136.25 801.133 1137.29 800.12C1138.35 799.107 1139.81 798.6 1141.65 798.6C1143.81 798.6 1145.53 799.32 1146.81 800.76C1148.11 802.2 1148.77 804.133 1148.77 806.56V821H1143.77V807.08C1143.77 805.747 1143.42 804.72 1142.73 804C1142.03 803.28 1141.06 802.92 1139.81 802.92C1138.58 802.92 1137.61 803.293 1136.89 804.04C1136.19 804.787 1135.85 805.853 1135.85 807.24V821H1130.85Z" fill="#EBDBB2" fill-opacity="0.75"/>
<path d="M771 872V842.8H779.68C781.653 842.8 783.36 843.173 784.8 843.92C786.267 844.667 787.4 845.72 788.2 847.08C789 848.44 789.4 850.053 789.4 851.92V862.84C789.4 864.68 789 866.293 788.2 867.68C787.4 869.04 786.267 870.107 784.8 870.88C783.36 871.627 781.653 872 779.68 872H771ZM776 867.4H779.68C781.12 867.4 782.267 867 783.12 866.2C783.973 865.373 784.4 864.253 784.4 862.84V851.92C784.4 850.533 783.973 849.44 783.12 848.64C782.267 847.813 781.12 847.4 779.68 847.4H776V867.4ZM800.624 872V867.44H808.304V854.52H801.624V850H813.104V867.44H819.904V872H800.624ZM810.304 846.32C809.291 846.32 808.491 846.067 807.904 845.56C807.318 845.027 807.024 844.32 807.024 843.44C807.024 842.56 807.318 841.867 807.904 841.36C808.491 840.827 809.291 840.56 810.304 840.56C811.318 840.56 812.118 840.827 812.704 841.36C813.291 841.867 813.584 842.56 813.584 843.44C813.584 844.32 813.291 845.027 812.704 845.56C812.118 846.067 811.318 846.32 810.304 846.32ZM838.329 872.36C836.649 872.36 835.182 872.093 833.929 871.56C832.675 871.027 831.689 870.293 830.969 869.36C830.275 868.4 829.902 867.28 829.849 866H834.849C834.902 866.693 835.235 867.253 835.849 867.68C836.489 868.107 837.315 868.32 838.329 868.32H840.089C841.315 868.32 842.235 868.08 842.849 867.6C843.462 867.12 843.769 866.467 843.769 865.64C843.769 864.867 843.489 864.267 842.929 863.84C842.395 863.387 841.555 863.093 840.409 862.96L837.689 862.56C835.182 862.213 833.342 861.547 832.169 860.56C830.995 859.573 830.409 858.093 830.409 856.12C830.409 854.067 831.102 852.48 832.489 851.36C833.875 850.213 835.915 849.64 838.609 849.64H840.129C842.582 849.64 844.542 850.187 846.009 851.28C847.475 852.373 848.262 853.84 848.369 855.68H843.369C843.289 855.093 842.955 854.613 842.369 854.24C841.809 853.867 841.062 853.68 840.129 853.68H838.609C837.462 853.68 836.622 853.893 836.089 854.32C835.582 854.72 835.329 855.32 835.329 856.12C835.329 856.867 835.555 857.427 836.009 857.8C836.462 858.147 837.195 858.4 838.209 858.56L841.049 858.96C843.662 859.333 845.582 860.04 846.809 861.08C848.062 862.093 848.689 863.6 848.689 865.6C848.689 867.733 847.955 869.4 846.489 870.6C845.049 871.773 842.915 872.36 840.089 872.36H838.329ZM859.833 879.2V850H864.713V854.2H865.833L864.713 855.36C864.713 853.573 865.246 852.173 866.313 851.16C867.38 850.12 868.82 849.6 870.633 849.6C872.846 849.6 874.62 850.36 875.953 851.88C877.286 853.4 877.953 855.44 877.953 858V863.96C877.953 865.667 877.646 867.16 877.033 868.44C876.446 869.693 875.606 870.667 874.513 871.36C873.42 872.053 872.126 872.4 870.633 872.4C868.82 872.4 867.38 871.893 866.313 870.88C865.246 869.84 864.713 868.427 864.713 866.64L865.833 867.8H864.673L864.833 873.04V879.2H859.833ZM868.873 868.08C870.153 868.08 871.153 867.707 871.873 866.96C872.593 866.213 872.953 865.147 872.953 863.76V858.24C872.953 856.853 872.593 855.787 871.873 855.04C871.153 854.293 870.153 853.92 868.873 853.92C867.62 853.92 866.633 854.307 865.913 855.08C865.193 855.827 864.833 856.88 864.833 858.24V863.76C864.833 865.12 865.193 866.187 865.913 866.96C866.633 867.707 867.62 868.08 868.873 868.08ZM901.698 872C900.258 872 898.991 871.707 897.898 871.12C896.831 870.533 895.991 869.707 895.378 868.64C894.764 867.547 894.458 866.293 894.458 864.88V847.32H887.418V842.8H899.458V864.88C899.458 865.68 899.684 866.32 900.138 866.8C900.618 867.253 901.258 867.48 902.058 867.48H908.698V872H901.698ZM925.482 872.4C923.215 872.4 921.429 871.8 920.122 870.6C918.815 869.4 918.162 867.787 918.162 865.76C918.162 863.6 918.882 861.933 920.322 860.76C921.762 859.587 923.802 859 926.442 859H931.922V857.12C931.922 856.053 931.575 855.227 930.882 854.64C930.189 854.027 929.242 853.72 928.042 853.72C926.949 853.72 926.042 853.96 925.322 854.44C924.602 854.92 924.175 855.573 924.042 856.4H919.162C919.402 854.32 920.335 852.667 921.962 851.44C923.589 850.213 925.669 849.6 928.202 849.6C930.895 849.6 933.015 850.28 934.562 851.64C936.135 852.973 936.922 854.787 936.922 857.08V872H932.082V868.16H931.282L932.082 867.08C932.082 868.707 931.482 870 930.282 870.96C929.082 871.92 927.482 872.4 925.482 872.4ZM927.122 868.64C928.535 868.64 929.682 868.28 930.562 867.56C931.469 866.84 931.922 865.907 931.922 864.76V862.08H926.522C925.509 862.08 924.695 862.373 924.082 862.96C923.469 863.547 923.162 864.32 923.162 865.28C923.162 866.32 923.509 867.147 924.202 867.76C924.922 868.347 925.895 868.64 927.122 868.64ZM952.146 879.2L955.226 870.8L947.026 850H952.506L956.586 861.24C956.8 861.853 957.013 862.6 957.226 863.48C957.44 864.333 957.6 865.04 957.706 865.6C957.84 865.04 958.013 864.333 958.226 863.48C958.44 862.6 958.653 861.853 958.866 861.24L962.706 850H967.986L957.386 879.2H952.146ZM1016.72 872.4C1014.85 872.4 1013.22 872.04 1011.84 871.32C1010.45 870.6 1009.37 869.6 1008.6 868.32C1007.85 867.013 1007.48 865.493 1007.48 863.76V858.24C1007.48 856.507 1007.85 855 1008.6 853.72C1009.37 852.413 1010.45 851.4 1011.84 850.68C1013.22 849.96 1014.85 849.6 1016.72 849.6C1018.56 849.6 1020.16 849.96 1021.52 850.68C1022.9 851.4 1023.97 852.413 1024.72 853.72C1025.49 855 1025.88 856.507 1025.88 858.24V862.2H1012.32V863.76C1012.32 865.307 1012.69 866.48 1013.44 867.28C1014.18 868.053 1015.29 868.44 1016.76 868.44C1017.88 868.44 1018.78 868.253 1019.48 867.88C1020.17 867.48 1020.61 866.907 1020.8 866.16H1025.72C1025.34 868.053 1024.33 869.573 1022.68 870.72C1021.05 871.84 1019.06 872.4 1016.72 872.4ZM1021.04 859.4V858.2C1021.04 856.68 1020.68 855.52 1019.96 854.72C1019.24 853.893 1018.16 853.48 1016.72 853.48C1015.28 853.48 1014.18 853.893 1013.44 854.72C1012.69 855.547 1012.32 856.72 1012.32 858.24V859.08L1021.4 859L1021.04 859.4ZM1038.02 872V850H1042.74V854.2H1043.98L1042.5 856.76C1042.5 854.387 1043.03 852.6 1044.1 851.4C1045.17 850.2 1046.74 849.6 1048.82 849.6C1051.19 849.6 1053.06 850.333 1054.42 851.8C1055.78 853.267 1056.46 855.293 1056.46 857.88V859.48H1051.22V858.24C1051.22 856.827 1050.85 855.733 1050.1 854.96C1049.38 854.187 1048.38 853.8 1047.1 853.8C1045.79 853.8 1044.78 854.187 1044.06 854.96C1043.37 855.733 1043.02 856.827 1043.02 858.24V872H1038.02ZM1067.6 872V850H1072.32V854.2H1073.56L1072.08 856.76C1072.08 854.387 1072.62 852.6 1073.68 851.4C1074.75 850.2 1076.32 849.6 1078.4 849.6C1080.78 849.6 1082.64 850.333 1084 851.8C1085.36 853.267 1086.04 855.293 1086.04 857.88V859.48H1080.8V858.24C1080.8 856.827 1080.43 855.733 1079.68 854.96C1078.96 854.187 1077.96 853.8 1076.68 853.8C1075.38 853.8 1074.36 854.187 1073.64 854.96C1072.95 855.733 1072.6 856.827 1072.6 858.24V872H1067.6ZM1105.43 872.36C1103.56 872.36 1101.93 872.013 1100.55 871.32C1099.19 870.6 1098.12 869.6 1097.35 868.32C1096.6 867.013 1096.23 865.48 1096.23 863.72V858.28C1096.23 856.52 1096.6 855 1097.35 853.72C1098.12 852.413 1099.19 851.413 1100.55 850.72C1101.93 850 1103.56 849.64 1105.43 849.64C1107.32 849.64 1108.95 850 1110.31 850.72C1111.67 851.413 1112.72 852.413 1113.47 853.72C1114.24 855 1114.63 856.507 1114.63 858.24V863.72C1114.63 865.48 1114.24 867.013 1113.47 868.32C1112.72 869.6 1111.67 870.6 1110.31 871.32C1108.95 872.013 1107.32 872.36 1105.43 872.36ZM1105.43 868C1106.76 868 1107.79 867.64 1108.51 866.92C1109.25 866.173 1109.63 865.107 1109.63 863.72V858.28C1109.63 856.867 1109.25 855.8 1108.51 855.08C1107.79 854.36 1106.76 854 1105.43 854C1104.12 854 1103.09 854.36 1102.35 855.08C1101.6 855.8 1101.23 856.867 1101.23 858.28V863.72C1101.23 865.107 1101.6 866.173 1102.35 866.92C1103.09 867.64 1104.12 868 1105.43 868ZM1126.77 872V850H1131.49V854.2H1132.73L1131.25 856.76C1131.25 854.387 1131.79 852.6 1132.85 851.4C1133.92 850.2 1135.49 849.6 1137.57 849.6C1139.95 849.6 1141.81 850.333 1143.17 851.8C1144.53 853.267 1145.21 855.293 1145.21 857.88V859.48H1139.97V858.24C1139.97 856.827 1139.6 855.733 1138.85 854.96C1138.13 854.187 1137.13 853.8 1135.85 853.8C1134.55 853.8 1133.53 854.187 1132.81 854.96C1132.12 855.733 1131.77 856.827 1131.77 858.24V872H1126.77Z" fill="#EBDBB2" fill-opacity="0.75"/>
<defs>
<linearGradient id="paint0_linear_320_297" x1="1156" y1="479.922" x2="960" y2="600.078" gradientUnits="userSpaceOnUse">
<stop stop-color="#FE8019"/>
<stop offset="1" stop-color="#282828"/>
</linearGradient>
<linearGradient id="paint1_linear_320_297" x1="883.526" y1="638.181" x2="1232.29" y2="442" gradientUnits="userSpaceOnUse">
<stop offset="0.3" stop-color="#282828"/>
<stop offset="1" stop-color="#FABD2F"/>
</linearGradient>
<linearGradient id="paint2_linear_320_297" x1="883.525" y1="638.181" x2="1232.29" y2="441.999" gradientUnits="userSpaceOnUse">
<stop offset="0.3" stop-color="#282828"/>
<stop offset="1" stop-color="#B16286"/>
</linearGradient>
<linearGradient id="paint3_linear_320_297" x1="883.525" y1="638.182" x2="1232.29" y2="442" gradientUnits="userSpaceOnUse">
<stop offset="0.3" stop-color="#282828"/>
<stop offset="1" stop-color="#D3869B"/>
</linearGradient>
<linearGradient id="paint4_linear_320_297" x1="883.526" y1="638.182" x2="1232.29" y2="442" gradientUnits="userSpaceOnUse">
<stop offset="0.3" stop-color="#282828"/>
<stop offset="1" stop-color="#98971A"/>
</linearGradient>
<linearGradient id="paint5_linear_320_297" x1="883.526" y1="638.182" x2="1232.29" y2="442" gradientUnits="userSpaceOnUse">
<stop offset="0.3" stop-color="#282828"/>
<stop offset="1" stop-color="#689D6A"/>
</linearGradient>
<linearGradient id="paint6_linear_320_297" x1="883.526" y1="638.183" x2="1232.29" y2="442.001" gradientUnits="userSpaceOnUse">
<stop offset="0.3" stop-color="#282828"/>
<stop offset="1" stop-color="#75B478"/>
</linearGradient>
<clipPath id="clip0_320_297">
<rect width="196" height="196" fill="white" transform="translate(960 442)"/>
</clipPath>
</defs>
</svg>
