<svg width="1920" height="1080" viewBox="0 0 1920 1080" fill="none" xmlns="http://www.w3.org/2000/svg">
<g clip-path="url(#clip0_263_263)">
<rect width="1920" height="1080" fill="white"/>
<rect x="-0.000488281" y="-0.00195312" width="1920" height="1080" fill="#282828"/>
<g clip-path="url(#clip1_263_263)">
<path d="M2014.07 2352.5C2350.21 1770.28 2150.73 1025.79 1568.51 689.647C986.282 353.5 241.795 552.985 -94.352 1135.21C-430.499 1717.43 -231.014 2461.92 351.209 2798.07C933.433 3134.21 1677.92 2934.73 2014.07 2352.5Z" fill="url(#paint0_linear_263_263)"/>
<path fill-rule="evenodd" clip-rule="evenodd" d="M781.227 539.69C981.5 509.85 1190.26 529.577 1387.98 604.128C1384.89 606.097 1381.72 608.145 1378.46 610.278C1332.62 640.168 1277.56 680.651 1230.72 726.8C1181.65 775.149 1156.27 815.424 1147.51 842.636C1142.53 858.153 1141.07 868.805 1156.6 892.554C1255.41 1043.69 1262.37 1199.17 1206.76 1336.23C1163.66 1442.46 1085.54 1527.33 1038.92 1577.03C1077.57 1611.67 1110.99 1654.02 1134.39 1705.55C1173.51 1791.65 1172.6 1876.73 1158.46 1945.51C1134.81 2060.58 1063.52 2169.86 1020.58 2235.68C1018.72 2238.52 1016.92 2241.29 1015.17 2243.97C976.629 2303.19 952.075 2341.91 937.506 2369.95C1029.38 2451.23 1084.56 2551.47 1103.35 2660.85C1122.8 2774.15 1100.01 2877.89 1071.33 2956.14C906.497 2971.44 737.461 2953.31 574.836 2898.91C577.321 2895.54 579.969 2891.87 582.729 2887.92C600.848 2861.98 619.708 2830 631.806 2798.06C644.304 2765.06 644.163 2746.55 643.023 2739.9C642.635 2737.65 642.081 2735.99 640.538 2733.54C638.863 2730.87 633.426 2723.2 618.749 2712.27C548.733 2660.12 493.445 2589.12 468.993 2499.09C445.547 2412.76 456.989 2332.81 475.128 2271.48C505.129 2170.03 570.695 2070.07 612.956 2005.64L612.964 2005.63C616.749 1999.86 620.35 1994.37 623.719 1989.19C648.021 1951.85 666.735 1922.41 681.091 1895.96C635.168 1864.33 589.663 1822.9 556.899 1767.46C507.875 1684.49 501.695 1594.77 523.772 1515.19C542.799 1446.62 580.516 1393.32 606.77 1360.04C631.773 1328.36 661.05 1297.16 683.132 1273.63C685.08 1271.56 686.972 1269.54 688.799 1267.59C743.422 1209.29 765.047 1181.51 773.43 1161.91C772.111 1158.94 769.757 1154.39 765.673 1148.14C668.024 998.786 657.626 840.367 702.878 699.651C721.794 640.826 749.556 587.384 781.227 539.69ZM942.496 1508.69C942.448 1508.65 942.422 1508.63 942.419 1508.63C942.412 1508.64 942.568 1508.77 942.908 1509.04C942.713 1508.87 942.574 1508.75 942.496 1508.69ZM966.265 1659.25C966.262 1659.25 966.339 1659.12 966.51 1658.84C966.355 1659.11 966.271 1659.25 966.265 1659.25ZM922.282 2406.74C922.279 2406.74 922.297 2406.64 922.34 2406.45C922.305 2406.64 922.285 2406.74 922.282 2406.74ZM774.986 1166.17C774.974 1166.16 774.918 1165.97 774.847 1165.6C774.961 1165.98 774.995 1166.17 774.986 1166.17Z" fill="url(#paint1_linear_263_263)"/>
<path fill-rule="evenodd" clip-rule="evenodd" d="M282.725 731.945C485.889 596.216 725.861 524.719 969.306 526.389C926.419 555.208 877.374 592.285 835.049 633.987C785.979 682.336 760.593 722.611 751.841 749.823C746.851 765.339 745.397 775.992 760.924 799.74C859.736 950.875 866.692 1106.36 811.084 1243.42C767.984 1349.65 689.867 1434.52 643.248 1484.22C681.901 1518.86 715.309 1561.2 738.718 1612.73C777.834 1698.83 776.921 1783.92 762.783 1852.7C739.133 1967.77 667.845 2077.04 624.902 2142.87C623.047 2145.71 621.242 2148.48 619.5 2151.15C580.955 2210.38 556.401 2249.1 541.832 2277.14C633.705 2358.42 688.885 2458.65 707.671 2568.03C727.749 2684.93 702.853 2791.63 672.915 2870.68C666.211 2888.38 658.974 2905.43 651.428 2921.75C548.632 2894.77 447.692 2853.77 351.209 2798.07C308.988 2773.69 268.78 2747.17 230.645 2718.71C232.592 2714.23 234.429 2709.74 236.132 2705.25C248.628 2672.25 248.49 2653.74 247.347 2647.09C246.961 2644.83 246.408 2643.18 244.862 2640.72C243.19 2638.06 237.752 2630.39 223.075 2619.46C153.059 2567.3 97.7698 2496.31 73.3193 2406.28C49.8734 2319.95 61.315 2239.99 79.4518 2178.67C109.456 2077.22 175.02 1977.26 217.282 1912.83L217.29 1912.82C221.075 1907.04 224.674 1901.56 228.045 1896.38C252.348 1859.04 271.061 1829.6 285.415 1803.15C239.494 1771.52 193.987 1730.08 161.225 1674.64C112.201 1591.68 106.021 1501.95 128.098 1422.38C147.126 1353.8 184.84 1300.5 211.097 1267.23C236.097 1235.54 265.376 1204.34 287.458 1180.82L287.459 1180.82C289.407 1178.74 291.299 1176.73 293.125 1174.78C347.748 1116.48 369.373 1088.7 377.756 1069.1C376.437 1066.13 374.083 1061.57 369.999 1055.33C300.423 948.907 275.14 837.886 282.725 731.945ZM546.745 1415.82C546.751 1415.82 546.921 1415.95 547.234 1416.23C546.894 1415.96 546.739 1415.82 546.745 1415.82ZM570.836 1566.03C570.663 1566.3 570.591 1566.44 570.591 1566.44C570.591 1566.44 570.622 1566.39 570.675 1566.31C570.716 1566.24 570.77 1566.15 570.836 1566.03ZM526.608 2313.92C526.608 2313.92 526.623 2313.83 526.666 2313.64C526.631 2313.83 526.608 2313.92 526.608 2313.92ZM379.173 1072.79C379.244 1073.16 379.3 1073.35 379.31 1073.35C379.317 1073.35 379.311 1073.31 379.29 1073.22C379.269 1073.12 379.23 1072.98 379.173 1072.79Z" fill="url(#paint2_linear_263_263)"/>
<path fill-rule="evenodd" clip-rule="evenodd" d="M380.701 1704.54C403.685 1552.7 362.12 1408.38 270.514 1277.99C278.757 1267.58 289.412 1254.48 303.134 1238.17C306.166 1234.57 309.475 1230.67 313.021 1226.49C357.573 1174 439.574 1077.39 486.363 959.954C529.473 851.752 541.812 733.41 513.007 611.49C265.894 708.821 48.7634 887.326 -94.3507 1135.21C-429.905 1716.4 -231.715 2459.29 348.131 2796.28C404.382 2601.92 448.046 2286.67 242.591 2024.29C246.776 2017.35 251.721 2009.27 257.557 1999.91C259.146 1997.36 260.873 1994.61 262.719 1991.67C294.254 1941.47 360.898 1835.37 380.701 1704.54Z" fill="url(#paint3_linear_263_263)"/>
<path fill-rule="evenodd" clip-rule="evenodd" d="M1593.7 704.585C1585.38 699.522 1576.98 694.543 1568.51 689.647C1426.54 607.685 1274.93 557.567 1121.94 537.084C1119.08 542.076 1116.3 547.135 1113.58 552.264C1079.1 617.482 1056.25 695.83 1060.81 783.492C1065.37 871.326 1096.62 952.595 1145.64 1024.69C1161.56 1048.11 1159.1 1053.26 1157.57 1056.45C1157.36 1056.9 1157.16 1057.32 1157.04 1057.73C1149.64 1082.87 1130.01 1114.03 1079.36 1185.5C1077.35 1188.35 1075.22 1191.33 1072.99 1194.46L1072.95 1194.51C1033.92 1249.31 965.098 1345.93 940.5 1458.62C925.779 1526.06 925.6 1600.93 950.567 1678.34C974.931 1753.88 1018.99 1818.75 1073.29 1874.61C1076.57 1877.98 1079.29 1880.93 1081.53 1883.48C1075.02 1894.46 1063.02 1912.98 1041.12 1942.61C1037.8 1947.11 1034.03 1952.13 1029.89 1957.62C995.018 2003.98 934.414 2084.55 902.163 2174.62C857.073 2300.54 863.922 2442.8 955.77 2580.76C1005.83 2655.96 1016 2765.07 997.757 2885.26C993.654 2912.29 988.399 2937.86 982.775 2961.12C1151.64 2957.78 1318.12 2919.32 1471.02 2848.74C1480.76 2693.03 1461.11 2497.93 1345.53 2323.39C1354.33 2304.98 1372.77 2279.7 1416.74 2220.21C1417.54 2219.12 1418.36 2218.02 1419.2 2216.89L1419.4 2216.62C1457.21 2165.5 1528.51 2069.14 1549.22 1949.35C1575.25 1798.83 1518.31 1662.32 1408.19 1549.05C1406.27 1547.07 1404.59 1545.26 1403.11 1543.61C1404.88 1540.09 1407.14 1535.9 1410 1530.96C1421.76 1510.62 1437.33 1488.17 1460.44 1455.55C1462.87 1452.12 1465.44 1448.52 1468.13 1444.74C1507.82 1389.06 1573.53 1296.87 1605.1 1189.61C1645.21 1053.34 1629.38 905.477 1531.9 762.1C1541.54 748.881 1560.8 728.915 1593.7 704.585ZM1393.62 1531.24C1393.6 1531.2 1393.59 1531.18 1393.59 1531.18C1393.59 1531.18 1393.63 1531.26 1393.71 1531.41C1393.67 1531.33 1393.64 1531.27 1393.62 1531.24ZM1526.04 751.866C1526.05 751.868 1526.08 751.966 1526.14 752.156C1526.07 751.959 1526.03 751.884 1526.04 751.866ZM1340.31 2314.62C1340.31 2314.62 1340.32 2314.65 1340.34 2314.7C1340.32 2314.64 1340.31 2314.62 1340.31 2314.62Z" fill="url(#paint4_linear_263_263)"/>
<path fill-rule="evenodd" clip-rule="evenodd" d="M2024.63 1153.5C1921.16 966.467 1767.1 804.305 1568.51 689.648C1542.97 674.902 1517.11 661.199 1491 648.493C1471.92 700.347 1461.11 758.383 1464.37 821.206C1468.94 909.034 1500.19 990.305 1549.21 1062.4C1565.13 1085.82 1562.67 1090.97 1561.14 1094.16C1560.93 1094.61 1560.73 1095.02 1560.61 1095.44C1553.21 1120.58 1533.58 1151.74 1482.93 1223.21C1480.92 1226.06 1478.79 1229.04 1476.56 1232.17L1476.52 1232.22C1437.49 1287.02 1368.67 1383.64 1344.07 1496.33C1329.35 1563.77 1329.17 1638.64 1354.14 1716.05C1378.5 1791.59 1422.56 1856.46 1476.86 1912.32C1480.14 1915.69 1482.86 1918.64 1485.1 1921.18C1478.59 1932.17 1466.59 1950.69 1444.69 1980.32C1441.37 1984.82 1437.6 1989.83 1433.46 1995.33C1398.59 2041.69 1337.98 2122.26 1305.73 2212.33C1260.64 2338.25 1267.49 2480.51 1359.34 2618.47C1402.81 2683.76 1416.2 2774.62 1407.03 2876.09C1571.02 2811.45 1721.79 2711.04 1846.48 2578.34C1826.72 2505.21 1795.7 2431.48 1749.1 2361.1C1757.9 2342.69 1776.34 2317.41 1820.31 2257.92C1821.11 2256.83 1821.93 2255.73 1822.76 2254.6L1822.97 2254.33C1860.78 2203.21 1932.07 2106.85 1952.79 1987.06C1978.81 1836.54 1921.88 1700.03 1811.76 1586.76C1809.84 1584.78 1808.15 1582.97 1806.68 1581.31C1808.45 1577.8 1810.71 1573.61 1813.57 1568.66C1825.33 1548.33 1840.9 1525.88 1864.01 1493.26C1866.44 1489.83 1869.01 1486.22 1871.7 1482.45C1911.39 1426.77 1977.1 1334.57 2008.66 1227.32C2015.81 1203.05 2021.18 1178.41 2024.63 1153.5ZM1797.16 1568.89C1797.16 1568.89 1797.2 1568.96 1797.28 1569.12C1797.19 1568.97 1797.16 1568.89 1797.16 1568.89ZM1743.88 2352.33C1743.88 2352.33 1743.89 2352.35 1743.91 2352.41C1743.89 2352.36 1743.88 2352.33 1743.88 2352.33Z" fill="url(#paint5_linear_263_263)"/>
<path fill-rule="evenodd" clip-rule="evenodd" d="M1840.4 902.877C2204.5 1283.78 2290.83 1873.14 2014.07 2352.5C1947.69 2467.47 1865.39 2567.51 1771.56 2651.46C1692.06 2563.61 1647.75 2456.46 1657.02 2332.07C1666.63 2203.13 1736.15 2091.05 1773.61 2030.68C1774.91 2028.58 1776.18 2026.54 1777.4 2024.56C1823.36 1950.29 1842.75 1917.75 1850.33 1894.22C1849.14 1892.86 1847.72 1891.32 1846.05 1889.6C1793.61 1835.66 1745.92 1768.67 1724.47 1686.19C1701.47 1597.73 1714.99 1516.12 1744.55 1449.05C1771.32 1388.3 1810.51 1341.04 1838.87 1309.66C1856.66 1289.96 1881.02 1265.3 1899.66 1246.43L1899.66 1246.42C1907.55 1238.43 1914.42 1231.48 1919.33 1226.38C1968.82 1174.99 1974.29 1157.61 1975.13 1153.33C1975.22 1152.87 1975.37 1151.97 1975.27 1150.02C1975.16 1147.98 1974.68 1143.37 1972.42 1135.7C1967.74 1119.82 1955.27 1090.45 1922.85 1045.99C1889.92 1000.87 1861.6 952.79 1840.4 902.877ZM1856.05 1901.76C1856.05 1901.76 1855.97 1901.63 1855.84 1901.36C1855.99 1901.63 1856.06 1901.76 1856.05 1901.76Z" fill="url(#paint6_linear_263_263)"/>
</g>
<path d="M960 81L1031.74 187.257L1138 259L1031.74 330.743L960 437L888.257 330.743L782 259L888.257 187.257L960 81Z" fill="#D79921" fill-opacity="0.3"/>
<path d="M960 137L977.536 243.464L1084 261L977.536 278.536L960 385L942.464 278.536L836 261L942.464 243.464L960 137Z" fill="#D79921"/>
<path d="M33.0795 1038V1008.8H38.0795V1020.52H45.9195V1008.8H50.9195V1038H45.9195V1025.16H38.0795V1038H33.0795ZM72.3839 1038.36C70.5172 1038.36 68.8906 1038.01 67.5039 1037.32C66.1439 1036.6 65.0772 1035.6 64.3039 1034.32C63.5572 1033.01 63.1839 1031.48 63.1839 1029.72V1024.28C63.1839 1022.52 63.5572 1021 64.3039 1019.72C65.0772 1018.41 66.1439 1017.41 67.5039 1016.72C68.8906 1016 70.5172 1015.64 72.3839 1015.64C74.2772 1015.64 75.9039 1016 77.2639 1016.72C78.6239 1017.41 79.6772 1018.41 80.4239 1019.72C81.1972 1021 81.5839 1022.5 81.5839 1024.24V1029.72C81.5839 1031.48 81.1972 1033.01 80.4239 1034.32C79.6772 1035.6 78.6239 1036.6 77.2639 1037.32C75.9039 1038.01 74.2772 1038.36 72.3839 1038.36ZM72.3839 1034C73.7172 1034 74.7439 1033.64 75.4639 1032.92C76.2106 1032.17 76.5839 1031.1 76.5839 1029.72V1024.28C76.5839 1022.86 76.2106 1021.8 75.4639 1021.08C74.7439 1020.36 73.7172 1020 72.3839 1020C71.0772 1020 70.0506 1020.36 69.3039 1021.08C68.5572 1021.8 68.1839 1022.86 68.1839 1024.28V1029.72C68.1839 1031.1 68.5572 1032.17 69.3039 1032.92C70.0506 1033.64 71.0772 1034 72.3839 1034ZM101.928 1038.36C100.248 1038.36 98.7816 1038.09 97.5283 1037.56C96.2749 1037.02 95.2883 1036.29 94.5683 1035.36C93.8749 1034.4 93.5016 1033.28 93.4483 1032H98.4483C98.5016 1032.69 98.8349 1033.25 99.4483 1033.68C100.088 1034.1 100.915 1034.32 101.928 1034.32H103.688C104.915 1034.32 105.835 1034.08 106.448 1033.6C107.062 1033.12 107.368 1032.46 107.368 1031.64C107.368 1030.86 107.088 1030.26 106.528 1029.84C105.995 1029.38 105.155 1029.09 104.008 1028.96L101.288 1028.56C98.7816 1028.21 96.9416 1027.54 95.7683 1026.56C94.5949 1025.57 94.0083 1024.09 94.0083 1022.12C94.0083 1020.06 94.7016 1018.48 96.0883 1017.36C97.4749 1016.21 99.5149 1015.64 102.208 1015.64H103.728C106.182 1015.64 108.142 1016.18 109.608 1017.28C111.075 1018.37 111.862 1019.84 111.968 1021.68H106.968C106.888 1021.09 106.555 1020.61 105.968 1020.24C105.408 1019.86 104.662 1019.68 103.728 1019.68H102.208C101.062 1019.68 100.222 1019.89 99.6883 1020.32C99.1816 1020.72 98.9283 1021.32 98.9283 1022.12C98.9283 1022.86 99.1549 1023.42 99.6083 1023.8C100.062 1024.14 100.795 1024.4 101.808 1024.56L104.648 1024.96C107.262 1025.33 109.182 1026.04 110.408 1027.08C111.662 1028.09 112.288 1029.6 112.288 1031.6C112.288 1033.73 111.555 1035.4 110.088 1036.6C108.648 1037.77 106.515 1038.36 103.688 1038.36H101.928ZM135.553 1038C133.446 1038 131.793 1037.41 130.593 1036.24C129.419 1035.06 128.833 1033.45 128.833 1031.4V1020.52H122.873V1016H128.833V1009.8H133.873V1016H142.313V1020.52H133.873V1031.4C133.873 1032.78 134.553 1033.48 135.913 1033.48H141.913V1038H135.553ZM193.881 1019.4L199.081 1006.96H203.441L200.241 1019.4H193.881ZM184.001 1019.4L189.201 1006.96H193.561L190.361 1019.4H184.001ZM215.826 1038V1008.8H233.346V1013.16H220.746V1020.76H231.946V1025.08H220.746V1033.64H233.346V1038H215.826ZM254.69 1038.36C252.823 1038.36 251.197 1038.01 249.81 1037.32C248.45 1036.6 247.383 1035.6 246.61 1034.32C245.863 1033.01 245.49 1031.48 245.49 1029.72V1024.28C245.49 1022.52 245.863 1021 246.61 1019.72C247.383 1018.41 248.45 1017.41 249.81 1016.72C251.197 1016 252.823 1015.64 254.69 1015.64C256.583 1015.64 258.21 1016 259.57 1016.72C260.93 1017.41 261.983 1018.41 262.73 1019.72C263.503 1021 263.89 1022.5 263.89 1024.24V1029.72C263.89 1031.48 263.503 1033.01 262.73 1034.32C261.983 1035.6 260.93 1036.6 259.57 1037.32C258.21 1038.01 256.583 1038.36 254.69 1038.36ZM254.69 1034C256.023 1034 257.05 1033.64 257.77 1032.92C258.517 1032.17 258.89 1031.1 258.89 1029.72V1024.28C258.89 1022.86 258.517 1021.8 257.77 1021.08C257.05 1020.36 256.023 1020 254.69 1020C253.383 1020 252.357 1020.36 251.61 1021.08C250.863 1021.8 250.49 1022.86 250.49 1024.28V1029.72C250.49 1031.1 250.863 1032.17 251.61 1032.92C252.357 1033.64 253.383 1034 254.69 1034ZM284.235 1038.36C282.555 1038.36 281.088 1038.09 279.835 1037.56C278.581 1037.02 277.595 1036.29 276.875 1035.36C276.181 1034.4 275.808 1033.28 275.755 1032H280.755C280.808 1032.69 281.141 1033.25 281.755 1033.68C282.395 1034.1 283.221 1034.32 284.235 1034.32H285.995C287.221 1034.32 288.141 1034.08 288.755 1033.6C289.368 1033.12 289.675 1032.46 289.675 1031.64C289.675 1030.86 289.395 1030.26 288.835 1029.84C288.301 1029.38 287.461 1029.09 286.315 1028.96L283.595 1028.56C281.088 1028.21 279.248 1027.54 278.075 1026.56C276.901 1025.57 276.315 1024.09 276.315 1022.12C276.315 1020.06 277.008 1018.48 278.395 1017.36C279.781 1016.21 281.821 1015.64 284.515 1015.64H286.035C288.488 1015.64 290.448 1016.18 291.915 1017.28C293.381 1018.37 294.168 1019.84 294.275 1021.68H289.275C289.195 1021.09 288.861 1020.61 288.275 1020.24C287.715 1019.86 286.968 1019.68 286.035 1019.68H284.515C283.368 1019.68 282.528 1019.89 281.995 1020.32C281.488 1020.72 281.235 1021.32 281.235 1022.12C281.235 1022.86 281.461 1023.42 281.915 1023.8C282.368 1024.14 283.101 1024.4 284.115 1024.56L286.955 1024.96C289.568 1025.33 291.488 1026.04 292.715 1027.08C293.968 1028.09 294.595 1029.6 294.595 1031.6C294.595 1033.73 293.861 1035.4 292.395 1036.6C290.955 1037.77 288.821 1038.36 285.995 1038.36H284.235ZM315.819 1019.4L319.019 1006.96H325.379L320.179 1019.4H315.819ZM305.939 1019.4L309.139 1006.96H315.499L310.299 1019.4H305.939Z" fill="#EBDBB2"/>
<path d="M32.8795 987.998V958.798H38.9995L47.1195 982.398C47.0395 981.545 46.9462 980.545 46.8395 979.398C46.7595 978.225 46.6928 977.038 46.6395 975.838C46.5862 974.611 46.5595 973.545 46.5595 972.638V958.798H51.1195V987.998H44.9995L36.9595 964.398C37.0128 965.171 37.0795 966.105 37.1595 967.198C37.2395 968.291 37.3062 969.411 37.3595 970.558C37.4128 971.705 37.4395 972.758 37.4395 973.718V987.998H32.8795ZM63.4239 987.998V983.438H71.1039V970.518H64.4239V965.998H75.9039V983.438H82.7039V987.998H63.4239ZM73.1039 962.318C72.0906 962.318 71.2906 962.065 70.7039 961.558C70.1172 961.025 69.8239 960.318 69.8239 959.438C69.8239 958.558 70.1172 957.865 70.7039 957.358C71.2906 956.825 72.0906 956.558 73.1039 956.558C74.1172 956.558 74.9172 956.825 75.5039 957.358C76.0906 957.865 76.3839 958.558 76.3839 959.438C76.3839 960.318 76.0906 961.025 75.5039 961.558C74.9172 962.065 74.1172 962.318 73.1039 962.318ZM92.2083 987.998L99.8883 976.638L92.7283 965.998H98.3683L101.768 971.398C101.982 971.718 102.168 972.078 102.328 972.478C102.515 972.878 102.662 973.198 102.768 973.438C102.875 973.198 103.022 972.878 103.208 972.478C103.395 972.078 103.582 971.718 103.768 971.398L107.208 965.998H112.848L105.688 976.638L113.328 987.998H107.648L103.848 981.958C103.635 981.611 103.435 981.238 103.248 980.838C103.062 980.438 102.902 980.118 102.768 979.878C102.662 980.118 102.515 980.438 102.328 980.838C102.142 981.238 101.942 981.611 101.728 981.958L97.8483 987.998H92.2083ZM133.153 988.398C131.286 988.398 129.659 988.051 128.273 987.358C126.913 986.638 125.859 985.638 125.113 984.358C124.393 983.051 124.033 981.518 124.033 979.758V967.038C124.033 965.278 124.393 963.758 125.113 962.478C125.859 961.171 126.913 960.171 128.273 959.478C129.659 958.758 131.286 958.398 133.153 958.398C135.046 958.398 136.673 958.758 138.033 959.478C139.393 960.171 140.433 961.171 141.153 962.478C141.899 963.758 142.273 965.265 142.273 966.998V979.758C142.273 981.518 141.899 983.051 141.153 984.358C140.433 985.638 139.393 986.638 138.033 987.358C136.673 988.051 135.046 988.398 133.153 988.398ZM133.153 983.998C134.513 983.998 135.539 983.638 136.233 982.918C136.926 982.171 137.273 981.118 137.273 979.758V967.038C137.273 965.651 136.926 964.598 136.233 963.878C135.539 963.158 134.513 962.798 133.153 962.798C131.793 962.798 130.766 963.158 130.073 963.878C129.379 964.598 129.033 965.651 129.033 967.038V979.758C129.033 981.118 129.379 982.171 130.073 982.918C130.793 983.638 131.819 983.998 133.153 983.998ZM163.617 988.398C161.617 988.398 159.884 988.065 158.417 987.398C156.95 986.731 155.817 985.785 155.017 984.558C154.244 983.305 153.844 981.838 153.817 980.158H158.817C158.817 981.358 159.244 982.305 160.097 982.998C160.977 983.665 162.164 983.998 163.657 983.998C165.097 983.998 166.217 983.665 167.017 982.998C167.844 982.331 168.257 981.411 168.257 980.238C168.257 979.251 167.964 978.398 167.377 977.678C166.817 976.931 166.004 976.425 164.937 976.158L161.577 975.238C159.284 974.651 157.51 973.598 156.257 972.078C155.03 970.558 154.417 968.718 154.417 966.558C154.417 964.905 154.79 963.465 155.537 962.238C156.284 961.011 157.337 960.065 158.697 959.398C160.084 958.731 161.71 958.398 163.577 958.398C166.404 958.398 168.644 959.131 170.297 960.598C171.95 962.038 172.79 963.985 172.817 966.438H167.817C167.817 965.291 167.444 964.398 166.697 963.758C165.95 963.091 164.897 962.758 163.537 962.758C162.23 962.758 161.217 963.065 160.497 963.678C159.777 964.291 159.417 965.158 159.417 966.278C159.417 967.291 159.684 968.158 160.217 968.878C160.777 969.571 161.577 970.065 162.617 970.358L166.097 971.318C168.417 971.905 170.19 972.958 171.417 974.478C172.644 975.971 173.257 977.825 173.257 980.038C173.257 981.691 172.857 983.158 172.057 984.438C171.257 985.691 170.137 986.665 168.697 987.358C167.257 988.051 165.564 988.398 163.617 988.398ZM215.466 987.998V983.158L224.586 973.998C225.866 972.691 226.812 971.518 227.426 970.478C228.039 969.411 228.346 968.318 228.346 967.198C228.346 965.838 227.972 964.785 227.226 964.038C226.479 963.265 225.466 962.878 224.186 962.878C222.772 962.878 221.666 963.291 220.866 964.118C220.066 964.918 219.666 966.038 219.666 967.478H214.666C214.692 965.611 215.092 964.011 215.866 962.678C216.666 961.318 217.786 960.265 219.226 959.518C220.666 958.771 222.346 958.398 224.266 958.398C226.106 958.398 227.706 958.745 229.066 959.438C230.426 960.131 231.479 961.105 232.226 962.358C232.972 963.611 233.346 965.105 233.346 966.838C233.346 968.625 232.879 970.371 231.946 972.078C231.039 973.758 229.572 975.571 227.546 977.518L221.466 983.478H233.706V987.998H215.466ZM258.29 987.998V982.198H245.29V974.958L256.53 958.798H262.13L250.09 976.278V977.798H258.29V971.198H263.29V987.998H258.29ZM285.075 988.398C283.928 988.398 283.008 988.065 282.315 987.398C281.648 986.731 281.315 985.825 281.315 984.678C281.315 983.531 281.648 982.625 282.315 981.958C283.008 981.265 283.928 980.918 285.075 980.918C286.221 980.918 287.128 981.265 287.795 981.958C288.488 982.625 288.835 983.531 288.835 984.678C288.835 985.825 288.488 986.731 287.795 987.398C287.128 988.065 286.221 988.398 285.075 988.398ZM306.819 987.998V983.598H314.419V963.238L306.779 968.918V963.638L313.499 958.798H319.419V983.598H325.539V987.998H306.819ZM337.203 987.998V983.598H344.803V963.238L337.163 968.918V963.638L343.883 958.798H349.803V983.598H355.923V987.998H337.203Z" fill="#EBDBB2"/>
</g>
<defs>
<linearGradient id="paint0_linear_263_263" x1="922.235" y1="316.523" x2="997.48" y2="3171.19" gradientUnits="userSpaceOnUse">
<stop stop-color="#FE8019"/>
<stop offset="1" stop-color="#282828"/>
</linearGradient>
<linearGradient id="paint1_linear_263_263" x1="932.413" y1="4230.5" x2="988.128" y2="-739.702" gradientUnits="userSpaceOnUse">
<stop offset="0.6" stop-color="#282828"/>
<stop offset="1" stop-color="#FABD2F"/>
</linearGradient>
<linearGradient id="paint2_linear_263_263" x1="932.413" y1="4230.5" x2="988.127" y2="-739.702" gradientUnits="userSpaceOnUse">
<stop offset="0.6" stop-color="#282828"/>
<stop offset="1" stop-color="#B16286"/>
</linearGradient>
<linearGradient id="paint3_linear_263_263" x1="932.413" y1="4230.5" x2="988.128" y2="-739.702" gradientUnits="userSpaceOnUse">
<stop offset="0.595" stop-color="#282828"/>
<stop offset="1" stop-color="#D3869B"/>
</linearGradient>
<linearGradient id="paint4_linear_263_263" x1="932.413" y1="4230.5" x2="988.128" y2="-739.701" gradientUnits="userSpaceOnUse">
<stop offset="0.6" stop-color="#282828"/>
<stop offset="1" stop-color="#98971A"/>
</linearGradient>
<linearGradient id="paint5_linear_263_263" x1="932.413" y1="4230.5" x2="988.127" y2="-739.701" gradientUnits="userSpaceOnUse">
<stop offset="0.6" stop-color="#282828"/>
<stop offset="1" stop-color="#689D6A"/>
</linearGradient>
<linearGradient id="paint6_linear_263_263" x1="932.413" y1="4230.5" x2="988.128" y2="-739.702" gradientUnits="userSpaceOnUse">
<stop offset="0.6" stop-color="#282828"/>
<stop offset="1" stop-color="#75B478"/>
</linearGradient>
<clipPath id="clip0_263_263">
<rect width="1920" height="1080" fill="white"/>
</clipPath>
<clipPath id="clip1_263_263">
<rect width="2434.59" height="2434.59" fill="white" transform="translate(-703 2189.42) rotate(-60)"/>
</clipPath>
</defs>
</svg>
