<svg width="1920" height="1080" viewBox="0 0 1920 1080" fill="none" xmlns="http://www.w3.org/2000/svg">
<g clip-path="url(#clip0_254_457)">
<rect width="1920" height="1080" fill="white"/>
<rect width="1920" height="1080" fill="url(#paint0_linear_254_457)"/>
<rect width="1920" height="1080" fill="#282828"/>
<path d="M33.08 1038V1008.8H38.08V1020.52H45.92V1008.8H50.92V1038H45.92V1025.16H38.08V1038H33.08ZM72.3844 1038.36C70.5177 1038.36 68.891 1038.01 67.5044 1037.32C66.1444 1036.6 65.0777 1035.6 64.3044 1034.32C63.5577 1033.01 63.1844 1031.48 63.1844 1029.72V1024.28C63.1844 1022.52 63.5577 1021 64.3044 1019.72C65.0777 1018.41 66.1444 1017.41 67.5044 1016.72C68.891 1016 70.5177 1015.64 72.3844 1015.64C74.2777 1015.64 75.9044 1016 77.2644 1016.72C78.6244 1017.41 79.6777 1018.41 80.4244 1019.72C81.1977 1021 81.5844 1022.51 81.5844 1024.24V1029.72C81.5844 1031.48 81.1977 1033.01 80.4244 1034.32C79.6777 1035.6 78.6244 1036.6 77.2644 1037.32C75.9044 1038.01 74.2777 1038.36 72.3844 1038.36ZM72.3844 1034C73.7177 1034 74.7444 1033.64 75.4644 1032.92C76.211 1032.17 76.5844 1031.11 76.5844 1029.72V1024.28C76.5844 1022.87 76.211 1021.8 75.4644 1021.08C74.7444 1020.36 73.7177 1020 72.3844 1020C71.0777 1020 70.051 1020.36 69.3044 1021.08C68.5577 1021.8 68.1844 1022.87 68.1844 1024.28V1029.72C68.1844 1031.11 68.5577 1032.17 69.3044 1032.92C70.051 1033.64 71.0777 1034 72.3844 1034ZM101.929 1038.36C100.249 1038.36 98.7821 1038.09 97.5287 1037.56C96.2754 1037.03 95.2887 1036.29 94.5687 1035.36C93.8754 1034.4 93.5021 1033.28 93.4487 1032H98.4487C98.5021 1032.69 98.8354 1033.25 99.4487 1033.68C100.089 1034.11 100.915 1034.32 101.929 1034.32H103.689C104.915 1034.32 105.835 1034.08 106.449 1033.6C107.062 1033.12 107.369 1032.47 107.369 1031.64C107.369 1030.87 107.089 1030.27 106.529 1029.84C105.995 1029.39 105.155 1029.09 104.009 1028.96L101.289 1028.56C98.7821 1028.21 96.9421 1027.55 95.7687 1026.56C94.5954 1025.57 94.0087 1024.09 94.0087 1022.12C94.0087 1020.07 94.7021 1018.48 96.0887 1017.36C97.4754 1016.21 99.5154 1015.64 102.209 1015.64H103.729C106.182 1015.64 108.142 1016.19 109.609 1017.28C111.075 1018.37 111.862 1019.84 111.969 1021.68H106.969C106.889 1021.09 106.555 1020.61 105.969 1020.24C105.409 1019.87 104.662 1019.68 103.729 1019.68H102.209C101.062 1019.68 100.222 1019.89 99.6887 1020.32C99.1821 1020.72 98.9287 1021.32 98.9287 1022.12C98.9287 1022.87 99.1554 1023.43 99.6087 1023.8C100.062 1024.15 100.795 1024.4 101.809 1024.56L104.649 1024.96C107.262 1025.33 109.182 1026.04 110.409 1027.08C111.662 1028.09 112.289 1029.6 112.289 1031.6C112.289 1033.73 111.555 1035.4 110.089 1036.6C108.649 1037.77 106.515 1038.36 103.689 1038.36H101.929ZM135.553 1038C133.446 1038 131.793 1037.41 130.593 1036.24C129.42 1035.07 128.833 1033.45 128.833 1031.4V1020.52H122.873V1016H128.833V1009.8H133.873V1016H142.313V1020.52H133.873V1031.4C133.873 1032.79 134.553 1033.48 135.913 1033.48H141.913V1038H135.553ZM193.882 1019.4L199.082 1006.96H203.442L200.242 1019.4H193.882ZM184.002 1019.4L189.202 1006.96H193.562L190.362 1019.4H184.002ZM224.386 1038.4C222.386 1038.4 220.653 1038.07 219.186 1037.4C217.72 1036.73 216.586 1035.79 215.786 1034.56C215.013 1033.31 214.613 1031.84 214.586 1030.16H219.586C219.586 1031.36 220.013 1032.31 220.866 1033C221.746 1033.67 222.933 1034 224.426 1034C225.866 1034 226.986 1033.67 227.786 1033C228.613 1032.33 229.026 1031.41 229.026 1030.24C229.026 1029.25 228.733 1028.4 228.146 1027.68C227.586 1026.93 226.773 1026.43 225.706 1026.16L222.346 1025.24C220.053 1024.65 218.28 1023.6 217.026 1022.08C215.8 1020.56 215.186 1018.72 215.186 1016.56C215.186 1014.91 215.56 1013.47 216.306 1012.24C217.053 1011.01 218.106 1010.07 219.466 1009.4C220.853 1008.73 222.48 1008.4 224.346 1008.4C227.173 1008.4 229.413 1009.13 231.066 1010.6C232.72 1012.04 233.56 1013.99 233.586 1016.44H228.586C228.586 1015.29 228.213 1014.4 227.466 1013.76C226.72 1013.09 225.666 1012.76 224.306 1012.76C223 1012.76 221.986 1013.07 221.266 1013.68C220.546 1014.29 220.186 1015.16 220.186 1016.28C220.186 1017.29 220.453 1018.16 220.986 1018.88C221.546 1019.57 222.346 1020.07 223.386 1020.36L226.866 1021.32C229.186 1021.91 230.96 1022.96 232.186 1024.48C233.413 1025.97 234.026 1027.83 234.026 1030.04C234.026 1031.69 233.626 1033.16 232.826 1034.44C232.026 1035.69 230.906 1036.67 229.466 1037.36C228.026 1038.05 226.333 1038.4 224.386 1038.4ZM254.691 1038.36C252.824 1038.36 251.197 1038.01 249.811 1037.32C248.451 1036.6 247.384 1035.6 246.611 1034.32C245.864 1033.01 245.491 1031.48 245.491 1029.72V1024.28C245.491 1022.52 245.864 1021 246.611 1019.72C247.384 1018.41 248.451 1017.41 249.811 1016.72C251.197 1016 252.824 1015.64 254.691 1015.64C256.584 1015.64 258.211 1016 259.571 1016.72C260.931 1017.41 261.984 1018.41 262.731 1019.72C263.504 1021 263.891 1022.51 263.891 1024.24V1029.72C263.891 1031.48 263.504 1033.01 262.731 1034.32C261.984 1035.6 260.931 1036.6 259.571 1037.32C258.211 1038.01 256.584 1038.36 254.691 1038.36ZM254.691 1034C256.024 1034 257.051 1033.64 257.771 1032.92C258.517 1032.17 258.891 1031.11 258.891 1029.72V1024.28C258.891 1022.87 258.517 1021.8 257.771 1021.08C257.051 1020.36 256.024 1020 254.691 1020C253.384 1020 252.357 1020.36 251.611 1021.08C250.864 1021.8 250.491 1022.87 250.491 1024.28V1029.72C250.491 1031.11 250.864 1032.17 251.611 1032.92C252.357 1033.64 253.384 1034 254.691 1034ZM285.075 1038.4C282.275 1038.4 280.075 1037.63 278.475 1036.08C276.875 1034.51 276.075 1032.37 276.075 1029.68V1016H281.075V1029.64C281.075 1031.05 281.422 1032.15 282.115 1032.92C282.808 1033.67 283.795 1034.04 285.075 1034.04C286.328 1034.04 287.302 1033.67 287.995 1032.92C288.715 1032.15 289.075 1031.05 289.075 1029.64V1016H294.075V1029.68C294.075 1032.37 293.262 1034.51 291.635 1036.08C290.008 1037.63 287.822 1038.4 285.075 1038.4ZM307.219 1038V1016H311.939V1020.2H313.179L311.699 1022.76C311.699 1020.39 312.233 1018.6 313.299 1017.4C314.366 1016.2 315.939 1015.6 318.019 1015.6C320.393 1015.6 322.259 1016.33 323.619 1017.8C324.979 1019.27 325.659 1021.29 325.659 1023.88V1025.48H320.419V1024.24C320.419 1022.83 320.046 1021.73 319.299 1020.96C318.579 1020.19 317.579 1019.8 316.299 1019.8C314.993 1019.8 313.979 1020.19 313.259 1020.96C312.566 1021.73 312.219 1022.83 312.219 1024.24V1038H307.219ZM345.964 1038.4C344.097 1038.4 342.457 1038.05 341.044 1037.36C339.657 1036.64 338.577 1035.64 337.804 1034.36C337.03 1033.05 336.644 1031.52 336.644 1029.76V1024.24C336.644 1022.45 337.03 1020.92 337.804 1019.64C338.577 1018.36 339.657 1017.37 341.044 1016.68C342.457 1015.96 344.097 1015.6 345.964 1015.6C348.737 1015.6 350.95 1016.32 352.604 1017.76C354.257 1019.17 355.124 1021.11 355.204 1023.56H350.204C350.124 1022.41 349.71 1021.53 348.964 1020.92C348.244 1020.28 347.244 1019.96 345.964 1019.96C344.63 1019.96 343.577 1020.33 342.804 1021.08C342.03 1021.8 341.644 1022.84 341.644 1024.2V1029.76C341.644 1031.12 342.03 1032.17 342.804 1032.92C343.577 1033.67 344.63 1034.04 345.964 1034.04C347.244 1034.04 348.244 1033.73 348.964 1033.12C349.71 1032.48 350.124 1031.59 350.204 1030.44H355.204C355.124 1032.89 354.257 1034.84 352.604 1036.28C350.95 1037.69 348.737 1038.4 345.964 1038.4ZM376.268 1038.4C374.401 1038.4 372.775 1038.04 371.388 1037.32C370.001 1036.6 368.921 1035.6 368.148 1034.32C367.401 1033.01 367.028 1031.49 367.028 1029.76V1024.24C367.028 1022.51 367.401 1021 368.148 1019.72C368.921 1018.41 370.001 1017.4 371.388 1016.68C372.775 1015.96 374.401 1015.6 376.268 1015.6C378.108 1015.6 379.708 1015.96 381.068 1016.68C382.455 1017.4 383.521 1018.41 384.268 1019.72C385.041 1021 385.428 1022.51 385.428 1024.24V1028.2H371.868V1029.76C371.868 1031.31 372.241 1032.48 372.988 1033.28C373.735 1034.05 374.841 1034.44 376.308 1034.44C377.428 1034.44 378.335 1034.25 379.028 1033.88C379.721 1033.48 380.161 1032.91 380.348 1032.16H385.268C384.895 1034.05 383.881 1035.57 382.228 1036.72C380.601 1037.84 378.615 1038.4 376.268 1038.4ZM380.588 1025.4V1024.2C380.588 1022.68 380.228 1021.52 379.508 1020.72C378.788 1019.89 377.708 1019.48 376.268 1019.48C374.828 1019.48 373.735 1019.89 372.988 1020.72C372.241 1021.55 371.868 1022.72 371.868 1024.24V1025.08L380.948 1025L380.588 1025.4ZM406.972 1019.4L410.172 1006.96H416.532L411.332 1019.4H406.972ZM397.092 1019.4L400.292 1006.96H406.652L401.452 1019.4H397.092Z" fill="#EBDBB2"/>
<path d="M32.88 988V958.8H39L47.12 982.4C47.04 981.547 46.9467 980.547 46.84 979.4C46.76 978.227 46.6933 977.04 46.64 975.84C46.5867 974.613 46.56 973.547 46.56 972.64V958.8H51.12V988H45L36.96 964.4C37.0133 965.173 37.08 966.107 37.16 967.2C37.24 968.293 37.3067 969.413 37.36 970.56C37.4133 971.707 37.44 972.76 37.44 973.72V988H32.88ZM63.4244 988V983.44H71.1044V970.52H64.4244V966H75.9044V983.44H82.7044V988H63.4244ZM73.1044 962.32C72.091 962.32 71.291 962.067 70.7044 961.56C70.1177 961.027 69.8244 960.32 69.8244 959.44C69.8244 958.56 70.1177 957.867 70.7044 957.36C71.291 956.827 72.091 956.56 73.1044 956.56C74.1177 956.56 74.9177 956.827 75.5044 957.36C76.091 957.867 76.3844 958.56 76.3844 959.44C76.3844 960.32 76.091 961.027 75.5044 961.56C74.9177 962.067 74.1177 962.32 73.1044 962.32ZM92.2087 988L99.8887 976.64L92.7287 966H98.3687L101.769 971.4C101.982 971.72 102.169 972.08 102.329 972.48C102.515 972.88 102.662 973.2 102.769 973.44C102.875 973.2 103.022 972.88 103.209 972.48C103.395 972.08 103.582 971.72 103.769 971.4L107.209 966H112.849L105.689 976.64L113.329 988H107.649L103.849 981.96C103.635 981.613 103.435 981.24 103.249 980.84C103.062 980.44 102.902 980.12 102.769 979.88C102.662 980.12 102.515 980.44 102.329 980.84C102.142 981.24 101.942 981.613 101.729 981.96L97.8487 988H92.2087ZM133.153 988.4C131.286 988.4 129.66 988.053 128.273 987.36C126.913 986.64 125.86 985.64 125.113 984.36C124.393 983.053 124.033 981.52 124.033 979.76V967.04C124.033 965.28 124.393 963.76 125.113 962.48C125.86 961.173 126.913 960.173 128.273 959.48C129.66 958.76 131.286 958.4 133.153 958.4C135.046 958.4 136.673 958.76 138.033 959.48C139.393 960.173 140.433 961.173 141.153 962.48C141.9 963.76 142.273 965.267 142.273 967V979.76C142.273 981.52 141.9 983.053 141.153 984.36C140.433 985.64 139.393 986.64 138.033 987.36C136.673 988.053 135.046 988.4 133.153 988.4ZM133.153 984C134.513 984 135.54 983.64 136.233 982.92C136.926 982.173 137.273 981.12 137.273 979.76V967.04C137.273 965.653 136.926 964.6 136.233 963.88C135.54 963.16 134.513 962.8 133.153 962.8C131.793 962.8 130.766 963.16 130.073 963.88C129.38 964.6 129.033 965.653 129.033 967.04V979.76C129.033 981.12 129.38 982.173 130.073 982.92C130.793 983.64 131.82 984 133.153 984ZM163.617 988.4C161.617 988.4 159.884 988.067 158.417 987.4C156.951 986.733 155.817 985.787 155.017 984.56C154.244 983.307 153.844 981.84 153.817 980.16H158.817C158.817 981.36 159.244 982.307 160.097 983C160.977 983.667 162.164 984 163.657 984C165.097 984 166.217 983.667 167.017 983C167.844 982.333 168.257 981.413 168.257 980.24C168.257 979.253 167.964 978.4 167.377 977.68C166.817 976.933 166.004 976.427 164.937 976.16L161.577 975.24C159.284 974.653 157.511 973.6 156.257 972.08C155.031 970.56 154.417 968.72 154.417 966.56C154.417 964.907 154.791 963.467 155.537 962.24C156.284 961.013 157.337 960.067 158.697 959.4C160.084 958.733 161.711 958.4 163.577 958.4C166.404 958.4 168.644 959.133 170.297 960.6C171.951 962.04 172.791 963.987 172.817 966.44H167.817C167.817 965.293 167.444 964.4 166.697 963.76C165.951 963.093 164.897 962.76 163.537 962.76C162.231 962.76 161.217 963.067 160.497 963.68C159.777 964.293 159.417 965.16 159.417 966.28C159.417 967.293 159.684 968.16 160.217 968.88C160.777 969.573 161.577 970.067 162.617 970.36L166.097 971.32C168.417 971.907 170.191 972.96 171.417 974.48C172.644 975.973 173.258 977.827 173.258 980.04C173.258 981.693 172.857 983.16 172.057 984.44C171.257 985.693 170.137 986.667 168.697 987.36C167.257 988.053 165.564 988.4 163.617 988.4ZM215.466 988V983.16L224.586 974C225.866 972.693 226.813 971.52 227.426 970.48C228.04 969.413 228.346 968.32 228.346 967.2C228.346 965.84 227.973 964.787 227.226 964.04C226.48 963.267 225.466 962.88 224.186 962.88C222.773 962.88 221.666 963.293 220.866 964.12C220.066 964.92 219.666 966.04 219.666 967.48H214.666C214.693 965.613 215.093 964.013 215.866 962.68C216.666 961.32 217.786 960.267 219.226 959.52C220.666 958.773 222.346 958.4 224.266 958.4C226.106 958.4 227.706 958.747 229.066 959.44C230.426 960.133 231.48 961.107 232.226 962.36C232.973 963.613 233.346 965.107 233.346 966.84C233.346 968.627 232.88 970.373 231.946 972.08C231.04 973.76 229.573 975.573 227.546 977.52L221.466 983.48H233.706V988H215.466ZM258.291 988V982.2H245.291V974.96L256.531 958.8H262.131L250.091 976.28V977.8H258.291V971.2H263.291V988H258.291ZM285.075 988.4C283.928 988.4 283.008 988.067 282.315 987.4C281.648 986.733 281.315 985.827 281.315 984.68C281.315 983.533 281.648 982.627 282.315 981.96C283.008 981.267 283.928 980.92 285.075 980.92C286.222 980.92 287.128 981.267 287.795 981.96C288.488 982.627 288.835 983.533 288.835 984.68C288.835 985.827 288.488 986.733 287.795 987.4C287.128 988.067 286.222 988.4 285.075 988.4ZM306.819 988V983.6H314.419V963.24L306.779 968.92V963.64L313.499 958.8H319.419V983.6H325.539V988H306.819ZM337.204 988V983.6H344.804V963.24L337.164 968.92V963.64L343.884 958.8H349.804V983.6H355.924V988H337.204Z" fill="#EBDBB2"/>
<path d="M1368 450L1407.1 507.904L1465 547L1407.1 586.096L1368 644L1328.9 586.096L1271 547L1328.9 507.904L1368 450Z" fill="#FABD2F" fill-opacity="0.3"/>
<path d="M1368.07 480.408L1377.62 538.362L1435.57 547.908L1377.62 557.454L1368.07 615.408L1358.53 557.454L1300.57 547.908L1358.53 538.362L1368.07 480.408Z" fill="#FABD2F"/>
<circle cx="1155.5" cy="547.5" r="17" stroke="#948276" stroke-width="5" stroke-dasharray="5 5"/>
<circle cx="1005.5" cy="547.5" r="17" stroke="#948276" stroke-width="5" stroke-linejoin="round" stroke-dasharray="5 5"/>
<circle cx="386.5" cy="547.258" r="18.5" fill="url(#paint1_linear_254_457)"/>
<path fill-rule="evenodd" clip-rule="evenodd" d="M388.91 565.603C388.779 566.166 388.644 566.708 388.503 567.227C387.851 569.636 387.144 571.365 386.5 572.45C385.856 571.365 385.149 569.636 384.497 567.227C383.112 562.115 382.207 554.828 382.207 546.621C382.207 538.414 383.112 531.127 384.497 526.014C385.149 523.606 385.856 521.876 386.5 520.791C387.144 521.876 387.851 523.606 388.503 526.014C388.75 526.927 388.982 527.909 389.197 528.954C390.693 529.172 392.13 529.57 393.488 530.124C392.014 521.63 389.435 516 386.5 516C381.92 516 378.207 529.709 378.207 546.621C378.207 563.532 381.92 577.241 386.5 577.241C389.273 577.241 391.729 572.215 393.234 564.495C391.865 565.03 390.416 565.407 388.91 565.603ZM385.759 573.429C385.759 573.427 385.772 573.416 385.798 573.4C385.773 573.422 385.76 573.43 385.759 573.429ZM387.202 573.4C387.228 573.416 387.24 573.427 387.24 573.429C387.24 573.43 387.227 573.422 387.202 573.4ZM387.24 519.813C387.24 519.814 387.228 519.825 387.202 519.841C387.227 519.819 387.24 519.811 387.24 519.813ZM385.798 519.841C385.772 519.825 385.759 519.814 385.759 519.813C385.76 519.811 385.773 519.819 385.798 519.841Z" fill="url(#paint2_linear_254_457)"/>
<path d="M858.52 442V412.8H876.04V417.16H863.44V424.76H874.64V429.08H863.44V437.64H876.04V442H858.52ZM897.384 442.36C895.518 442.36 893.891 442.013 892.504 441.32C891.144 440.6 890.078 439.6 889.304 438.32C888.558 437.013 888.184 435.48 888.184 433.72V428.28C888.184 426.52 888.558 425 889.304 423.72C890.078 422.413 891.144 421.413 892.504 420.72C893.891 420 895.518 419.64 897.384 419.64C899.278 419.64 900.904 420 902.264 420.72C903.624 421.413 904.678 422.413 905.424 423.72C906.198 425 906.584 426.507 906.584 428.24V433.72C906.584 435.48 906.198 437.013 905.424 438.32C904.678 439.6 903.624 440.6 902.264 441.32C900.904 442.013 899.278 442.36 897.384 442.36ZM897.384 438C898.718 438 899.744 437.64 900.464 436.92C901.211 436.173 901.584 435.107 901.584 433.72V428.28C901.584 426.867 901.211 425.8 900.464 425.08C899.744 424.36 898.718 424 897.384 424C896.078 424 895.051 424.36 894.304 425.08C893.558 425.8 893.184 426.867 893.184 428.28V433.72C893.184 435.107 893.558 436.173 894.304 436.92C895.051 437.64 896.078 438 897.384 438ZM926.929 442.36C925.249 442.36 923.782 442.093 922.529 441.56C921.275 441.027 920.289 440.293 919.569 439.36C918.875 438.4 918.502 437.28 918.449 436H923.449C923.502 436.693 923.835 437.253 924.449 437.68C925.089 438.107 925.915 438.32 926.929 438.32H928.689C929.915 438.32 930.835 438.08 931.449 437.6C932.062 437.12 932.369 436.467 932.369 435.64C932.369 434.867 932.089 434.267 931.529 433.84C930.995 433.387 930.155 433.093 929.009 432.96L926.289 432.56C923.782 432.213 921.942 431.547 920.769 430.56C919.595 429.573 919.009 428.093 919.009 426.12C919.009 424.067 919.702 422.48 921.089 421.36C922.475 420.213 924.515 419.64 927.209 419.64H928.729C931.182 419.64 933.142 420.187 934.609 421.28C936.075 422.373 936.862 423.84 936.969 425.68H931.969C931.889 425.093 931.555 424.613 930.969 424.24C930.409 423.867 929.662 423.68 928.729 423.68H927.209C926.062 423.68 925.222 423.893 924.689 424.32C924.182 424.72 923.929 425.32 923.929 426.12C923.929 426.867 924.155 427.427 924.609 427.8C925.062 428.147 925.795 428.4 926.809 428.56L929.649 428.96C932.262 429.333 934.182 430.04 935.409 431.08C936.662 432.093 937.289 433.6 937.289 435.6C937.289 437.733 936.555 439.4 935.089 440.6C933.649 441.773 931.515 442.36 928.689 442.36H926.929Z" fill="#EBDBB2" fill-opacity="0.75"/>
<circle cx="845.5" cy="547.5" r="14.5" fill="url(#paint3_linear_254_457)"/>
<path fill-rule="evenodd" clip-rule="evenodd" d="M859.992 547.998C859.997 547.833 860 547.667 860 547.5C860 545.413 859.559 543.429 858.766 541.637L835.514 536.986C833.943 538.479 832.706 540.32 831.928 542.385L859.992 547.998Z" fill="url(#paint4_linear_254_457)"/>
<path fill-rule="evenodd" clip-rule="evenodd" d="M831.969 542.277L859.995 547.883C859.941 549.968 859.447 551.944 858.602 553.72L831.017 548.203C831.006 547.97 831 547.736 831 547.5C831 545.659 831.343 543.898 831.969 542.277Z" fill="url(#paint5_linear_254_457)"/>
<path fill-rule="evenodd" clip-rule="evenodd" d="M831.1 549.21L831.343 548.152L858.652 553.614C857.687 555.687 856.246 557.494 854.469 558.894L832.836 554.567C831.93 552.948 831.326 551.137 831.1 549.21Z" fill="url(#paint6_linear_254_457)"/>
<path fill-rule="evenodd" clip-rule="evenodd" d="M854.586 558.802C852.1 560.803 848.94 562.001 845.5 562.001C840.005 562.001 835.223 558.944 832.764 554.438L854.586 558.802Z" fill="url(#paint7_linear_254_457)"/>
<path fill-rule="evenodd" clip-rule="evenodd" d="M845.583 533L851.02 534.088C854.516 535.528 857.326 538.296 858.821 541.764L835.414 537.083C838.024 534.555 841.58 533 845.5 533C845.528 533 845.555 533 845.583 533Z" fill="url(#paint8_linear_254_457)"/>
<path d="M940.5 449.5H864.5L847 441.5V526.5" stroke="#6A5D54" stroke-width="4"/>
<path d="M637 442.4C634.147 442.4 631.907 441.627 630.28 440.08C628.68 438.507 627.88 436.373 627.88 433.68V412.8H632.92V433.64C632.92 435.027 633.267 436.107 633.96 436.88C634.653 437.653 635.667 438.04 637 438.04C638.307 438.04 639.307 437.653 640 436.88C640.72 436.107 641.08 435.027 641.08 433.64V412.8H646.12V433.68C646.12 436.373 645.32 438.507 643.72 440.08C642.12 441.627 639.88 442.4 637 442.4ZM657.464 442V420H661.544V422.96H662.384L661.704 423.68C661.704 422.453 662.051 421.467 662.744 420.72C663.438 419.973 664.331 419.6 665.424 419.6C666.598 419.6 667.504 420.08 668.144 421.04C668.811 422 669.144 423.293 669.144 424.92L668.264 422.96H669.624L669.104 423.68C669.104 422.453 669.451 421.467 670.144 420.72C670.838 419.973 671.758 419.6 672.904 419.6C674.264 419.6 675.344 420.107 676.144 421.12C676.944 422.133 677.344 423.507 677.344 425.24V442H672.944V425.44C672.944 424.72 672.784 424.16 672.464 423.76C672.144 423.333 671.678 423.12 671.064 423.12C670.478 423.12 670.011 423.32 669.664 423.72C669.344 424.12 669.184 424.693 669.184 425.44V442H665.584V425.44C665.584 424.693 665.424 424.12 665.104 423.72C664.784 423.32 664.318 423.12 663.704 423.12C663.091 423.12 662.624 423.32 662.304 423.72C662.011 424.12 661.864 424.693 661.864 425.44V442H657.464ZM699.649 442.4C697.835 442.4 696.395 441.893 695.329 440.88C694.262 439.84 693.729 438.427 693.729 436.64L694.849 437.8H693.729V442H688.849V412.8H693.849V418.96L693.689 424.2H694.849L693.729 425.36C693.729 423.573 694.262 422.173 695.329 421.16C696.395 420.12 697.835 419.6 699.649 419.6C701.862 419.6 703.635 420.36 704.969 421.88C706.302 423.4 706.969 425.453 706.969 428.04V434C706.969 436.56 706.302 438.6 704.969 440.12C703.635 441.64 701.862 442.4 699.649 442.4ZM697.889 438.08C699.169 438.08 700.169 437.707 700.889 436.96C701.609 436.213 701.969 435.147 701.969 433.76V428.24C701.969 426.853 701.609 425.787 700.889 425.04C700.169 424.293 699.169 423.92 697.889 423.92C696.635 423.92 695.649 424.307 694.929 425.08C694.209 425.827 693.849 426.88 693.849 428.24V433.76C693.849 435.12 694.209 436.187 694.929 436.96C695.649 437.707 696.635 438.08 697.889 438.08ZM719.913 442V420H724.633V424.2H725.873L724.393 426.76C724.393 424.387 724.926 422.6 725.993 421.4C727.06 420.2 728.633 419.6 730.713 419.6C733.086 419.6 734.953 420.333 736.313 421.8C737.673 423.267 738.353 425.293 738.353 427.88V429.48H733.113V428.24C733.113 426.827 732.74 425.733 731.993 424.96C731.273 424.187 730.273 423.8 728.993 423.8C727.686 423.8 726.673 424.187 725.953 424.96C725.26 425.733 724.913 426.827 724.913 428.24V442H719.913ZM749.577 442V437.44H757.257V424.52H750.577V420H762.057V437.44H768.857V442H749.577ZM759.257 416.32C758.244 416.32 757.444 416.067 756.857 415.56C756.271 415.027 755.977 414.32 755.977 413.44C755.977 412.56 756.271 411.867 756.857 411.36C757.444 410.827 758.244 410.56 759.257 410.56C760.271 410.56 761.071 410.827 761.657 411.36C762.244 411.867 762.537 412.56 762.537 413.44C762.537 414.32 762.244 415.027 761.657 415.56C761.071 416.067 760.271 416.32 759.257 416.32ZM788.962 442.4C787.095 442.4 785.469 442.04 784.082 441.32C782.695 440.6 781.615 439.6 780.842 438.32C780.095 437.013 779.722 435.493 779.722 433.76V428.24C779.722 426.507 780.095 425 780.842 423.72C781.615 422.413 782.695 421.4 784.082 420.68C785.469 419.96 787.095 419.6 788.962 419.6C790.802 419.6 792.402 419.96 793.762 420.68C795.149 421.4 796.215 422.413 796.962 423.72C797.735 425 798.122 426.507 798.122 428.24V432.2H784.562V433.76C784.562 435.307 784.935 436.48 785.682 437.28C786.429 438.053 787.535 438.44 789.002 438.44C790.122 438.44 791.029 438.253 791.722 437.88C792.415 437.48 792.855 436.907 793.042 436.16H797.962C797.589 438.053 796.575 439.573 794.922 440.72C793.295 441.84 791.309 442.4 788.962 442.4ZM793.282 429.4V428.2C793.282 426.68 792.922 425.52 792.202 424.72C791.482 423.893 790.402 423.48 788.962 423.48C787.522 423.48 786.429 423.893 785.682 424.72C784.935 425.547 784.562 426.72 784.562 428.24V429.08L793.642 429L793.282 429.4ZM822.666 442C821.226 442 819.96 441.707 818.866 441.12C817.8 440.533 816.96 439.707 816.346 438.64C815.733 437.547 815.426 436.293 815.426 434.88V417.32H808.386V412.8H820.426V434.88C820.426 435.68 820.653 436.32 821.106 436.8C821.586 437.253 822.226 437.48 823.026 437.48H829.666V442H822.666Z" fill="#EBDBB2" fill-opacity="0.75"/>
<path d="M828 449.5H634.5L617 441.5V516.5" stroke="#6A5D54" stroke-width="4"/>
<path d="M1388.08 372.4C1386.08 372.4 1384.35 372.067 1382.88 371.4C1381.41 370.733 1380.28 369.787 1379.48 368.56C1378.71 367.307 1378.31 365.84 1378.28 364.16H1383.28C1383.28 365.36 1383.71 366.307 1384.56 367C1385.44 367.667 1386.63 368 1388.12 368C1389.56 368 1390.68 367.667 1391.48 367C1392.31 366.333 1392.72 365.413 1392.72 364.24C1392.72 363.253 1392.43 362.4 1391.84 361.68C1391.28 360.933 1390.47 360.427 1389.4 360.16L1386.04 359.24C1383.75 358.653 1381.97 357.6 1380.72 356.08C1379.49 354.56 1378.88 352.72 1378.88 350.56C1378.88 348.907 1379.25 347.467 1380 346.24C1380.75 345.013 1381.8 344.067 1383.16 343.4C1384.55 342.733 1386.17 342.4 1388.04 342.4C1390.87 342.4 1393.11 343.133 1394.76 344.6C1396.41 346.04 1397.25 347.987 1397.28 350.44H1392.28C1392.28 349.293 1391.91 348.4 1391.16 347.76C1390.41 347.093 1389.36 346.76 1388 346.76C1386.69 346.76 1385.68 347.067 1384.96 347.68C1384.24 348.293 1383.88 349.16 1383.88 350.28C1383.88 351.293 1384.15 352.16 1384.68 352.88C1385.24 353.573 1386.04 354.067 1387.08 354.36L1390.56 355.32C1392.88 355.907 1394.65 356.96 1395.88 358.48C1397.11 359.973 1397.72 361.827 1397.72 364.04C1397.72 365.693 1397.32 367.16 1396.52 368.44C1395.72 369.693 1394.6 370.667 1393.16 371.36C1391.72 372.053 1390.03 372.4 1388.08 372.4ZM1418.38 372.36C1416.52 372.36 1414.89 372.013 1413.5 371.32C1412.14 370.6 1411.08 369.6 1410.3 368.32C1409.56 367.013 1409.18 365.48 1409.18 363.72V358.28C1409.18 356.52 1409.56 355 1410.3 353.72C1411.08 352.413 1412.14 351.413 1413.5 350.72C1414.89 350 1416.52 349.64 1418.38 349.64C1420.28 349.64 1421.9 350 1423.26 350.72C1424.62 351.413 1425.68 352.413 1426.42 353.72C1427.2 355 1427.58 356.507 1427.58 358.24V363.72C1427.58 365.48 1427.2 367.013 1426.42 368.32C1425.68 369.6 1424.62 370.6 1423.26 371.32C1421.9 372.013 1420.28 372.36 1418.38 372.36ZM1418.38 368C1419.72 368 1420.74 367.64 1421.46 366.92C1422.21 366.173 1422.58 365.107 1422.58 363.72V358.28C1422.58 356.867 1422.21 355.8 1421.46 355.08C1420.74 354.36 1419.72 354 1418.38 354C1417.08 354 1416.05 354.36 1415.3 355.08C1414.56 355.8 1414.18 356.867 1414.18 358.28V363.72C1414.18 365.107 1414.56 366.173 1415.3 366.92C1416.05 367.64 1417.08 368 1418.38 368ZM1448.77 372.4C1445.97 372.4 1443.77 371.627 1442.17 370.08C1440.57 368.507 1439.77 366.373 1439.77 363.68V350H1444.77V363.64C1444.77 365.053 1445.12 366.147 1445.81 366.92C1446.5 367.667 1447.49 368.04 1448.77 368.04C1450.02 368.04 1451 367.667 1451.69 366.92C1452.41 366.147 1452.77 365.053 1452.77 363.64V350H1457.77V363.68C1457.77 366.373 1456.96 368.507 1455.33 370.08C1453.7 371.627 1451.52 372.4 1448.77 372.4ZM1470.91 372V350H1475.63V354.2H1476.87L1475.39 356.76C1475.39 354.387 1475.93 352.6 1476.99 351.4C1478.06 350.2 1479.63 349.6 1481.71 349.6C1484.09 349.6 1485.95 350.333 1487.31 351.8C1488.67 353.267 1489.35 355.293 1489.35 357.88V359.48H1484.11V358.24C1484.11 356.827 1483.74 355.733 1482.99 354.96C1482.27 354.187 1481.27 353.8 1479.99 353.8C1478.69 353.8 1477.67 354.187 1476.95 354.96C1476.26 355.733 1475.91 356.827 1475.91 358.24V372H1470.91ZM1509.66 372.4C1507.79 372.4 1506.15 372.053 1504.74 371.36C1503.35 370.64 1502.27 369.64 1501.5 368.36C1500.72 367.053 1500.34 365.52 1500.34 363.76V358.24C1500.34 356.453 1500.72 354.92 1501.5 353.64C1502.27 352.36 1503.35 351.373 1504.74 350.68C1506.15 349.96 1507.79 349.6 1509.66 349.6C1512.43 349.6 1514.64 350.32 1516.3 351.76C1517.95 353.173 1518.82 355.107 1518.9 357.56H1513.9C1513.82 356.413 1513.4 355.533 1512.66 354.92C1511.94 354.28 1510.94 353.96 1509.66 353.96C1508.32 353.96 1507.27 354.333 1506.5 355.08C1505.72 355.8 1505.34 356.84 1505.34 358.2V363.76C1505.34 365.12 1505.72 366.173 1506.5 366.92C1507.27 367.667 1508.32 368.04 1509.66 368.04C1510.94 368.04 1511.94 367.733 1512.66 367.12C1513.4 366.48 1513.82 365.587 1513.9 364.44H1518.9C1518.82 366.893 1517.95 368.84 1516.3 370.28C1514.64 371.693 1512.43 372.4 1509.66 372.4ZM1539.96 372.4C1538.1 372.4 1536.47 372.04 1535.08 371.32C1533.7 370.6 1532.62 369.6 1531.84 368.32C1531.1 367.013 1530.72 365.493 1530.72 363.76V358.24C1530.72 356.507 1531.1 355 1531.84 353.72C1532.62 352.413 1533.7 351.4 1535.08 350.68C1536.47 349.96 1538.1 349.6 1539.96 349.6C1541.8 349.6 1543.4 349.96 1544.76 350.68C1546.15 351.4 1547.22 352.413 1547.96 353.72C1548.74 355 1549.12 356.507 1549.12 358.24V362.2H1535.56V363.76C1535.56 365.307 1535.94 366.48 1536.68 367.28C1537.43 368.053 1538.54 368.44 1540 368.44C1541.12 368.44 1542.03 368.253 1542.72 367.88C1543.42 367.48 1543.86 366.907 1544.04 366.16H1548.96C1548.59 368.053 1547.58 369.573 1545.92 370.72C1544.3 371.84 1542.31 372.4 1539.96 372.4ZM1544.28 359.4V358.2C1544.28 356.68 1543.92 355.52 1543.2 354.72C1542.48 353.893 1541.4 353.48 1539.96 353.48C1538.52 353.48 1537.43 353.893 1536.68 354.72C1535.94 355.547 1535.56 356.72 1535.56 358.24V359.08L1544.64 359L1544.28 359.4Z" fill="#EBDBB2" fill-opacity="0.75"/>
<path d="M1552.5 379.5H1385.5L1368 371.5V436.5" stroke="#6A5D54" stroke-width="4"/>
<path d="M396.4 442L403.76 412.8H410.2L417.6 442H412.48L410.88 434.92H403.12L401.52 442H396.4ZM404.04 430.84H409.96L408.2 423C407.907 421.693 407.653 420.52 407.44 419.48C407.227 418.413 407.08 417.64 407 417.16C406.92 417.64 406.773 418.413 406.56 419.48C406.373 420.52 406.12 421.68 405.8 422.96L404.04 430.84ZM437.424 442.4C435.558 442.4 433.931 442.04 432.544 441.32C431.158 440.6 430.078 439.6 429.304 438.32C428.558 437.013 428.184 435.493 428.184 433.76V428.24C428.184 426.507 428.558 425 429.304 423.72C430.078 422.413 431.158 421.4 432.544 420.68C433.931 419.96 435.558 419.6 437.424 419.6C439.264 419.6 440.864 419.96 442.224 420.68C443.611 421.4 444.678 422.413 445.424 423.72C446.198 425 446.584 426.507 446.584 428.24V432.2H433.024V433.76C433.024 435.307 433.398 436.48 434.144 437.28C434.891 438.053 435.998 438.44 437.464 438.44C438.584 438.44 439.491 438.253 440.184 437.88C440.878 437.48 441.318 436.907 441.504 436.16H446.424C446.051 438.053 445.038 439.573 443.384 440.72C441.758 441.84 439.771 442.4 437.424 442.4ZM441.744 429.4V428.2C441.744 426.68 441.384 425.52 440.664 424.72C439.944 423.893 438.864 423.48 437.424 423.48C435.984 423.48 434.891 423.893 434.144 424.72C433.398 425.547 433.024 426.72 433.024 428.24V429.08L442.104 429L441.744 429.4ZM470.169 442C468.062 442 466.409 441.413 465.209 440.24C464.035 439.067 463.449 437.453 463.449 435.4V424.52H457.489V420H463.449V413.8H468.489V420H476.929V424.52H468.489V435.4C468.489 436.787 469.169 437.48 470.529 437.48H476.529V442H470.169ZM489.233 442V412.8H494.233V420L494.113 424.2H495.473L494.113 425.36C494.113 423.547 494.633 422.133 495.673 421.12C496.74 420.107 498.193 419.6 500.033 419.6C502.193 419.6 503.913 420.32 505.193 421.76C506.5 423.2 507.153 425.133 507.153 427.56V442H502.153V428.08C502.153 426.747 501.806 425.72 501.113 425C500.42 424.28 499.446 423.92 498.193 423.92C496.966 423.92 495.993 424.293 495.273 425.04C494.58 425.787 494.233 426.853 494.233 428.24V442H489.233ZM528.577 442.4C526.711 442.4 525.084 442.04 523.697 441.32C522.311 440.6 521.231 439.6 520.457 438.32C519.711 437.013 519.337 435.493 519.337 433.76V428.24C519.337 426.507 519.711 425 520.457 423.72C521.231 422.413 522.311 421.4 523.697 420.68C525.084 419.96 526.711 419.6 528.577 419.6C530.417 419.6 532.017 419.96 533.377 420.68C534.764 421.4 535.831 422.413 536.578 423.72C537.351 425 537.737 426.507 537.737 428.24V432.2H524.177V433.76C524.177 435.307 524.551 436.48 525.297 437.28C526.044 438.053 527.151 438.44 528.617 438.44C529.737 438.44 530.644 438.253 531.337 437.88C532.031 437.48 532.471 436.907 532.657 436.16H537.577C537.204 438.053 536.191 439.573 534.537 440.72C532.911 441.84 530.924 442.4 528.577 442.4ZM532.897 429.4V428.2C532.897 426.68 532.537 425.52 531.817 424.72C531.097 423.893 530.017 423.48 528.577 423.48C527.137 423.48 526.044 423.893 525.297 424.72C524.551 425.547 524.177 426.72 524.177 428.24V429.08L533.257 429L532.897 429.4ZM550.682 442V420H555.402V424.2H556.642L555.162 426.76C555.162 424.387 555.695 422.6 556.762 421.4C557.829 420.2 559.402 419.6 561.482 419.6C563.855 419.6 565.722 420.333 567.082 421.8C568.442 423.267 569.122 425.293 569.122 427.88V429.48H563.882V428.24C563.882 426.827 563.509 425.733 562.762 424.96C562.042 424.187 561.042 423.8 559.762 423.8C558.455 423.8 557.442 424.187 556.722 424.96C556.029 425.733 555.682 426.827 555.682 428.24V442H550.682Z" fill="#EBDBB2" fill-opacity="0.75"/>
<path d="M570.5 449.5H404.5L387 441.5V506.5" stroke="#6A5D54" stroke-width="4"/>
<path d="M768.08 685.4C766.08 685.4 764.347 685.067 762.88 684.4C761.413 683.733 760.28 682.787 759.48 681.56C758.707 680.307 758.307 678.84 758.28 677.16H763.28C763.28 678.36 763.707 679.307 764.56 680C765.44 680.667 766.627 681 768.12 681C769.56 681 770.68 680.667 771.48 680C772.307 679.333 772.72 678.413 772.72 677.24C772.72 676.253 772.427 675.4 771.84 674.68C771.28 673.933 770.467 673.427 769.4 673.16L766.04 672.24C763.747 671.653 761.973 670.6 760.72 669.08C759.493 667.56 758.88 665.72 758.88 663.56C758.88 661.907 759.253 660.467 760 659.24C760.747 658.013 761.8 657.067 763.16 656.4C764.547 655.733 766.173 655.4 768.04 655.4C770.867 655.4 773.107 656.133 774.76 657.6C776.413 659.04 777.253 660.987 777.28 663.44H772.28C772.28 662.293 771.907 661.4 771.16 660.76C770.413 660.093 769.36 659.76 768 659.76C766.693 659.76 765.68 660.067 764.96 660.68C764.24 661.293 763.88 662.16 763.88 663.28C763.88 664.293 764.147 665.16 764.68 665.88C765.24 666.573 766.04 667.067 767.08 667.36L770.56 668.32C772.88 668.907 774.653 669.96 775.88 671.48C777.107 672.973 777.72 674.827 777.72 677.04C777.72 678.693 777.32 680.16 776.52 681.44C775.72 682.693 774.6 683.667 773.16 684.36C771.72 685.053 770.027 685.4 768.08 685.4ZM794.384 685C792.278 685 790.624 684.413 789.424 683.24C788.251 682.067 787.664 680.453 787.664 678.4V667.52H781.704V663H787.664V656.8H792.704V663H801.144V667.52H792.704V678.4C792.704 679.787 793.384 680.48 794.744 680.48H800.744V685H794.384ZM813.529 685.4C811.262 685.4 809.475 684.8 808.169 683.6C806.862 682.4 806.209 680.787 806.209 678.76C806.209 676.6 806.929 674.933 808.369 673.76C809.809 672.587 811.849 672 814.489 672H819.969V670.12C819.969 669.053 819.622 668.227 818.929 667.64C818.235 667.027 817.289 666.72 816.089 666.72C814.995 666.72 814.089 666.96 813.369 667.44C812.649 667.92 812.222 668.573 812.089 669.4H807.209C807.449 667.32 808.382 665.667 810.009 664.44C811.635 663.213 813.715 662.6 816.249 662.6C818.942 662.6 821.062 663.28 822.609 664.64C824.182 665.973 824.969 667.787 824.969 670.08V685H820.129V681.16H819.329L820.129 680.08C820.129 681.707 819.529 683 818.329 683.96C817.129 684.92 815.529 685.4 813.529 685.4ZM815.169 681.64C816.582 681.64 817.729 681.28 818.609 680.56C819.515 679.84 819.969 678.907 819.969 677.76V675.08H814.569C813.555 675.08 812.742 675.373 812.129 675.96C811.515 676.547 811.209 677.32 811.209 678.28C811.209 679.32 811.555 680.147 812.249 680.76C812.969 681.347 813.942 681.64 815.169 681.64ZM831.713 685V663H836.433V667.2H837.673L836.193 669.76C836.193 667.387 836.726 665.6 837.793 664.4C838.86 663.2 840.433 662.6 842.513 662.6C844.886 662.6 846.753 663.333 848.113 664.8C849.473 666.267 850.153 668.293 850.153 670.88V672.48H844.913V671.24C844.913 669.827 844.54 668.733 843.793 667.96C843.073 667.187 842.073 666.8 840.793 666.8C839.486 666.8 838.473 667.187 837.753 667.96C837.06 668.733 836.713 669.827 836.713 671.24V685H831.713ZM879.002 685V663H883.882V667.2H885.242L883.882 668.36C883.882 666.547 884.402 665.133 885.442 664.12C886.509 663.107 887.962 662.6 889.802 662.6C891.962 662.6 893.682 663.32 894.962 664.76C896.269 666.2 896.922 668.133 896.922 670.56V685H891.922V671.08C891.922 669.747 891.575 668.72 890.882 668C890.189 667.28 889.215 666.92 887.962 666.92C886.735 666.92 885.762 667.293 885.042 668.04C884.349 668.787 884.002 669.853 884.002 671.24V685H879.002ZM909.466 685.4C907.2 685.4 905.413 684.8 904.106 683.6C902.8 682.4 902.146 680.787 902.146 678.76C902.146 676.6 902.866 674.933 904.306 673.76C905.746 672.587 907.786 672 910.426 672H915.906V670.12C915.906 669.053 915.56 668.227 914.866 667.64C914.173 667.027 913.226 666.72 912.026 666.72C910.933 666.72 910.026 666.96 909.306 667.44C908.586 667.92 908.16 668.573 908.026 669.4H903.146C903.386 667.32 904.32 665.667 905.946 664.44C907.573 663.213 909.653 662.6 912.186 662.6C914.88 662.6 917 663.28 918.546 664.64C920.12 665.973 920.906 667.787 920.906 670.08V685H916.066V681.16H915.266L916.066 680.08C916.066 681.707 915.466 683 914.266 683.96C913.066 684.92 911.466 685.4 909.466 685.4ZM911.106 681.64C912.52 681.64 913.666 681.28 914.546 680.56C915.453 679.84 915.906 678.907 915.906 677.76V675.08H910.506C909.493 675.08 908.68 675.373 908.066 675.96C907.453 676.547 907.146 677.32 907.146 678.28C907.146 679.32 907.493 680.147 908.186 680.76C908.906 681.347 909.88 681.64 911.106 681.64ZM925.971 685V663H930.051V665.96H930.891L930.211 666.68C930.211 665.453 930.557 664.467 931.251 663.72C931.944 662.973 932.837 662.6 933.931 662.6C935.104 662.6 936.011 663.08 936.651 664.04C937.317 665 937.651 666.293 937.651 667.92L936.771 665.96H938.131L937.611 666.68C937.611 665.453 937.957 664.467 938.651 663.72C939.344 662.973 940.264 662.6 941.411 662.6C942.771 662.6 943.851 663.107 944.651 664.12C945.451 665.133 945.851 666.507 945.851 668.24V685H941.451V668.44C941.451 667.72 941.291 667.16 940.971 666.76C940.651 666.333 940.184 666.12 939.571 666.12C938.984 666.12 938.517 666.32 938.171 666.72C937.851 667.12 937.691 667.693 937.691 668.44V685H934.091V668.44C934.091 667.693 933.931 667.12 933.611 666.72C933.291 666.32 932.824 666.12 932.211 666.12C931.597 666.12 931.131 666.32 930.811 666.72C930.517 667.12 930.371 667.693 930.371 668.44V685H925.971ZM959.915 685.4C958.048 685.4 956.422 685.04 955.035 684.32C953.648 683.6 952.568 682.6 951.795 681.32C951.048 680.013 950.675 678.493 950.675 676.76V671.24C950.675 669.507 951.048 668 951.795 666.72C952.568 665.413 953.648 664.4 955.035 663.68C956.422 662.96 958.048 662.6 959.915 662.6C961.755 662.6 963.355 662.96 964.715 663.68C966.102 664.4 967.168 665.413 967.915 666.72C968.688 668 969.075 669.507 969.075 671.24V675.2H955.515V676.76C955.515 678.307 955.888 679.48 956.635 680.28C957.382 681.053 958.488 681.44 959.955 681.44C961.075 681.44 961.982 681.253 962.675 680.88C963.368 680.48 963.808 679.907 963.995 679.16H968.915C968.542 681.053 967.528 682.573 965.875 683.72C964.248 684.84 962.262 685.4 959.915 685.4ZM964.235 672.4V671.2C964.235 669.68 963.875 668.52 963.155 667.72C962.435 666.893 961.355 666.48 959.915 666.48C958.475 666.48 957.382 666.893 956.635 667.72C955.888 668.547 955.515 669.72 955.515 671.24V672.08L964.595 672L964.235 672.4ZM983.859 669.32C982.739 669.32 981.833 669.013 981.139 668.4C980.473 667.76 980.139 666.947 980.139 665.96C980.139 664.947 980.473 664.133 981.139 663.52C981.833 662.907 982.739 662.6 983.859 662.6C984.979 662.6 985.873 662.907 986.539 663.52C987.233 664.133 987.579 664.947 987.579 665.96C987.579 666.947 987.233 667.76 986.539 668.4C985.873 669.013 984.979 669.32 983.859 669.32ZM983.859 685.4C982.739 685.4 981.833 685.093 981.139 684.48C980.473 683.867 980.139 683.053 980.139 682.04C980.139 681.027 980.473 680.213 981.139 679.6C981.833 678.987 982.739 678.68 983.859 678.68C984.979 678.68 985.873 678.987 986.539 679.6C987.233 680.213 987.579 681.027 987.579 682.04C987.579 683.053 987.233 683.867 986.539 684.48C985.873 685.093 984.979 685.4 983.859 685.4ZM1031.91 685.4C1029.91 685.4 1028.17 685.067 1026.71 684.4C1025.24 683.733 1024.11 682.787 1023.31 681.56C1022.53 680.307 1022.13 678.84 1022.11 677.16H1027.11C1027.11 678.36 1027.53 679.307 1028.39 680C1029.27 680.667 1030.45 681 1031.95 681C1033.39 681 1034.51 680.667 1035.31 680C1036.13 679.333 1036.55 678.413 1036.55 677.24C1036.55 676.253 1036.25 675.4 1035.67 674.68C1035.11 673.933 1034.29 673.427 1033.23 673.16L1029.87 672.24C1027.57 671.653 1025.8 670.6 1024.55 669.08C1023.32 667.56 1022.71 665.72 1022.71 663.56C1022.71 661.907 1023.08 660.467 1023.83 659.24C1024.57 658.013 1025.63 657.067 1026.99 656.4C1028.37 655.733 1030 655.4 1031.87 655.4C1034.69 655.4 1036.93 656.133 1038.59 657.6C1040.24 659.04 1041.08 660.987 1041.11 663.44H1036.11C1036.11 662.293 1035.73 661.4 1034.99 660.76C1034.24 660.093 1033.19 659.76 1031.83 659.76C1030.52 659.76 1029.51 660.067 1028.79 660.68C1028.07 661.293 1027.71 662.16 1027.71 663.28C1027.71 664.293 1027.97 665.16 1028.51 665.88C1029.07 666.573 1029.87 667.067 1030.91 667.36L1034.39 668.32C1036.71 668.907 1038.48 669.96 1039.71 671.48C1040.93 672.973 1041.55 674.827 1041.55 677.04C1041.55 678.693 1041.15 680.16 1040.35 681.44C1039.55 682.693 1038.43 683.667 1036.99 684.36C1035.55 685.053 1033.85 685.4 1031.91 685.4ZM1055.81 685.36C1053.95 685.36 1052.32 685.013 1050.93 684.32C1049.57 683.6 1048.51 682.6 1047.73 681.32C1046.99 680.013 1046.61 678.48 1046.61 676.72V671.28C1046.61 669.52 1046.99 668 1047.73 666.72C1048.51 665.413 1049.57 664.413 1050.93 663.72C1052.32 663 1053.95 662.64 1055.81 662.64C1057.71 662.64 1059.33 663 1060.69 663.72C1062.05 664.413 1063.11 665.413 1063.85 666.72C1064.63 668 1065.01 669.507 1065.01 671.24V676.72C1065.01 678.48 1064.63 680.013 1063.85 681.32C1063.11 682.6 1062.05 683.6 1060.69 684.32C1059.33 685.013 1057.71 685.36 1055.81 685.36ZM1055.81 681C1057.15 681 1058.17 680.64 1058.89 679.92C1059.64 679.173 1060.01 678.107 1060.01 676.72V671.28C1060.01 669.867 1059.64 668.8 1058.89 668.08C1058.17 667.36 1057.15 667 1055.81 667C1054.51 667 1053.48 667.36 1052.73 668.08C1051.99 668.8 1051.61 669.867 1051.61 671.28V676.72C1051.61 678.107 1051.99 679.173 1052.73 679.92C1053.48 680.64 1054.51 681 1055.81 681ZM1079.8 685.4C1077 685.4 1074.8 684.627 1073.2 683.08C1071.6 681.507 1070.8 679.373 1070.8 676.68V663H1075.8V676.64C1075.8 678.053 1076.14 679.147 1076.84 679.92C1077.53 680.667 1078.52 681.04 1079.8 681.04C1081.05 681.04 1082.02 680.667 1082.72 679.92C1083.44 679.147 1083.8 678.053 1083.8 676.64V663H1088.8V676.68C1088.8 679.373 1087.98 681.507 1086.36 683.08C1084.73 684.627 1082.54 685.4 1079.8 685.4ZM1095.54 685V663H1100.26V667.2H1101.5L1100.02 669.76C1100.02 667.387 1100.55 665.6 1101.62 664.4C1102.69 663.2 1104.26 662.6 1106.34 662.6C1108.71 662.6 1110.58 663.333 1111.94 664.8C1113.3 666.267 1113.98 668.293 1113.98 670.88V672.48H1108.74V671.24C1108.74 669.827 1108.37 668.733 1107.62 667.96C1106.9 667.187 1105.9 666.8 1104.62 666.8C1103.31 666.8 1102.3 667.187 1101.58 667.96C1100.89 668.733 1100.54 669.827 1100.54 671.24V685H1095.54ZM1127.89 685.4C1126.02 685.4 1124.38 685.053 1122.97 684.36C1121.58 683.64 1120.5 682.64 1119.73 681.36C1118.95 680.053 1118.57 678.52 1118.57 676.76V671.24C1118.57 669.453 1118.95 667.92 1119.73 666.64C1120.5 665.36 1121.58 664.373 1122.97 663.68C1124.38 662.96 1126.02 662.6 1127.89 662.6C1130.66 662.6 1132.87 663.32 1134.53 664.76C1136.18 666.173 1137.05 668.107 1137.13 670.56H1132.13C1132.05 669.413 1131.63 668.533 1130.89 667.92C1130.17 667.28 1129.17 666.96 1127.89 666.96C1126.55 666.96 1125.5 667.333 1124.73 668.08C1123.95 668.8 1123.57 669.84 1123.57 671.2V676.76C1123.57 678.12 1123.95 679.173 1124.73 679.92C1125.5 680.667 1126.55 681.04 1127.89 681.04C1129.17 681.04 1130.17 680.733 1130.89 680.12C1131.63 679.48 1132.05 678.587 1132.13 677.44H1137.13C1137.05 679.893 1136.18 681.84 1134.53 683.28C1132.87 684.693 1130.66 685.4 1127.89 685.4ZM1151.79 685.4C1149.92 685.4 1148.3 685.04 1146.91 684.32C1145.52 683.6 1144.44 682.6 1143.67 681.32C1142.92 680.013 1142.55 678.493 1142.55 676.76V671.24C1142.55 669.507 1142.92 668 1143.67 666.72C1144.44 665.413 1145.52 664.4 1146.91 663.68C1148.3 662.96 1149.92 662.6 1151.79 662.6C1153.63 662.6 1155.23 662.96 1156.59 663.68C1157.98 664.4 1159.04 665.413 1159.79 666.72C1160.56 668 1160.95 669.507 1160.95 671.24V675.2H1147.39V676.76C1147.39 678.307 1147.76 679.48 1148.51 680.28C1149.26 681.053 1150.36 681.44 1151.83 681.44C1152.95 681.44 1153.86 681.253 1154.55 680.88C1155.24 680.48 1155.68 679.907 1155.87 679.16H1160.79C1160.42 681.053 1159.4 682.573 1157.75 683.72C1156.12 684.84 1154.14 685.4 1151.79 685.4ZM1156.11 672.4V671.2C1156.11 669.68 1155.75 668.52 1155.03 667.72C1154.31 666.893 1153.23 666.48 1151.79 666.48C1150.35 666.48 1149.26 666.893 1148.51 667.72C1147.76 668.547 1147.39 669.72 1147.39 671.24V672.08L1156.47 672L1156.11 672.4Z" fill="#EBDBB2" fill-opacity="0.75"/>
<path d="M758.24 745V715.8H764.16L767 725.08C767.293 726.013 767.533 726.867 767.72 727.64C767.907 728.413 768.027 728.973 768.08 729.32C768.133 728.973 768.253 728.413 768.44 727.64C768.627 726.867 768.853 726.013 769.12 725.08L771.84 715.8H777.76V745H773.08V735.92C773.08 734.587 773.12 733.133 773.2 731.56C773.28 729.987 773.373 728.413 773.48 726.84C773.587 725.267 773.707 723.773 773.84 722.36C774 720.947 774.133 719.707 774.24 718.64L770.32 732.44H765.76L761.72 718.64C761.853 719.653 761.987 720.853 762.12 722.24C762.253 723.6 762.373 725.067 762.48 726.64C762.613 728.187 762.72 729.76 762.8 731.36C762.88 732.96 762.92 734.48 762.92 735.92V745H758.24ZM789.544 745.4C787.278 745.4 785.491 744.8 784.184 743.6C782.878 742.4 782.224 740.787 782.224 738.76C782.224 736.6 782.944 734.933 784.384 733.76C785.824 732.587 787.864 732 790.504 732H795.984V730.12C795.984 729.053 795.638 728.227 794.944 727.64C794.251 727.027 793.304 726.72 792.104 726.72C791.011 726.72 790.104 726.96 789.384 727.44C788.664 727.92 788.238 728.573 788.104 729.4H783.224C783.464 727.32 784.398 725.667 786.024 724.44C787.651 723.213 789.731 722.6 792.264 722.6C794.958 722.6 797.078 723.28 798.624 724.64C800.198 725.973 800.984 727.787 800.984 730.08V745H796.144V741.16H795.344L796.144 740.08C796.144 741.707 795.544 743 794.344 743.96C793.144 744.92 791.544 745.4 789.544 745.4ZM791.184 741.64C792.598 741.64 793.744 741.28 794.624 740.56C795.531 739.84 795.984 738.907 795.984 737.76V735.08H790.584C789.571 735.08 788.758 735.373 788.144 735.96C787.531 736.547 787.224 737.32 787.224 738.28C787.224 739.32 787.571 740.147 788.264 740.76C788.984 741.347 789.958 741.64 791.184 741.64ZM815.129 745.36C813.449 745.36 811.982 745.093 810.729 744.56C809.475 744.027 808.489 743.293 807.769 742.36C807.075 741.4 806.702 740.28 806.649 739H811.649C811.702 739.693 812.035 740.253 812.649 740.68C813.289 741.107 814.115 741.32 815.129 741.32H816.889C818.115 741.32 819.035 741.08 819.649 740.6C820.262 740.12 820.569 739.467 820.569 738.64C820.569 737.867 820.289 737.267 819.729 736.84C819.195 736.387 818.355 736.093 817.209 735.96L814.489 735.56C811.982 735.213 810.142 734.547 808.969 733.56C807.795 732.573 807.209 731.093 807.209 729.12C807.209 727.067 807.902 725.48 809.289 724.36C810.675 723.213 812.715 722.64 815.409 722.64H816.929C819.382 722.64 821.342 723.187 822.809 724.28C824.275 725.373 825.062 726.84 825.169 728.68H820.169C820.089 728.093 819.755 727.613 819.169 727.24C818.609 726.867 817.862 726.68 816.929 726.68H815.409C814.262 726.68 813.422 726.893 812.889 727.32C812.382 727.72 812.129 728.32 812.129 729.12C812.129 729.867 812.355 730.427 812.809 730.8C813.262 731.147 813.995 731.4 815.009 731.56L817.849 731.96C820.462 732.333 822.382 733.04 823.609 734.08C824.862 735.093 825.489 736.6 825.489 738.6C825.489 740.733 824.755 742.4 823.289 743.6C821.849 744.773 819.715 745.36 816.889 745.36H815.129ZM839.113 745.36C837.433 745.36 835.966 745.093 834.713 744.56C833.46 744.027 832.473 743.293 831.753 742.36C831.06 741.4 830.686 740.28 830.633 739H835.633C835.686 739.693 836.02 740.253 836.633 740.68C837.273 741.107 838.1 741.32 839.113 741.32H840.873C842.1 741.32 843.02 741.08 843.633 740.6C844.246 740.12 844.553 739.467 844.553 738.64C844.553 737.867 844.273 737.267 843.713 736.84C843.18 736.387 842.34 736.093 841.193 735.96L838.473 735.56C835.966 735.213 834.126 734.547 832.953 733.56C831.78 732.573 831.193 731.093 831.193 729.12C831.193 727.067 831.886 725.48 833.273 724.36C834.66 723.213 836.7 722.64 839.393 722.64H840.913C843.366 722.64 845.326 723.187 846.793 724.28C848.26 725.373 849.046 726.84 849.153 728.68H844.153C844.073 728.093 843.74 727.613 843.153 727.24C842.593 726.867 841.846 726.68 840.913 726.68H839.393C838.246 726.68 837.406 726.893 836.873 727.32C836.366 727.72 836.113 728.32 836.113 729.12C836.113 729.867 836.34 730.427 836.793 730.8C837.246 731.147 837.98 731.4 838.993 731.56L841.833 731.96C844.446 732.333 846.366 733.04 847.593 734.08C848.846 735.093 849.473 736.6 849.473 738.6C849.473 740.733 848.74 742.4 847.273 743.6C845.833 744.773 843.7 745.36 840.873 745.36H839.113ZM863.938 729.32C862.818 729.32 861.911 729.013 861.218 728.4C860.551 727.76 860.218 726.947 860.218 725.96C860.218 724.947 860.551 724.133 861.218 723.52C861.911 722.907 862.818 722.6 863.938 722.6C865.058 722.6 865.951 722.907 866.618 723.52C867.311 724.133 867.658 724.947 867.658 725.96C867.658 726.947 867.311 727.76 866.618 728.4C865.951 729.013 865.058 729.32 863.938 729.32ZM863.938 745.4C862.818 745.4 861.911 745.093 861.218 744.48C860.551 743.867 860.218 743.053 860.218 742.04C860.218 741.027 860.551 740.213 861.218 739.6C861.911 738.987 862.818 738.68 863.938 738.68C865.058 738.68 865.951 738.987 866.618 739.6C867.311 740.213 867.658 741.027 867.658 742.04C867.658 743.053 867.311 743.867 866.618 744.48C865.951 745.093 865.058 745.4 863.938 745.4ZM911.906 745.4C910.013 745.4 908.373 745.04 906.986 744.32C905.6 743.6 904.52 742.587 903.746 741.28C903 739.973 902.626 738.44 902.626 736.68V724.12C902.626 722.36 903 720.827 903.746 719.52C904.52 718.213 905.6 717.2 906.986 716.48C908.373 715.76 910.013 715.4 911.906 715.4C913.826 715.4 915.466 715.76 916.826 716.48C918.213 717.2 919.28 718.213 920.026 719.52C920.8 720.827 921.186 722.36 921.186 724.12V736.68C921.186 738.44 920.8 739.973 920.026 741.28C919.28 742.587 918.213 743.6 916.826 744.32C915.44 745.04 913.8 745.4 911.906 745.4ZM911.906 741.08C913.293 741.08 914.4 740.68 915.226 739.88C916.053 739.08 916.466 738.013 916.466 736.68V724.12C916.466 722.787 916.053 721.72 915.226 720.92C914.4 720.12 913.293 719.72 911.906 719.72C910.52 719.72 909.413 720.12 908.586 720.92C907.76 721.72 907.346 722.787 907.346 724.12V736.68C907.346 738.013 907.76 739.08 908.586 739.88C909.413 740.68 910.52 741.08 911.906 741.08ZM911.906 733C911.133 733 910.493 732.747 909.986 732.24C909.506 731.733 909.266 731.08 909.266 730.28C909.266 729.48 909.506 728.84 909.986 728.36C910.466 727.88 911.106 727.64 911.906 727.64C912.706 727.64 913.346 727.88 913.826 728.36C914.306 728.84 914.546 729.48 914.546 730.28C914.546 731.08 914.306 731.733 913.826 732.24C913.346 732.747 912.706 733 911.906 733ZM935.891 745.4C934.744 745.4 933.824 745.067 933.131 744.4C932.464 743.733 932.131 742.827 932.131 741.68C932.131 740.533 932.464 739.627 933.131 738.96C933.824 738.267 934.744 737.92 935.891 737.92C937.037 737.92 937.944 738.267 938.611 738.96C939.304 739.627 939.651 740.533 939.651 741.68C939.651 742.827 939.304 743.733 938.611 744.4C937.944 745.067 937.037 745.4 935.891 745.4ZM954.075 745L964.635 720.44H955.275V724.68H950.275V715.8H969.635V720.52L959.435 745H954.075ZM983.859 745.4C981.913 745.4 980.193 745 978.699 744.2C977.233 743.373 976.086 742.227 975.259 740.76C974.459 739.267 974.059 737.547 974.059 735.6C974.059 734.213 974.286 732.76 974.739 731.24C975.219 729.72 975.873 728.293 976.699 726.96L983.579 715.8H989.139L980.499 729.4L980.739 729.56C981.273 728.733 981.993 728.107 982.899 727.68C983.806 727.253 984.819 727.04 985.939 727.04C987.513 727.04 988.873 727.413 990.019 728.16C991.166 728.907 992.059 729.947 992.699 731.28C993.339 732.613 993.659 734.173 993.659 735.96C993.659 737.853 993.246 739.507 992.419 740.92C991.619 742.333 990.486 743.44 989.019 744.24C987.579 745.013 985.859 745.4 983.859 745.4ZM983.859 741.16C985.326 741.16 986.513 740.693 987.419 739.76C988.326 738.8 988.779 737.56 988.779 736.04C988.779 734.467 988.326 733.213 987.419 732.28C986.513 731.32 985.326 730.84 983.859 730.84C982.393 730.84 981.206 731.32 980.299 732.28C979.393 733.213 978.939 734.467 978.939 736.04C978.939 737.56 979.393 738.8 980.299 739.76C981.206 740.693 982.393 741.16 983.859 741.16ZM1031.91 745.4C1029.91 745.4 1028.17 745.067 1026.71 744.4C1025.24 743.733 1024.11 742.787 1023.31 741.56C1022.53 740.307 1022.13 738.84 1022.11 737.16H1027.11C1027.11 738.36 1027.53 739.307 1028.39 740C1029.27 740.667 1030.45 741 1031.95 741C1033.39 741 1034.51 740.667 1035.31 740C1036.13 739.333 1036.55 738.413 1036.55 737.24C1036.55 736.253 1036.25 735.4 1035.67 734.68C1035.11 733.933 1034.29 733.427 1033.23 733.16L1029.87 732.24C1027.57 731.653 1025.8 730.6 1024.55 729.08C1023.32 727.56 1022.71 725.72 1022.71 723.56C1022.71 721.907 1023.08 720.467 1023.83 719.24C1024.57 718.013 1025.63 717.067 1026.99 716.4C1028.37 715.733 1030 715.4 1031.87 715.4C1034.69 715.4 1036.93 716.133 1038.59 717.6C1040.24 719.04 1041.08 720.987 1041.11 723.44H1036.11C1036.11 722.293 1035.73 721.4 1034.99 720.76C1034.24 720.093 1033.19 719.76 1031.83 719.76C1030.52 719.76 1029.51 720.067 1028.79 720.68C1028.07 721.293 1027.71 722.16 1027.71 723.28C1027.71 724.293 1027.97 725.16 1028.51 725.88C1029.07 726.573 1029.87 727.067 1030.91 727.36L1034.39 728.32C1036.71 728.907 1038.48 729.96 1039.71 731.48C1040.93 732.973 1041.55 734.827 1041.55 737.04C1041.55 738.693 1041.15 740.16 1040.35 741.44C1039.55 742.693 1038.43 743.667 1036.99 744.36C1035.55 745.053 1033.85 745.4 1031.91 745.4ZM1055.81 745.36C1053.95 745.36 1052.32 745.013 1050.93 744.32C1049.57 743.6 1048.51 742.6 1047.73 741.32C1046.99 740.013 1046.61 738.48 1046.61 736.72V731.28C1046.61 729.52 1046.99 728 1047.73 726.72C1048.51 725.413 1049.57 724.413 1050.93 723.72C1052.32 723 1053.95 722.64 1055.81 722.64C1057.71 722.64 1059.33 723 1060.69 723.72C1062.05 724.413 1063.11 725.413 1063.85 726.72C1064.63 728 1065.01 729.507 1065.01 731.24V736.72C1065.01 738.48 1064.63 740.013 1063.85 741.32C1063.11 742.6 1062.05 743.6 1060.69 744.32C1059.33 745.013 1057.71 745.36 1055.81 745.36ZM1055.81 741C1057.15 741 1058.17 740.64 1058.89 739.92C1059.64 739.173 1060.01 738.107 1060.01 736.72V731.28C1060.01 729.867 1059.64 728.8 1058.89 728.08C1058.17 727.36 1057.15 727 1055.81 727C1054.51 727 1053.48 727.36 1052.73 728.08C1051.99 728.8 1051.61 729.867 1051.61 731.28V736.72C1051.61 738.107 1051.99 739.173 1052.73 739.92C1053.48 740.64 1054.51 741 1055.81 741ZM1083.16 745C1081.72 745 1080.45 744.707 1079.36 744.12C1078.29 743.533 1077.45 742.707 1076.84 741.64C1076.22 740.547 1075.92 739.293 1075.92 737.88V720.32H1068.88V715.8H1080.92V737.88C1080.92 738.68 1081.14 739.32 1081.6 739.8C1082.08 740.253 1082.72 740.48 1083.52 740.48H1090.16V745H1083.16ZM1107.14 745C1105.7 745 1104.43 744.707 1103.34 744.12C1102.27 743.533 1101.43 742.707 1100.82 741.64C1100.21 740.547 1099.9 739.293 1099.9 737.88V720.32H1092.86V715.8H1104.9V737.88C1104.9 738.68 1105.13 739.32 1105.58 739.8C1106.06 740.253 1106.7 740.48 1107.5 740.48H1114.14V745H1107.14ZM1125.33 745.4C1123.06 745.4 1121.27 744.8 1119.97 743.6C1118.66 742.4 1118.01 740.787 1118.01 738.76C1118.01 736.6 1118.73 734.933 1120.17 733.76C1121.61 732.587 1123.65 732 1126.29 732H1131.77V730.12C1131.77 729.053 1131.42 728.227 1130.73 727.64C1130.03 727.027 1129.09 726.72 1127.89 726.72C1126.79 726.72 1125.89 726.96 1125.17 727.44C1124.45 727.92 1124.02 728.573 1123.89 729.4H1119.01C1119.25 727.32 1120.18 725.667 1121.81 724.44C1123.43 723.213 1125.51 722.6 1128.05 722.6C1130.74 722.6 1132.86 723.28 1134.41 724.64C1135.98 725.973 1136.77 727.787 1136.77 730.08V745H1131.93V741.16H1131.13L1131.93 740.08C1131.93 741.707 1131.33 743 1130.13 743.96C1128.93 744.92 1127.33 745.4 1125.33 745.4ZM1126.97 741.64C1128.38 741.64 1129.53 741.28 1130.41 740.56C1131.31 739.84 1131.77 738.907 1131.77 737.76V735.08H1126.37C1125.35 735.08 1124.54 735.373 1123.93 735.96C1123.31 736.547 1123.01 737.32 1123.01 738.28C1123.01 739.32 1123.35 740.147 1124.05 740.76C1124.77 741.347 1125.74 741.64 1126.97 741.64ZM1143.51 745V723H1148.23V727.2H1149.47L1147.99 729.76C1147.99 727.387 1148.52 725.6 1149.59 724.4C1150.66 723.2 1152.23 722.6 1154.31 722.6C1156.68 722.6 1158.55 723.333 1159.91 724.8C1161.27 726.267 1161.95 728.293 1161.95 730.88V732.48H1156.71V731.24C1156.71 729.827 1156.34 728.733 1155.59 727.96C1154.87 727.187 1153.87 726.8 1152.59 726.8C1151.28 726.8 1150.27 727.187 1149.55 727.96C1148.86 728.733 1148.51 729.827 1148.51 731.24V745H1143.51Z" fill="#EBDBB2" fill-opacity="0.75"/>
<path d="M634.365 562.304C645.795 562.304 655.061 553.043 655.061 541.618C655.061 530.193 645.795 520.932 634.365 520.932C622.935 520.932 613.669 530.193 613.669 541.618C613.669 553.043 622.935 562.304 634.365 562.304Z" fill="url(#paint9_linear_254_457)"/>
<path fill-rule="evenodd" clip-rule="evenodd" d="M613.738 539.924C613.724 540.095 613.712 540.266 613.703 540.439C607.382 541.457 602.689 543.002 602.689 544.935C602.689 548.754 617.756 550.096 634.003 549.965C650.249 550.096 665.657 548.77 665.657 544.952C665.657 543.075 661.154 541.561 655.033 540.539C655.024 540.369 655.013 540.199 655 540.031C661.412 541.156 666.173 542.847 666.173 544.952C666.173 549.152 650.513 550.61 634 550.466C617.487 550.61 602.173 549.134 602.173 544.933C602.173 542.766 607.128 541.043 613.738 539.924ZM654.938 539.351C662.856 540.561 669 542.518 669 545.009C669 549.572 651.964 551.156 634 551C616.036 551.156 599.376 549.552 599.376 544.989C599.376 542.437 605.709 540.452 613.803 539.254C613.891 538.482 614.022 537.722 614.192 536.977C603.328 538.725 594.216 541.798 594.216 545.083C594.216 550.334 613.359 553.68 634 553.5C654.641 553.68 677 550.26 677 545.009C677 541.695 666.453 538.628 654.522 536.91C654.708 537.707 654.848 538.521 654.938 539.351ZM614.985 534.344C597.939 536.069 581.855 540.151 581.855 544.765C581.855 551.129 607.095 555.718 634.003 555.5C660.911 555.718 681.645 550.866 681.645 544.501C681.645 540.046 668.85 536.215 653.793 534.473C653.67 534.138 653.538 533.806 653.397 533.479C669.039 535.315 682.5 539.523 682.5 544.501C682.5 551.502 661.347 556.575 633.998 556.336C606.649 556.575 581 551.763 581 544.762C581 539.617 597.801 535.155 615.39 533.348C615.246 533.676 615.111 534.008 614.985 534.344Z" fill="url(#paint10_diamond_254_457)"/>
<path d="M634 555C657.866 555.205 680.5 550.5 680.5 544.501C680.5 540.451 668.011 536.889 654.024 535.133C654.215 535.714 654.382 536.307 654.522 536.91C666.453 538.628 677 541.695 677 545.009C677 550.26 654.641 553.68 634 553.5C613.359 553.68 594.216 550.334 594.216 545.083C594.216 541.798 603.328 538.725 614.192 536.977C614.343 536.318 614.526 535.671 614.739 535.038C600.446 536.756 587.5 540.369 587.5 544.493C587.5 550.492 610.134 555.205 634 555Z" fill="url(#paint11_diamond_254_457)"/>
</g>
<defs>
<linearGradient id="paint0_linear_254_457" x1="992.758" y1="-201.274" x2="977.785" y2="913.327" gradientUnits="userSpaceOnUse">
<stop stop-color="#83A598"/>
<stop offset="1" stop-color="#282828"/>
</linearGradient>
<linearGradient id="paint1_linear_254_457" x1="405" y1="547.896" x2="375.017" y2="547.896" gradientUnits="userSpaceOnUse">
<stop stop-color="#83A598"/>
<stop offset="1" stop-color="#282828"/>
</linearGradient>
<linearGradient id="paint2_linear_254_457" x1="429.879" y1="546.621" x2="378.207" y2="546.621" gradientUnits="userSpaceOnUse">
<stop stop-color="#83A598"/>
<stop offset="1" stop-color="#282828"/>
</linearGradient>
<linearGradient id="paint3_linear_254_457" x1="860" y1="547.5" x2="831" y2="547.5" gradientUnits="userSpaceOnUse">
<stop stop-color="#B16286"/>
<stop offset="1" stop-color="#282828"/>
</linearGradient>
<linearGradient id="paint4_linear_254_457" x1="860.008" y1="542.492" x2="831.928" y2="542.492" gradientUnits="userSpaceOnUse">
<stop stop-color="#FABD2F"/>
<stop offset="1" stop-color="#282828"/>
</linearGradient>
<linearGradient id="paint5_linear_254_457" x1="859.995" y1="547.999" x2="830.983" y2="547.999" gradientUnits="userSpaceOnUse">
<stop stop-color="#B8BB26"/>
<stop offset="1" stop-color="#282828"/>
</linearGradient>
<linearGradient id="paint6_linear_254_457" x1="858.652" y1="554.189" x2="831.1" y2="554.189" gradientUnits="userSpaceOnUse">
<stop stop-color="#83A598"/>
<stop offset="1" stop-color="#282828"/>
</linearGradient>
<linearGradient id="paint7_linear_254_457" x1="854.586" y1="558.688" x2="832.764" y2="558.688" gradientUnits="userSpaceOnUse">
<stop stop-color="#75B478"/>
<stop offset="1" stop-color="#282828"/>
</linearGradient>
<linearGradient id="paint8_linear_254_457" x1="858.821" y1="537.382" x2="835.414" y2="537.382" gradientUnits="userSpaceOnUse">
<stop stop-color="#D3869B"/>
<stop offset="1" stop-color="#282828"/>
</linearGradient>
<linearGradient id="paint9_linear_254_457" x1="655.061" y1="541.618" x2="613.669" y2="541.6" gradientUnits="userSpaceOnUse">
<stop stop-color="#AB3527"/>
<stop offset="0.600631" stop-color="#282828"/>
</linearGradient>
<radialGradient id="paint10_diamond_254_457" cx="0" cy="0" r="1" gradientUnits="userSpaceOnUse" gradientTransform="translate(657.234 541.833) rotate(18.5056) scale(45.9286 47.4048)">
<stop stop-color="#6A5D54"/>
<stop offset="1" stop-color="#282828"/>
</radialGradient>
<radialGradient id="paint11_diamond_254_457" cx="0" cy="0" r="1" gradientUnits="userSpaceOnUse" gradientTransform="translate(657.234 541.833) rotate(18.5056) scale(45.9286 47.4048)">
<stop stop-color="#534C48"/>
<stop offset="1" stop-color="#282828"/>
</radialGradient>
<clipPath id="clip0_254_457">
<rect width="1920" height="1080" fill="white"/>
</clipPath>
</defs>
</svg>
