<svg width="1920" height="1080" viewBox="0 0 1920 1080" fill="none" xmlns="http://www.w3.org/2000/svg">
<g clip-path="url(#clip0_315_169)">
<rect width="1920" height="1080" fill="white"/>
<rect width="1920" height="1080" fill="#282828"/>
<path d="M33.08 1038V1008.8H38.08V1020.52H45.92V1008.8H50.92V1038H45.92V1025.16H38.08V1038H33.08ZM72.3844 1038.36C70.5177 1038.36 68.891 1038.01 67.5044 1037.32C66.1444 1036.6 65.0777 1035.6 64.3044 1034.32C63.5577 1033.01 63.1844 1031.48 63.1844 1029.72V1024.28C63.1844 1022.52 63.5577 1021 64.3044 1019.72C65.0777 1018.41 66.1444 1017.41 67.5044 1016.72C68.891 1016 70.5177 1015.64 72.3844 1015.64C74.2777 1015.64 75.9044 1016 77.2644 1016.72C78.6244 1017.41 79.6777 1018.41 80.4244 1019.72C81.1977 1021 81.5844 1022.51 81.5844 1024.24V1029.72C81.5844 1031.48 81.1977 1033.01 80.4244 1034.32C79.6777 1035.6 78.6244 1036.6 77.2644 1037.32C75.9044 1038.01 74.2777 1038.36 72.3844 1038.36ZM72.3844 1034C73.7177 1034 74.7444 1033.64 75.4644 1032.92C76.211 1032.17 76.5844 1031.11 76.5844 1029.72V1024.28C76.5844 1022.87 76.211 1021.8 75.4644 1021.08C74.7444 1020.36 73.7177 1020 72.3844 1020C71.0777 1020 70.051 1020.36 69.3044 1021.08C68.5577 1021.8 68.1844 1022.87 68.1844 1024.28V1029.72C68.1844 1031.11 68.5577 1032.17 69.3044 1032.92C70.051 1033.64 71.0777 1034 72.3844 1034ZM101.929 1038.36C100.249 1038.36 98.7821 1038.09 97.5287 1037.56C96.2754 1037.03 95.2887 1036.29 94.5687 1035.36C93.8754 1034.4 93.5021 1033.28 93.4487 1032H98.4487C98.5021 1032.69 98.8354 1033.25 99.4487 1033.68C100.089 1034.11 100.915 1034.32 101.929 1034.32H103.689C104.915 1034.32 105.835 1034.08 106.449 1033.6C107.062 1033.12 107.369 1032.47 107.369 1031.64C107.369 1030.87 107.089 1030.27 106.529 1029.84C105.995 1029.39 105.155 1029.09 104.009 1028.96L101.289 1028.56C98.7821 1028.21 96.9421 1027.55 95.7687 1026.56C94.5954 1025.57 94.0087 1024.09 94.0087 1022.12C94.0087 1020.07 94.7021 1018.48 96.0887 1017.36C97.4754 1016.21 99.5154 1015.64 102.209 1015.64H103.729C106.182 1015.64 108.142 1016.19 109.609 1017.28C111.075 1018.37 111.862 1019.84 111.969 1021.68H106.969C106.889 1021.09 106.555 1020.61 105.969 1020.24C105.409 1019.87 104.662 1019.68 103.729 1019.68H102.209C101.062 1019.68 100.222 1019.89 99.6887 1020.32C99.1821 1020.72 98.9287 1021.32 98.9287 1022.12C98.9287 1022.87 99.1554 1023.43 99.6087 1023.8C100.062 1024.15 100.795 1024.4 101.809 1024.56L104.649 1024.96C107.262 1025.33 109.182 1026.04 110.409 1027.08C111.662 1028.09 112.289 1029.6 112.289 1031.6C112.289 1033.73 111.555 1035.4 110.089 1036.6C108.649 1037.77 106.515 1038.36 103.689 1038.36H101.929ZM135.553 1038C133.446 1038 131.793 1037.41 130.593 1036.24C129.42 1035.07 128.833 1033.45 128.833 1031.4V1020.52H122.873V1016H128.833V1009.8H133.873V1016H142.313V1020.52H133.873V1031.4C133.873 1032.79 134.553 1033.48 135.913 1033.48H141.913V1038H135.553ZM193.882 1019.4L199.082 1006.96H203.442L200.242 1019.4H193.882ZM184.002 1019.4L189.202 1006.96H193.562L190.362 1019.4H184.002ZM224.306 1038.4C221.453 1038.4 219.213 1037.63 217.586 1036.08C215.986 1034.51 215.186 1032.37 215.186 1029.68V1008.8H220.226V1029.64C220.226 1031.03 220.573 1032.11 221.266 1032.88C221.96 1033.65 222.973 1034.04 224.306 1034.04C225.613 1034.04 226.613 1033.65 227.306 1032.88C228.026 1032.11 228.386 1031.03 228.386 1029.64V1008.8H233.426V1029.68C233.426 1032.37 232.626 1034.51 231.026 1036.08C229.426 1037.63 227.186 1038.4 224.306 1038.4ZM244.771 1038V1016H248.851V1018.96H249.691L249.011 1019.68C249.011 1018.45 249.357 1017.47 250.051 1016.72C250.744 1015.97 251.637 1015.6 252.731 1015.6C253.904 1015.6 254.811 1016.08 255.451 1017.04C256.117 1018 256.451 1019.29 256.451 1020.92L255.571 1018.96H256.931L256.411 1019.68C256.411 1018.45 256.757 1017.47 257.451 1016.72C258.144 1015.97 259.064 1015.6 260.211 1015.6C261.571 1015.6 262.651 1016.11 263.451 1017.12C264.251 1018.13 264.651 1019.51 264.651 1021.24V1038H260.251V1021.44C260.251 1020.72 260.091 1020.16 259.771 1019.76C259.451 1019.33 258.984 1019.12 258.371 1019.12C257.784 1019.12 257.317 1019.32 256.971 1019.72C256.651 1020.12 256.491 1020.69 256.491 1021.44V1038H252.891V1021.44C252.891 1020.69 252.731 1020.12 252.411 1019.72C252.091 1019.32 251.624 1019.12 251.011 1019.12C250.397 1019.12 249.931 1019.32 249.611 1019.72C249.317 1020.12 249.171 1020.69 249.171 1021.44V1038H244.771ZM286.955 1038.4C285.142 1038.4 283.702 1037.89 282.635 1036.88C281.568 1035.84 281.035 1034.43 281.035 1032.64L282.155 1033.8H281.035V1038H276.155V1008.8H281.155V1014.96L280.995 1020.2H282.155L281.035 1021.36C281.035 1019.57 281.568 1018.17 282.635 1017.16C283.702 1016.12 285.142 1015.6 286.955 1015.6C289.168 1015.6 290.942 1016.36 292.275 1017.88C293.608 1019.4 294.275 1021.45 294.275 1024.04V1030C294.275 1032.56 293.608 1034.6 292.275 1036.12C290.942 1037.64 289.168 1038.4 286.955 1038.4ZM285.195 1034.08C286.475 1034.08 287.475 1033.71 288.195 1032.96C288.915 1032.21 289.275 1031.15 289.275 1029.76V1024.24C289.275 1022.85 288.915 1021.79 288.195 1021.04C287.475 1020.29 286.475 1019.92 285.195 1019.92C283.942 1019.92 282.955 1020.31 282.235 1021.08C281.515 1021.83 281.155 1022.88 281.155 1024.24V1029.76C281.155 1031.12 281.515 1032.19 282.235 1032.96C282.955 1033.71 283.942 1034.08 285.195 1034.08ZM307.219 1038V1016H311.939V1020.2H313.179L311.699 1022.76C311.699 1020.39 312.233 1018.6 313.299 1017.4C314.366 1016.2 315.939 1015.6 318.019 1015.6C320.393 1015.6 322.259 1016.33 323.619 1017.8C324.979 1019.27 325.659 1021.29 325.659 1023.88V1025.48H320.419V1024.24C320.419 1022.83 320.046 1021.73 319.299 1020.96C318.579 1020.19 317.579 1019.8 316.299 1019.8C314.993 1019.8 313.979 1020.19 313.259 1020.96C312.566 1021.73 312.219 1022.83 312.219 1024.24V1038H307.219ZM336.884 1038V1033.44H344.564V1020.52H337.884V1016H349.364V1033.44H356.164V1038H336.884ZM346.564 1012.32C345.55 1012.32 344.75 1012.07 344.164 1011.56C343.577 1011.03 343.284 1010.32 343.284 1009.44C343.284 1008.56 343.577 1007.87 344.164 1007.36C344.75 1006.83 345.55 1006.56 346.564 1006.56C347.577 1006.56 348.377 1006.83 348.964 1007.36C349.55 1007.87 349.844 1008.56 349.844 1009.44C349.844 1010.32 349.55 1011.03 348.964 1011.56C348.377 1012.07 347.577 1012.32 346.564 1012.32ZM376.268 1038.4C374.401 1038.4 372.775 1038.04 371.388 1037.32C370.001 1036.6 368.921 1035.6 368.148 1034.32C367.401 1033.01 367.028 1031.49 367.028 1029.76V1024.24C367.028 1022.51 367.401 1021 368.148 1019.72C368.921 1018.41 370.001 1017.4 371.388 1016.68C372.775 1015.96 374.401 1015.6 376.268 1015.6C378.108 1015.6 379.708 1015.96 381.068 1016.68C382.455 1017.4 383.521 1018.41 384.268 1019.72C385.041 1021 385.428 1022.51 385.428 1024.24V1028.2H371.868V1029.76C371.868 1031.31 372.241 1032.48 372.988 1033.28C373.735 1034.05 374.841 1034.44 376.308 1034.44C377.428 1034.44 378.335 1034.25 379.028 1033.88C379.721 1033.48 380.161 1032.91 380.348 1032.16H385.268C384.895 1034.05 383.881 1035.57 382.228 1036.72C380.601 1037.84 378.615 1038.4 376.268 1038.4ZM380.588 1025.4V1024.2C380.588 1022.68 380.228 1021.52 379.508 1020.72C378.788 1019.89 377.708 1019.48 376.268 1019.48C374.828 1019.48 373.735 1019.89 372.988 1020.72C372.241 1021.55 371.868 1022.72 371.868 1024.24V1025.08L380.948 1025L380.588 1025.4ZM409.972 1038C408.532 1038 407.266 1037.71 406.172 1037.12C405.106 1036.53 404.266 1035.71 403.652 1034.64C403.039 1033.55 402.732 1032.29 402.732 1030.88V1013.32H395.692V1008.8H407.732V1030.88C407.732 1031.68 407.959 1032.32 408.412 1032.8C408.892 1033.25 409.532 1033.48 410.332 1033.48H416.972V1038H409.972ZM437.357 1019.4L440.557 1006.96H446.917L441.717 1019.4H437.357ZM427.477 1019.4L430.677 1006.96H437.037L431.837 1019.4H427.477Z" fill="#EBDBB2"/>
<path d="M32.8795 987.998V958.798H38.9995L47.1195 982.398C47.0395 981.545 46.9462 980.545 46.8395 979.398C46.7595 978.225 46.6928 977.038 46.6395 975.838C46.5862 974.611 46.5595 973.545 46.5595 972.638V958.798H51.1195V987.998H44.9995L36.9595 964.398C37.0128 965.171 37.0795 966.105 37.1595 967.198C37.2395 968.291 37.3062 969.411 37.3595 970.558C37.4128 971.705 37.4395 972.758 37.4395 973.718V987.998H32.8795ZM63.4239 987.998V983.438H71.1039V970.518H64.4239V965.998H75.9039V983.438H82.7039V987.998H63.4239ZM73.1039 962.318C72.0906 962.318 71.2906 962.065 70.7039 961.558C70.1172 961.025 69.8239 960.318 69.8239 959.438C69.8239 958.558 70.1172 957.865 70.7039 957.358C71.2906 956.825 72.0906 956.558 73.1039 956.558C74.1172 956.558 74.9172 956.825 75.5039 957.358C76.0906 957.865 76.3839 958.558 76.3839 959.438C76.3839 960.318 76.0906 961.025 75.5039 961.558C74.9172 962.065 74.1172 962.318 73.1039 962.318ZM92.2083 987.998L99.8883 976.638L92.7283 965.998H98.3683L101.768 971.398C101.982 971.718 102.168 972.078 102.328 972.478C102.515 972.878 102.662 973.198 102.768 973.438C102.875 973.198 103.022 972.878 103.208 972.478C103.395 972.078 103.582 971.718 103.768 971.398L107.208 965.998H112.848L105.688 976.638L113.328 987.998H107.648L103.848 981.958C103.635 981.611 103.435 981.238 103.248 980.838C103.062 980.438 102.902 980.118 102.768 979.878C102.662 980.118 102.515 980.438 102.328 980.838C102.142 981.238 101.942 981.611 101.728 981.958L97.8483 987.998H92.2083ZM133.153 988.398C131.286 988.398 129.659 988.051 128.273 987.358C126.913 986.638 125.859 985.638 125.113 984.358C124.393 983.051 124.033 981.518 124.033 979.758V967.038C124.033 965.278 124.393 963.758 125.113 962.478C125.859 961.171 126.913 960.171 128.273 959.478C129.659 958.758 131.286 958.398 133.153 958.398C135.046 958.398 136.673 958.758 138.033 959.478C139.393 960.171 140.433 961.171 141.153 962.478C141.899 963.758 142.273 965.265 142.273 966.998V979.758C142.273 981.518 141.899 983.051 141.153 984.358C140.433 985.638 139.393 986.638 138.033 987.358C136.673 988.051 135.046 988.398 133.153 988.398ZM133.153 983.998C134.513 983.998 135.539 983.638 136.233 982.918C136.926 982.171 137.273 981.118 137.273 979.758V967.038C137.273 965.651 136.926 964.598 136.233 963.878C135.539 963.158 134.513 962.798 133.153 962.798C131.793 962.798 130.766 963.158 130.073 963.878C129.379 964.598 129.033 965.651 129.033 967.038V979.758C129.033 981.118 129.379 982.171 130.073 982.918C130.793 983.638 131.819 983.998 133.153 983.998ZM163.617 988.398C161.617 988.398 159.884 988.065 158.417 987.398C156.95 986.731 155.817 985.785 155.017 984.558C154.244 983.305 153.844 981.838 153.817 980.158H158.817C158.817 981.358 159.244 982.305 160.097 982.998C160.977 983.665 162.164 983.998 163.657 983.998C165.097 983.998 166.217 983.665 167.017 982.998C167.844 982.331 168.257 981.411 168.257 980.238C168.257 979.251 167.964 978.398 167.377 977.678C166.817 976.931 166.004 976.425 164.937 976.158L161.577 975.238C159.284 974.651 157.51 973.598 156.257 972.078C155.03 970.558 154.417 968.718 154.417 966.558C154.417 964.905 154.79 963.465 155.537 962.238C156.284 961.011 157.337 960.065 158.697 959.398C160.084 958.731 161.71 958.398 163.577 958.398C166.404 958.398 168.644 959.131 170.297 960.598C171.95 962.038 172.79 963.985 172.817 966.438H167.817C167.817 965.291 167.444 964.398 166.697 963.758C165.95 963.091 164.897 962.758 163.537 962.758C162.23 962.758 161.217 963.065 160.497 963.678C159.777 964.291 159.417 965.158 159.417 966.278C159.417 967.291 159.684 968.158 160.217 968.878C160.777 969.571 161.577 970.065 162.617 970.358L166.097 971.318C168.417 971.905 170.19 972.958 171.417 974.478C172.644 975.971 173.257 977.825 173.257 980.038C173.257 981.691 172.857 983.158 172.057 984.438C171.257 985.691 170.137 986.665 168.697 987.358C167.257 988.051 165.564 988.398 163.617 988.398ZM215.466 987.998V983.158L224.586 973.998C225.866 972.691 226.812 971.518 227.426 970.478C228.039 969.411 228.346 968.318 228.346 967.198C228.346 965.838 227.972 964.785 227.226 964.038C226.479 963.265 225.466 962.878 224.186 962.878C222.772 962.878 221.666 963.291 220.866 964.118C220.066 964.918 219.666 966.038 219.666 967.478H214.666C214.692 965.611 215.092 964.011 215.866 962.678C216.666 961.318 217.786 960.265 219.226 959.518C220.666 958.771 222.346 958.398 224.266 958.398C226.106 958.398 227.706 958.745 229.066 959.438C230.426 960.131 231.479 961.105 232.226 962.358C232.972 963.611 233.346 965.105 233.346 966.838C233.346 968.625 232.879 970.371 231.946 972.078C231.039 973.758 229.572 975.571 227.546 977.518L221.466 983.478H233.706V987.998H215.466ZM258.29 987.998V982.198H245.29V974.958L256.53 958.798H262.13L250.09 976.278V977.798H258.29V971.198H263.29V987.998H258.29ZM285.075 988.398C283.928 988.398 283.008 988.065 282.315 987.398C281.648 986.731 281.315 985.825 281.315 984.678C281.315 983.531 281.648 982.625 282.315 981.958C283.008 981.265 283.928 980.918 285.075 980.918C286.221 980.918 287.128 981.265 287.795 981.958C288.488 982.625 288.835 983.531 288.835 984.678C288.835 985.825 288.488 986.731 287.795 987.398C287.128 988.065 286.221 988.398 285.075 988.398ZM315.459 988.398C313.566 988.398 311.926 988.038 310.539 987.318C309.152 986.598 308.072 985.585 307.299 984.278C306.552 982.971 306.179 981.438 306.179 979.678V967.118C306.179 965.358 306.552 963.825 307.299 962.518C308.072 961.211 309.152 960.198 310.539 959.478C311.926 958.758 313.566 958.398 315.459 958.398C317.379 958.398 319.019 958.758 320.379 959.478C321.766 960.198 322.832 961.211 323.579 962.518C324.352 963.825 324.739 965.358 324.739 967.118V979.678C324.739 981.438 324.352 982.971 323.579 984.278C322.832 985.585 321.766 986.598 320.379 987.318C318.992 988.038 317.352 988.398 315.459 988.398ZM315.459 984.078C316.846 984.078 317.952 983.678 318.779 982.878C319.606 982.078 320.019 981.011 320.019 979.678V967.118C320.019 965.785 319.606 964.718 318.779 963.918C317.952 963.118 316.846 962.718 315.459 962.718C314.072 962.718 312.966 963.118 312.139 963.918C311.312 964.718 310.899 965.785 310.899 967.118V979.678C310.899 981.011 311.312 982.078 312.139 982.878C312.966 983.678 314.072 984.078 315.459 984.078ZM315.459 975.998C314.686 975.998 314.046 975.745 313.539 975.238C313.059 974.731 312.819 974.078 312.819 973.278C312.819 972.478 313.059 971.838 313.539 971.358C314.019 970.878 314.659 970.638 315.459 970.638C316.259 970.638 316.899 970.878 317.379 971.358C317.859 971.838 318.099 972.478 318.099 973.278C318.099 974.078 317.859 974.731 317.379 975.238C316.899 975.745 316.259 975.998 315.459 975.998ZM345.803 988.398C343.11 988.398 340.95 987.731 339.323 986.398C337.697 985.038 336.803 983.198 336.643 980.878H341.643C341.75 981.891 342.15 982.678 342.843 983.238C343.563 983.771 344.55 984.038 345.803 984.038C347.19 984.038 348.243 983.678 348.963 982.958C349.683 982.211 350.043 981.185 350.043 979.878V977.038C350.043 975.705 349.683 974.691 348.963 973.998C348.243 973.278 347.19 972.918 345.803 972.918C344.95 972.918 344.217 973.091 343.603 973.438C342.99 973.785 342.523 974.265 342.203 974.878H337.323L337.523 958.798H353.963V963.318H342.243L342.163 971.798H343.323L342.123 972.798C342.123 971.571 342.603 970.611 343.563 969.918C344.55 969.198 345.87 968.838 347.523 968.838C349.897 968.811 351.737 969.531 353.043 970.998C354.377 972.438 355.043 974.451 355.043 977.038V979.878C355.043 982.518 354.217 984.598 352.563 986.118C350.937 987.638 348.683 988.398 345.803 988.398Z" fill="#EBDBB2"/>
<path d="M662 540C662 704.581 795.419 838 960 838C1043.87 838 1119.65 803.352 1173.8 747.588C1215.53 704.617 1244.42 649.107 1254.27 587.25C1256.73 571.861 1258 556.079 1258 540C1258 495.454 1248.23 453.191 1230.71 415.238C1183.49 312.97 1080.03 242 960 242C795.419 242 662 375.419 662 540Z" fill="url(#paint0_linear_315_169)"/>
<path d="M662 540C662 704.581 795.419 838 960 838C1043.87 838 1119.65 803.352 1173.8 747.588C1215.53 704.617 1244.42 649.107 1254.27 587.25C1256.73 571.861 1258 556.079 1258 540C1258 495.454 1248.23 453.191 1230.71 415.238C1183.49 312.97 1080.03 242 960 242C795.419 242 662 375.419 662 540Z" fill="url(#paint1_radial_315_169)"/>
<path fill-rule="evenodd" clip-rule="evenodd" d="M1546 539.5C1546 856.83 1276.83 1131 959.5 1131C642.17 1131 385.392 857.3 385.392 539.969C385.392 222.639 642.17 -51.5 959.5 -51.5C1276.83 -51.5 1546 222.17 1546 539.5ZM959.5 1059.15C1246.5 1059.15 1479.15 826.497 1479.15 539.5C1479.15 252.503 1246.5 19.8457 959.5 19.8457C672.503 19.8457 439.846 252.503 439.846 539.5C439.846 826.497 672.503 1059.15 959.5 1059.15Z" fill="url(#paint2_radial_315_169)"/>
<path fill-rule="evenodd" clip-rule="evenodd" d="M1589 539.5C1589 887.163 1307.16 1169 959.5 1169C611.837 1169 330 887.163 330 539.5C330 191.837 611.837 -90 959.5 -90C1307.16 -90 1589 191.837 1589 539.5ZM959.5 1131C1276.83 1131 1546 856.83 1546 539.5C1546 222.17 1276.83 -51.5 959.5 -51.5C642.17 -51.5 385.392 222.639 385.392 539.969C385.392 857.3 642.17 1131 959.5 1131Z" fill="url(#paint3_radial_315_169)"/>
<path fill-rule="evenodd" clip-rule="evenodd" d="M1466 539.5C1466 819.232 1239.23 1046 959.5 1046C679.768 1046 453 819.232 453 539.5C453 259.768 679.768 33 959.5 33C1239.23 33 1466 259.768 1466 539.5ZM959.5 1036C1233.71 1036 1456 813.709 1456 539.5C1456 265.291 1233.71 43 959.5 43C685.291 43 463 265.291 463 539.5C463 813.709 685.291 1036 959.5 1036Z" fill="url(#paint4_radial_315_169)"/>
<path fill-rule="evenodd" clip-rule="evenodd" d="M1610 540C1610 898.985 1318.98 1190 960 1190C601.015 1190 310 898.985 310 540C310 181.015 601.015 -110 960 -110C1318.98 -110 1610 181.015 1610 540ZM960 1177.17C1311.9 1177.17 1597.17 891.898 1597.17 540C1597.17 188.103 1311.9 -97.1668 960 -97.1668C608.103 -97.1668 322.833 188.103 322.833 540C322.833 891.898 608.103 1177.17 960 1177.17Z" fill="url(#paint5_radial_315_169)"/>
</g>
<defs>
<linearGradient id="paint0_linear_315_169" x1="1258" y1="710.975" x2="662" y2="369.025" gradientUnits="userSpaceOnUse">
<stop stop-color="#AB3527"/>
<stop offset="0.565" stop-color="#282828"/>
</linearGradient>
<radialGradient id="paint1_radial_315_169" cx="0" cy="0" r="1" gradientUnits="userSpaceOnUse" gradientTransform="translate(960 540) rotate(-147.378) scale(1294.76)">
<stop stop-color="#282828" stop-opacity="0"/>
<stop offset="1" stop-color="#AB3527"/>
</radialGradient>
<radialGradient id="paint2_radial_315_169" cx="0" cy="0" r="1" gradientUnits="userSpaceOnUse" gradientTransform="translate(1135.5 607) rotate(7.08736) scale(660.547)">
<stop stop-color="#948276"/>
<stop offset="1" stop-color="#282828"/>
</radialGradient>
<radialGradient id="paint3_radial_315_169" cx="0" cy="0" r="1" gradientUnits="userSpaceOnUse" gradientTransform="translate(1135.5 607) rotate(7.08736) scale(660.547)">
<stop stop-color="#6A5D54"/>
<stop offset="1" stop-color="#282828"/>
</radialGradient>
<radialGradient id="paint4_radial_315_169" cx="0" cy="0" r="1" gradientUnits="userSpaceOnUse" gradientTransform="translate(1135.5 607) rotate(7.08736) scale(660.547)">
<stop stop-color="#544942"/>
<stop offset="1" stop-color="#282828"/>
</radialGradient>
<radialGradient id="paint5_radial_315_169" cx="0" cy="0" r="1" gradientUnits="userSpaceOnUse" gradientTransform="translate(1141.73 609.698) rotate(7.08736) scale(682.058)">
<stop stop-color="#4F4037"/>
<stop offset="1" stop-color="#282828"/>
</radialGradient>
<clipPath id="clip0_315_169">
<rect width="1920" height="1080" fill="white"/>
</clipPath>
</defs>
</svg>
